sources
<glyph name="ampersand" format="2">
  <advance width="166"/>
  <unicode hex="0026"/>
  <outline>
    <contour>
      <point x="357" y="166" type="move" smooth="yes"/>
    </contour>
    <contour>
      <point x="62" y="103" type="line"/>
      <point x="156" y="103" type="line"/>
      <point x="156" y="80" type="line"/>
      <point x="133" y="80" type="line"/>
      <point x="133" y="0" type="line"/>
      <point x="110" y="0" type="line"/>
      <point x="110" y="80" type="line"/>
      <point x="62" y="80" type="line"/>
    </contour>
    <contour>
      <point x="117" y="33" type="move" smooth="yes"/>
    </contour>
    <contour>
      <point x="133" y="17" type="move" smooth="yes"/>
    </contour>
    <contour>
      <point x="116" y="150" type="move" smooth="yes"/>
    </contour>
    <contour>
      <point x="132" y="167" type="move" smooth="yes"/>
    </contour>
    <contour>
      <point x="74" y="167" type="curve" smooth="yes"/>
      <point x="50.7053" y="167"/>
      <point x="36" y="152.698"/>
      <point x="36" y="133" type="curve" smooth="yes"/>
      <point x="36" y="115"/>
      <point x="47.3333" y="105"/>
      <point x="70" y="103" type="curve"/>
      <point x="95" y="103" type="line"/>
      <point x="95" y="80" type="line"/>
      <point x="76" y="80" type="line" smooth="yes"/>
      <point x="50.6667" y="80"/>
      <point x="38" y="70.6667"/>
      <point x="38" y="52" type="curve" smooth="yes"/>
      <point x="38" y="28.9743"/>
      <point x="55.2613" y="17"/>
      <point x="75" y="17" type="curve" smooth="yes"/>
      <point x="95" y="17"/>
      <point x="109" y="22.3333"/>
      <point x="117" y="33" type="curve"/>
      <point x="133" y="17" type="line"/>
      <point x="119" y="1.66667"/>
      <point x="99.6667" y="-6"/>
      <point x="75" y="-6" type="curve" smooth="yes"/>
      <point x="41.3538" y="-6"/>
      <point x="14" y="16.6886"/>
      <point x="14" y="45" type="curve" smooth="yes"/>
      <point x="14" y="66.3633"/>
      <point x="29.6365" y="86.9273"/>
      <point x="50" y="91" type="curve"/>
      <point x="30.9375" y="94.8125"/>
      <point x="13" y="113.958"/>
      <point x="13" y="138" type="curve" smooth="yes"/>
      <point x="13" y="165.88"/>
      <point x="39.8251" y="190"/>
      <point x="74" y="190" type="curve" smooth="yes"/>
      <point x="98.6667" y="190"/>
      <point x="118" y="182.333"/>
      <point x="132" y="167" type="curve"/>
      <point x="116" y="150" type="line"/>
      <point x="109.156" y="159.582"/>
      <point x="89.9054" y="167"/>
    </contour>
  </outline>
</glyph>
<glyph name="asterisk" format="2">
  <advance width="123"/>
  <unicode hex="002A"/>
  <outline>
    <contour>
      <point x="52" y="116" type="line"/>
      <point x="52" y="184" type="line"/>
      <point x="76" y="184" type="line"/>
      <point x="76" y="116" type="line"/>
    </contour>
    <contour>
      <point x="110" y="150" type="line"/>
      <point x="29" y="70" type="line"/>
      <point x="13" y="86" type="line"/>
      <point x="94" y="166" type="line"/>
    </contour>
    <contour>
      <point x="31" y="168" type="line"/>
      <point x="111" y="88" type="line"/>
      <point x="95" y="72" type="line"/>
      <point x="14" y="152" type="line"/>
    </contour>
  </outline>
</glyph>
<glyph name="at" format="2">
  <advance width="251"/>
  <unicode hex="0040"/>
  <outline>
    <contour>
      <point x="203" y="19" type="curve" smooth="yes"/>
      <point x="182.772" y="19"/>
      <point x="169" y="38.9194"/>
      <point x="169" y="67" type="curve"/>
      <point x="170" y="86" type="line"/>
      <point x="192" y="86" type="line"/>
      <point x="192" y="67" type="line" smooth="yes"/>
      <point x="192" y="51"/>
      <point x="196" y="43"/>
      <point x="204" y="43" type="curve" smooth="yes"/>
      <point x="212" y="43"/>
      <point x="216" y="51"/>
      <point x="216" y="67" type="curve" smooth="yes"/>
      <point x="216" y="103" type="line" smooth="yes"/>
      <point x="216" y="119.667"/>
      <point x="206.5" y="134.167"/>
      <point x="187.5" y="146.5" type="curve" smooth="yes"/>
      <point x="168.5" y="158.833"/>
      <point x="146.333" y="165"/>
      <point x="121" y="165" type="curve" smooth="yes"/>
      <point x="93.4068" y="165"/>
      <point x="36" y="155.452"/>
      <point x="36" y="76" type="curve" smooth="yes"/>
      <point x="36" y="27.5359"/>
      <point x="58.1036" y="6"/>
      <point x="112" y="6" type="curve" smooth="yes"/>
      <point x="136" y="6" type="line"/>
      <point x="136" y="-19" type="line"/>
      <point x="116" y="-19" type="line" smooth="yes"/>
      <point x="82.6667" y="-19"/>
      <point x="57" y="-10.3333"/>
      <point x="39" y="7" type="curve" smooth="yes"/>
      <point x="21" y="24.3333"/>
      <point x="12" y="48.6667"/>
      <point x="12" y="80" type="curve" smooth="yes"/>
      <point x="13.3351" y="146.756"/>
      <point x="54.8328" y="188"/>
      <point x="122" y="188" type="curve" smooth="yes"/>
      <point x="154" y="188"/>
      <point x="181.333" y="179.667"/>
      <point x="204" y="163" type="curve" smooth="yes"/>
      <point x="226.667" y="146.333"/>
      <point x="238.667" y="126"/>
      <point x="240" y="102" type="curve"/>
      <point x="239" y="67" type="line" smooth="yes"/>
      <point x="239" y="39.9444"/>
      <point x="223.093" y="19"/>
    </contour>
    <contour>
      <point x="192" y="86" type="curve" smooth="yes"/>
      <point x="192" y="49.725"/>
      <point x="165.348" y="19"/>
      <point x="125" y="19" type="curve" smooth="yes"/>
      <point x="106.333" y="19"/>
      <point x="90.3333" y="25.5"/>
      <point x="77" y="38.5" type="curve" smooth="yes"/>
      <point x="63.6667" y="51.5"/>
      <point x="57" y="67.3333"/>
      <point x="57" y="86" type="curve" smooth="yes"/>
      <point x="57" y="104.667"/>
      <point x="63.6667" y="120.667"/>
      <point x="77" y="134" type="curve" smooth="yes"/>
      <point x="90.3333" y="147.333"/>
      <point x="106.333" y="154"/>
      <point x="125" y="154" type="curve" smooth="yes"/>
      <point x="143.667" y="154"/>
      <point x="159.5" y="147.5"/>
      <point x="172.5" y="134.5" type="curve" smooth="yes"/>
      <point x="185.5" y="121.5"/>
      <point x="192" y="105.333"/>
    </contour>
    <contour>
      <point x="125.5" y="131" type="curve" smooth="yes"/>
      <point x="100.683" y="131"/>
      <point x="80" y="111.36"/>
      <point x="80" y="87" type="curve" smooth="yes"/>
      <point x="80" y="63.0522"/>
      <point x="100.243" y="42"/>
      <point x="125.5" y="42" type="curve" smooth="yes"/>
      <point x="150.029" y="42"/>
      <point x="170" y="61.0601"/>
      <point x="170" y="87" type="curve" smooth="yes"/>
      <point x="170" y="110.897"/>
      <point x="150.761" y="131"/>
    </contour>
  </outline>
</glyph>
<glyph name="A" format="2">
  <advance width="153"/>
  <unicode hex="0041"/>
  <outline>
    <contour>
      <point x="38" y="86" type="line"/>
      <point x="111" y="86" type="line"/>
      <point x="111" y="63" type="line"/>
      <point x="38" y="63" type="line"/>
    </contour>
    <contour>
      <point x="149" y="0" type="line"/>
      <point x="126" y="0" type="line"/>
      <point x="66" y="184" type="line"/>
      <point x="89" y="184" type="line"/>
    </contour>
    <contour>
      <point x="6" y="0" type="line"/>
      <point x="66" y="184" type="line"/>
      <point x="89" y="184" type="line"/>
      <point x="29" y="0" type="line"/>
    </contour>
  </outline>
</glyph>
<glyph name="asciicircum" format="2">
  <advance width="145"/>
  <unicode hex="005E"/>
  <outline>
    <contour>
      <point x="11" y="99" type="line"/>
      <point x="61" y="184" type="line"/>
      <point x="84" y="184" type="line"/>
      <point x="34" y="99" type="line"/>
    </contour>
    <contour>
      <point x="134" y="99" type="line"/>
      <point x="111" y="99" type="line"/>
      <point x="61" y="184" type="line"/>
      <point x="84" y="184" type="line"/>
    </contour>
  </outline>
</glyph>
<glyph name="a" format="2">
  <advance width="141"/>
  <unicode hex="0061"/>
  <outline>
    <contour>
      <point x="68" y="57" type="line" smooth="yes"/>
      <point x="48.2059" y="57"/>
      <point x="32" y="48.329"/>
      <point x="32" y="36" type="curve" smooth="yes"/>
      <point x="32" y="24"/>
      <point x="43.3333" y="18"/>
      <point x="66" y="18" type="curve" smooth="yes"/>
      <point x="89.3333" y="18"/>
      <point x="103.667" y="26.6667"/>
      <point x="109" y="44" type="curve"/>
      <point x="125" y="28" type="line"/>
      <point x="115" y="6"/>
      <point x="95.6667" y="-5"/>
      <point x="67" y="-5" type="curve" smooth="yes"/>
      <point x="35.0035" y="-5"/>
      <point x="8" y="12.8723"/>
      <point x="8" y="36" type="curve" smooth="yes"/>
      <point x="8" y="60.563"/>
      <point x="36.0663" y="80"/>
      <point x="68" y="80" type="curve" smooth="yes"/>
      <point x="108" y="80" type="line"/>
      <point x="108" y="57" type="line"/>
    </contour>
    <contour>
      <point x="16" y="107" type="move" smooth="yes"/>
    </contour>
    <contour>
      <point x="32" y="90" type="move" smooth="yes"/>
    </contour>
    <contour>
      <point x="125" y="83" type="curve" smooth="yes"/>
      <point x="125" y="0" type="line"/>
      <point x="102" y="0" type="line"/>
      <point x="102" y="83" type="line" smooth="yes"/>
      <point x="102" y="99"/>
      <point x="91.6667" y="107"/>
      <point x="71" y="107" type="curve" smooth="yes"/>
      <point x="54.3333" y="107"/>
      <point x="41.3333" y="101.333"/>
      <point x="32" y="90" type="curve"/>
      <point x="16" y="107" type="line"/>
      <point x="29.3333" y="122.333"/>
      <point x="46" y="130"/>
      <point x="66" y="130" type="curve" smooth="yes"/>
      <point x="105.333" y="130"/>
      <point x="125" y="114.333"/>
    </contour>
  </outline>
</glyph>
<glyph name="asciitilde" format="2">
  <advance width="166"/>
  <unicode hex="007E"/>
  <outline>
    <contour>
      <point x="31" y="72" type="move" smooth="yes"/>
    </contour>
    <contour>
      <point x="15" y="89" type="move" smooth="yes"/>
    </contour>
    <contour>
      <point x="91" y="99" type="move" smooth="yes"/>
    </contour>
    <contour>
      <point x="74" y="82" type="move" smooth="yes"/>
    </contour>
    <contour>
      <point x="134" y="112" type="move" smooth="yes"/>
    </contour>
    <contour>
      <point x="151" y="95" type="move" smooth="yes"/>
    </contour>
    <contour>
      <point x="112" y="90" type="curve" smooth="yes"/>
      <point x="121.54" y="90"/>
      <point x="125.332" y="93.2193"/>
      <point x="134" y="112" type="curve"/>
      <point x="151" y="95" type="line"/>
      <point x="143.667" y="76.3333"/>
      <point x="130.333" y="67"/>
      <point x="111" y="67" type="curve" smooth="yes"/>
      <point x="94.3333" y="67"/>
      <point x="81" y="73.3333"/>
      <point x="71" y="86" type="curve" smooth="yes"/>
      <point x="67" y="91.3333"/>
      <point x="62.3333" y="94"/>
      <point x="57" y="94" type="curve" smooth="yes"/>
      <point x="45" y="94"/>
      <point x="36.3333" y="86.6667"/>
      <point x="31" y="72" type="curve"/>
      <point x="15" y="89" type="line"/>
      <point x="24.3333" y="107.667"/>
      <point x="37.6667" y="117"/>
      <point x="55" y="117" type="curve" smooth="yes"/>
      <point x="68.3333" y="117"/>
      <point x="80" y="111.333"/>
      <point x="90" y="100" type="curve" smooth="yes"/>
      <point x="96" y="93.3333"/>
      <point x="103.333" y="90"/>
    </contour>
  </outline>
</glyph>
<glyph name="acute" format="2">
  <advance width="71"/>
  <unicode hex="00B4"/>
  <outline>
    <contour>
      <point x="10" y="141" type="line"/>
      <point x="40" y="184" type="line"/>
      <point x="63" y="184" type="line"/>
      <point x="23" y="141" type="line"/>
    </contour>
  </outline>
</glyph>
<glyph name="AE" format="2">
  <advance width="229"/>
  <unicode hex="00C6"/>
  <outline>
    <contour>
      <point x="372" y="247" type="move" smooth="yes"/>
    </contour>
    <contour>
      <point x="115" y="104" type="line"/>
      <point x="209" y="104" type="line"/>
      <point x="209" y="81" type="line"/>
      <point x="115" y="81" type="line"/>
    </contour>
    <contour>
      <point x="105" y="184" type="line"/>
      <point x="219" y="184" type="line"/>
      <point x="219" y="161" type="line"/>
      <point x="115" y="161" type="line"/>
    </contour>
    <contour>
      <point x="115" y="23" type="line"/>
      <point x="219" y="23" type="line"/>
      <point x="219" y="0" type="line"/>
      <point x="105" y="0" type="line"/>
    </contour>
    <contour>
      <point x="105" y="0" type="line"/>
      <point x="105" y="184" type="line"/>
      <point x="128" y="174" type="line"/>
      <point x="128" y="10" type="line"/>
    </contour>
    <contour>
      <point x="57" y="86" type="line"/>
      <point x="121" y="86" type="line"/>
      <point x="121" y="63" type="line"/>
      <point x="57" y="63" type="line"/>
    </contour>
    <contour>
      <point x="5" y="0" type="line"/>
      <point x="105" y="184" type="line"/>
      <point x="128" y="184" type="line"/>
      <point x="28" y="0" type="line"/>
    </contour>
  </outline>
</glyph>
<glyph name="ae" format="2">
  <advance width="248"/>
  <unicode hex="00E6"/>
  <outline>
    <contour>
      <point x="68" y="57" type="line" smooth="yes"/>
      <point x="48.2059" y="57"/>
      <point x="32" y="48.329"/>
      <point x="32" y="36" type="curve" smooth="yes"/>
      <point x="32" y="24"/>
      <point x="43.3333" y="18"/>
      <point x="66" y="18" type="curve" smooth="yes"/>
      <point x="89.3333" y="18"/>
      <point x="103.667" y="26.6667"/>
      <point x="109" y="44" type="curve"/>
      <point x="125" y="28" type="line"/>
      <point x="115" y="6"/>
      <point x="95.6667" y="-5"/>
      <point x="67" y="-5" type="curve" smooth="yes"/>
      <point x="35.0035" y="-5"/>
      <point x="8" y="12.8723"/>
      <point x="8" y="36" type="curve" smooth="yes"/>
      <point x="8" y="60.563"/>
      <point x="36.0663" y="80"/>
      <point x="68" y="80" type="curve" smooth="yes"/>
      <point x="108" y="80" type="line"/>
      <point x="108" y="57" type="line"/>
    </contour>
    <contour>
      <point x="126" y="62" type="curve" smooth="yes"/>
      <point x="126" y="37.7493"/>
      <point x="145.75" y="18"/>
      <point x="170" y="18" type="curve" smooth="yes"/>
      <point x="184.667" y="18"/>
      <point x="196.333" y="23.3333"/>
      <point x="205" y="34" type="curve"/>
      <point x="221" y="18" type="line"/>
      <point x="207.667" y="2.66667"/>
      <point x="190.667" y="-5"/>
      <point x="170" y="-5" type="curve" smooth="yes"/>
      <point x="151.333" y="-5"/>
      <point x="135.333" y="1.5"/>
      <point x="122" y="14.5" type="curve" smooth="yes"/>
      <point x="108.667" y="27.5"/>
      <point x="102" y="43.3333"/>
      <point x="102" y="62" type="curve" smooth="yes"/>
      <point x="102" y="80.6667"/>
      <point x="108.667" y="96.6667"/>
      <point x="122" y="110" type="curve" smooth="yes"/>
      <point x="135.333" y="123.333"/>
      <point x="151.5" y="130"/>
      <point x="170.5" y="130" type="curve" smooth="yes"/>
      <point x="189.5" y="130"/>
      <point x="205.5" y="123.333"/>
      <point x="218.5" y="110" type="curve" smooth="yes"/>
      <point x="231.5" y="96.6667"/>
      <point x="238" y="80.6667"/>
      <point x="238" y="62" type="curve"/>
      <point x="214" y="63" type="line"/>
      <point x="214" y="87.2507"/>
      <point x="194.25" y="107"/>
      <point x="170" y="107" type="curve" smooth="yes"/>
      <point x="146.481" y="107"/>
      <point x="126" y="88.2943"/>
    </contour>
    <contour>
      <point x="114" y="74" type="line"/>
      <point x="226" y="74" type="line"/>
      <point x="238" y="62" type="line"/>
      <point x="238" y="50" type="line"/>
      <point x="114" y="50" type="line"/>
    </contour>
    <contour>
      <point x="205" y="34" type="move" smooth="yes"/>
    </contour>
    <contour>
      <point x="221" y="18" type="move" smooth="yes"/>
    </contour>
    <contour>
      <point x="16" y="107" type="move" smooth="yes"/>
    </contour>
    <contour>
      <point x="32" y="90" type="move" smooth="yes"/>
    </contour>
    <contour>
      <point x="16" y="107" type="line"/>
      <point x="31.2938" y="125.075"/>
      <point x="42.7321" y="130"/>
      <point x="64" y="130" type="curve" smooth="yes"/>
      <point x="104.667" y="130"/>
      <point x="125" y="114.333"/>
      <point x="125" y="83" type="curve" smooth="yes"/>
      <point x="125" y="70" type="line"/>
      <point x="102" y="70" type="line"/>
      <point x="102" y="83" type="line" smooth="yes"/>
      <point x="102" y="100.319"/>
      <point x="92.748" y="107"/>
      <point x="69" y="107" type="curve" smooth="yes"/>
      <point x="53" y="107"/>
      <point x="40.6667" y="101.333"/>
      <point x="32" y="90" type="curve"/>
    </contour>
  </outline>
</glyph>
<glyph name="uni0292" format="2">
  <advance width="129"/>
  <unicode hex="0292"/>
  <outline>
    <contour>
      <point x="18" y="-2" type="move" smooth="yes"/>
    </contour>
    <contour>
      <point x="3" y="18" type="move" smooth="yes"/>
    </contour>
    <contour>
      <point x="98" y="4" type="curve" smooth="yes"/>
      <point x="98" y="24.1032"/>
      <point x="84.1436" y="32"/>
      <point x="50" y="32" type="curve"/>
      <point x="50" y="52" type="line"/>
      <point x="82" y="102" type="line"/>
      <point x="12" y="102" type="line"/>
      <point x="12" y="124" type="line"/>
      <point x="119" y="124" type="line"/>
      <point x="73" y="52" type="line"/>
      <point x="98.9124" y="52"/>
      <point x="121" y="31.6163"/>
      <point x="121" y="1" type="curve" smooth="yes"/>
      <point x="121" y="-29.2479"/>
      <point x="97.6304" y="-52"/>
      <point x="62" y="-52" type="curve" smooth="yes"/>
      <point x="41.3333" y="-52"/>
      <point x="21.3333" y="-41"/>
      <point x="2" y="-19" type="curve"/>
      <point x="18" y="-2" type="line"/>
      <point x="19" y="-4" type="line"/>
      <point x="32.3333" y="-20.6667"/>
      <point x="46.3333" y="-29"/>
      <point x="61" y="-29" type="curve" smooth="yes"/>
      <point x="84.2666" y="-29"/>
      <point x="98" y="-15.6663"/>
    </contour>
  </outline>
</glyph>
<glyph name="uni0293" format="2">
  <advance width="132"/>
  <unicode hex="0293"/>
  <outline>
    <contour>
      <point x="101" y="4" type="curve" smooth="yes"/>
      <point x="101" y="24.1032"/>
      <point x="87.1436" y="32"/>
      <point x="53" y="32" type="curve"/>
      <point x="53" y="52" type="line"/>
      <point x="85" y="102" type="line"/>
      <point x="15" y="102" type="line"/>
      <point x="15" y="124" type="line"/>
      <point x="122" y="124" type="line"/>
      <point x="76" y="52" type="line"/>
      <point x="102.481" y="52"/>
      <point x="124" y="30.0693"/>
      <point x="124" y="0" type="curve" smooth="yes"/>
      <point x="124" y="-18"/>
      <point x="117.333" y="-33.3333"/>
      <point x="104" y="-46" type="curve" smooth="yes"/>
      <point x="90.6667" y="-58.6667"/>
      <point x="74.3333" y="-65"/>
      <point x="55" y="-65" type="curve" smooth="yes"/>
      <point x="24.5435" y="-65"/>
      <point x="4" y="-47.8541"/>
      <point x="4" y="-27" type="curve" smooth="yes"/>
      <point x="4" y="-6.01033"/>
      <point x="25.03" y="12"/>
      <point x="54" y="12" type="curve" smooth="yes"/>
      <point x="79.3355" y="12"/>
      <point x="98.6817" y="-2.58198"/>
      <point x="129" y="-56" type="curve"/>
      <point x="117" y="-67" type="line"/>
      <point x="95.6667" y="-27.6667"/>
      <point x="73.6667" y="-8"/>
      <point x="51" y="-8" type="curve" smooth="yes"/>
      <point x="34.3333" y="-8"/>
      <point x="26" y="-14"/>
      <point x="26" y="-26" type="curve" smooth="yes"/>
      <point x="26" y="-37.3333"/>
      <point x="34.3333" y="-43"/>
      <point x="51" y="-43" type="curve" smooth="yes"/>
      <point x="78.9155" y="-43"/>
      <point x="101" y="-23.2188"/>
    </contour>
  </outline>
</glyph>
<glyph name="uni0294" format="2">
  <advance width="124"/>
  <unicode hex="0294"/>
  <outline>
    <contour>
      <point x="19" y="152" type="move" smooth="yes"/>
    </contour>
    <contour>
      <point x="3" y="168" type="move" smooth="yes"/>
    </contour>
    <contour>
      <point x="57" y="191" type="curve" smooth="yes"/>
      <point x="93.204" y="191"/>
      <point x="117" y="170.855"/>
      <point x="117" y="140" type="curve" smooth="yes"/>
      <point x="117" y="126.667"/>
      <point x="108.5" y="113"/>
      <point x="91.5" y="99" type="curve" smooth="yes"/>
      <point x="74.5" y="85"/>
      <point x="66" y="71.6667"/>
      <point x="66" y="59" type="curve" smooth="yes"/>
      <point x="66" y="0" type="line"/>
      <point x="43" y="0" type="line"/>
      <point x="43" y="59" type="line" smooth="yes"/>
      <point x="43" y="74.5982"/>
      <point x="49.063" y="84.0525"/>
      <point x="73" y="104" type="curve" smooth="yes"/>
      <point x="87" y="116"/>
      <point x="94" y="127"/>
      <point x="94" y="137" type="curve" smooth="yes"/>
      <point x="94" y="157.667"/>
      <point x="81.6667" y="168"/>
      <point x="57" y="168" type="curve" smooth="yes"/>
      <point x="40.3333" y="168"/>
      <point x="27.6667" y="162.667"/>
      <point x="19" y="152" type="curve"/>
      <point x="3" y="168" type="line"/>
      <point x="16.3333" y="183.333"/>
      <point x="34.3333" y="191"/>
    </contour>
  </outline>
</glyph>
<glyph name="uni0295" format="2">
  <advance width="123"/>
  <unicode hex="0295"/>
  <outline>
    <contour>
      <point x="105" y="152" type="move" smooth="yes"/>
    </contour>
    <contour>
      <point x="121" y="168" type="move" smooth="yes"/>
    </contour>
    <contour>
      <point x="67" y="191" type="curve" smooth="yes"/>
      <point x="30.796" y="191"/>
      <point x="7" y="170.855"/>
      <point x="7" y="140" type="curve" smooth="yes"/>
      <point x="7" y="126.667"/>
      <point x="15.5" y="113"/>
      <point x="32.5" y="99" type="curve" smooth="yes"/>
      <point x="49.5" y="85"/>
      <point x="58" y="71.6667"/>
      <point x="58" y="59" type="curve" smooth="yes"/>
      <point x="58" y="0" type="line"/>
      <point x="81" y="0" type="line"/>
      <point x="81" y="59" type="line" smooth="yes"/>
      <point x="81" y="74.5982"/>
      <point x="74.937" y="84.0525"/>
      <point x="51" y="104" type="curve" smooth="yes"/>
      <point x="37" y="116"/>
      <point x="30" y="127"/>
      <point x="30" y="137" type="curve" smooth="yes"/>
      <point x="30" y="157.667"/>
      <point x="42.3333" y="168"/>
      <point x="67" y="168" type="curve" smooth="yes"/>
      <point x="83.6667" y="168"/>
      <point x="96.3333" y="162.667"/>
      <point x="105" y="152" type="curve"/>
      <point x="121" y="168" type="line"/>
      <point x="107.667" y="183.333"/>
      <point x="89.6667" y="191"/>
    </contour>
  </outline>
</glyph>
<glyph name="uni0296" format="2">
  <advance width="128"/>
  <unicode hex="0296"/>
  <outline>
    <contour>
      <point x="21" y="32" type="move" smooth="yes"/>
    </contour>
    <contour>
      <point x="5" y="16" type="move" smooth="yes"/>
    </contour>
    <contour>
      <point x="59" y="-7" type="curve" smooth="yes"/>
      <point x="95.204" y="-7"/>
      <point x="119" y="13.145"/>
      <point x="119" y="44" type="curve" smooth="yes"/>
      <point x="119" y="57.3333"/>
      <point x="110.5" y="71"/>
      <point x="93.5" y="85" type="curve" smooth="yes"/>
      <point x="76.5" y="99"/>
      <point x="68" y="112.333"/>
      <point x="68" y="125" type="curve" smooth="yes"/>
      <point x="68" y="184" type="line"/>
      <point x="45" y="184" type="line"/>
      <point x="45" y="125" type="line" smooth="yes"/>
      <point x="45" y="105.07"/>
      <point x="59.5304" y="92.3097"/>
      <point x="73.0794" y="80.4107" type="curve" smooth="yes"/>
      <point x="84.914" y="70.0172"/>
      <point x="96" y="60.2814"/>
      <point x="96" y="47" type="curve" smooth="yes"/>
      <point x="96" y="26.3333"/>
      <point x="83.6667" y="16"/>
      <point x="59" y="16" type="curve" smooth="yes"/>
      <point x="42.3333" y="16"/>
      <point x="29.6667" y="21.3333"/>
      <point x="21" y="32" type="curve"/>
      <point x="5" y="16" type="line"/>
      <point x="18.3333" y="0.666667"/>
      <point x="36.3333" y="-7"/>
    </contour>
  </outline>
</glyph>
<glyph name="uni0297" format="2">
  <advance width="139"/>
  <unicode hex="0297"/>
  <outline>
    <contour>
      <point x="81" y="107" type="curve" smooth="yes"/>
      <point x="55.4385" y="107"/>
      <point x="36" y="87.5631"/>
      <point x="36" y="62" type="curve" smooth="yes"/>
      <point x="36" y="22" type="line" smooth="yes"/>
      <point x="36" y="-2.67414"/>
      <point x="57.1657" y="-22"/>
      <point x="81" y="-22" type="curve" smooth="yes"/>
      <point x="95.6667" y="-22"/>
      <point x="107.333" y="-16.6667"/>
      <point x="116" y="-6" type="curve"/>
      <point x="132" y="-22" type="line"/>
      <point x="118.667" y="-37.3333"/>
      <point x="101.667" y="-45"/>
      <point x="81" y="-45" type="curve" smooth="yes"/>
      <point x="62.3333" y="-45"/>
      <point x="46.3333" y="-38.5"/>
      <point x="33" y="-25.5" type="curve" smooth="yes"/>
      <point x="19.6667" y="-12.5"/>
      <point x="13" y="3.33333"/>
      <point x="13" y="22" type="curve" smooth="yes"/>
      <point x="13" y="62" type="line" smooth="yes"/>
      <point x="13" y="80.6667"/>
      <point x="19.6667" y="96.6667"/>
      <point x="33" y="110" type="curve" smooth="yes"/>
      <point x="46.3333" y="123.333"/>
      <point x="62.3333" y="130"/>
      <point x="81" y="130" type="curve" smooth="yes"/>
      <point x="101" y="130"/>
      <point x="118" y="122.333"/>
      <point x="132" y="107" type="curve"/>
      <point x="116" y="90" type="line"/>
      <point x="106.667" y="101.333"/>
      <point x="95" y="107"/>
    </contour>
    <contour>
      <point x="116" y="-6" type="move" smooth="yes"/>
    </contour>
    <contour>
      <point x="132" y="-22" type="move" smooth="yes"/>
    </contour>
    <contour>
      <point x="116" y="90" type="move" smooth="yes"/>
    </contour>
    <contour>
      <point x="132" y="107" type="move" smooth="yes"/>
    </contour>
  </outline>
</glyph>
<glyph name="uni0298" format="2">
  <advance width="217"/>
  <unicode hex="0298"/>
  <outline>
    <contour>
      <point x="96" y="81" type="line"/>
      <point x="96" y="104" type="line"/>
      <point x="119" y="104" type="line"/>
      <point x="119" y="81" type="line"/>
    </contour>
    <contour>
      <point x="32" y="92" type="curve" smooth="yes"/>
      <point x="32" y="71.3333"/>
      <point x="39.3333" y="53.8333"/>
      <point x="54" y="39.5" type="curve" smooth="yes"/>
      <point x="68.6667" y="25.1667"/>
      <point x="86.6667" y="18"/>
      <point x="108" y="18" type="curve" smooth="yes"/>
      <point x="129.333" y="18"/>
      <point x="147.167" y="25.1667"/>
      <point x="161.5" y="39.5" type="curve" smooth="yes"/>
      <point x="175.833" y="53.8333"/>
      <point x="183" y="71.3333"/>
      <point x="183" y="92" type="curve" smooth="yes"/>
      <point x="183" y="113.333"/>
      <point x="175.833" y="131.167"/>
      <point x="161.5" y="145.5" type="curve" smooth="yes"/>
      <point x="147.167" y="159.833"/>
      <point x="129.333" y="167"/>
      <point x="108" y="167" type="curve" smooth="yes"/>
      <point x="86.6667" y="167"/>
      <point x="68.6667" y="159.667"/>
      <point x="54" y="145" type="curve" smooth="yes"/>
      <point x="39.3333" y="130.333"/>
      <point x="32" y="112.667"/>
    </contour>
    <contour>
      <point x="10" y="92" type="curve" smooth="yes"/>
      <point x="10" y="118.667"/>
      <point x="19.5" y="141.5"/>
      <point x="38.5" y="160.5" type="curve" smooth="yes"/>
      <point x="57.5" y="179.5"/>
      <point x="80.6667" y="189"/>
      <point x="108" y="189" type="curve" smooth="yes"/>
      <point x="134.667" y="189"/>
      <point x="157.5" y="179.5"/>
      <point x="176.5" y="160.5" type="curve" smooth="yes"/>
      <point x="195.5" y="141.5"/>
      <point x="205" y="118.667"/>
      <point x="205" y="92" type="curve" smooth="yes"/>
      <point x="205" y="65.3333"/>
      <point x="195.5" y="42.5"/>
      <point x="176.5" y="23.5" type="curve" smooth="yes"/>
      <point x="157.5" y="4.5"/>
      <point x="134.667" y="-5"/>
      <point x="108" y="-5" type="curve" smooth="yes"/>
      <point x="80.6667" y="-5"/>
      <point x="57.5" y="4.5"/>
      <point x="38.5" y="23.5" type="curve" smooth="yes"/>
      <point x="19.5" y="42.5"/>
      <point x="10" y="65.3333"/>
    </contour>
  </outline>
</glyph>
<glyph name="uni0299" format="2">
  <advance width="123"/>
  <unicode hex="0299"/>
  <outline>
    <contour>
      <point x="60" y="22" type="line" smooth="yes"/>
      <point x="79.7313" y="22"/>
      <point x="92" y="30.805"/>
      <point x="92" y="41" type="curve" smooth="yes"/>
      <point x="92" y="51.6667"/>
      <point x="82" y="57.6667"/>
      <point x="62" y="59" type="curve"/>
      <point x="39" y="59" type="line"/>
      <point x="39" y="22" type="line"/>
    </contour>
    <contour>
      <point x="114" y="40" type="curve" smooth="yes"/>
      <point x="114" y="19.3909"/>
      <point x="91.2477" y="0"/>
      <point x="59" y="0" type="curve" smooth="yes"/>
      <point x="16" y="0" type="line"/>
      <point x="16" y="129" type="line"/>
      <point x="58" y="129" type="line" smooth="yes"/>
      <point x="85.7365" y="129"/>
      <point x="104" y="114.197"/>
      <point x="104" y="96" type="curve" smooth="yes"/>
      <point x="104" y="85.3333"/>
      <point x="98.6667" y="76.6667"/>
      <point x="88" y="70" type="curve"/>
      <point x="105.333" y="62"/>
      <point x="114" y="52"/>
    </contour>
    <contour>
      <point x="58" y="107" type="curve" smooth="yes"/>
      <point x="39" y="107" type="line"/>
      <point x="39" y="81" type="line"/>
      <point x="58" y="81" type="line" smooth="yes"/>
      <point x="74" y="81"/>
      <point x="82" y="85"/>
      <point x="82" y="93" type="curve" smooth="yes"/>
      <point x="82" y="102.333"/>
      <point x="74" y="107"/>
    </contour>
  </outline>
</glyph>
<glyph name="acutecomb" format="2">
  <advance width="0"/>
  <unicode hex="0301"/>
  <outline>
    <contour>
      <point x="11" y="141" type="line"/>
      <point x="41" y="184" type="line"/>
      <point x="64" y="184" type="line"/>
      <point x="24" y="141" type="line"/>
    </contour>
  </outline>
</glyph>
<glyph name="uni0302" format="2">
  <advance width="0"/>
  <unicode hex="0302"/>
  <outline>
    <contour>
      <point x="81" y="141" type="line"/>
      <point x="41" y="184" type="line"/>
      <point x="64" y="184" type="line"/>
      <point x="94" y="141" type="line"/>
    </contour>
    <contour>
      <point x="11" y="141" type="line"/>
      <point x="41" y="184" type="line"/>
      <point x="64" y="184" type="line"/>
      <point x="24" y="141" type="line"/>
    </contour>
  </outline>
</glyph>
<glyph name="uni0305" format="2">
  <advance width="0"/>
  <unicode hex="0305"/>
  <outline>
    <contour>
      <point x="-92" y="161" type="line"/>
      <point x="-92" y="184" type="line"/>
      <point x="92" y="184" type="line"/>
      <point x="92" y="161" type="line"/>
    </contour>
  </outline>
</glyph>
<glyph name="uni0310" format="2">
  <advance width="0"/>
  <unicode hex="0310"/>
  <outline>
    <contour>
      <point x="63" y="171" type="line"/>
      <point x="63" y="194" type="line"/>
      <point x="86" y="194" type="line"/>
      <point x="86" y="171" type="line"/>
    </contour>
    <contour>
      <point x="30" y="184" type="move" smooth="yes"/>
    </contour>
    <contour>
      <point x="14" y="168" type="move" smooth="yes"/>
    </contour>
    <contour>
      <point x="75" y="140" type="curve" smooth="yes"/>
      <point x="99" y="140"/>
      <point x="119.333" y="149.333"/>
      <point x="136" y="168" type="curve"/>
      <point x="120" y="184" type="line"/>
      <point x="108" y="170"/>
      <point x="93" y="163"/>
      <point x="75" y="163" type="curve" smooth="yes"/>
      <point x="57" y="163"/>
      <point x="42" y="170"/>
      <point x="30" y="184" type="curve"/>
      <point x="14" y="168" type="line"/>
      <point x="30.6667" y="149.333"/>
      <point x="51" y="140"/>
    </contour>
    <contour>
      <point x="120" y="184" type="move" smooth="yes"/>
    </contour>
    <contour>
      <point x="136" y="168" type="move" smooth="yes"/>
    </contour>
  </outline>
</glyph>
<glyph name="uni0311" format="2">
  <advance width="0"/>
  <unicode hex="0311"/>
  <outline>
    <contour>
      <point x="120" y="140" type="move" smooth="yes"/>
    </contour>
    <contour>
      <point x="136" y="156" type="move" smooth="yes"/>
    </contour>
    <contour>
      <point x="75" y="184" type="curve" smooth="yes"/>
      <point x="51" y="184"/>
      <point x="30.6667" y="174.667"/>
      <point x="14" y="156" type="curve"/>
      <point x="30" y="140" type="line"/>
      <point x="42.6667" y="154.667"/>
      <point x="57.6667" y="162"/>
      <point x="75" y="162" type="curve" smooth="yes"/>
      <point x="92.3333" y="162"/>
      <point x="107.333" y="154.667"/>
      <point x="120" y="140" type="curve"/>
      <point x="136" y="156" type="line"/>
      <point x="119.333" y="174.667"/>
      <point x="99" y="184"/>
    </contour>
    <contour>
      <point x="30" y="140" type="move" smooth="yes"/>
    </contour>
    <contour>
      <point x="14" y="156" type="move" smooth="yes"/>
    </contour>
  </outline>
</glyph>
<glyph name="uni0312" format="2">
  <advance width="0"/>
  <unicode hex="0312"/>
  <outline>
    <contour>
      <point x="39" y="184" type="curve"/>
      <point x="39" y="177" type="line"/>
      <point x="26.3333" y="177"/>
      <point x="19.3333" y="169.333"/>
      <point x="18" y="154" type="curve"/>
      <point x="25" y="148" type="line"/>
      <point x="11" y="156" type="line"/>
      <point x="12.2602" y="168.602"/>
      <point x="24.7038" y="184"/>
    </contour>
    <contour>
      <point x="34" y="156" type="line"/>
      <point x="34" y="133" type="line"/>
      <point x="11" y="133" type="line"/>
      <point x="11" y="156" type="line"/>
    </contour>
  </outline>
</glyph>
<glyph name="uni0313" format="2">
  <advance width="0"/>
  <unicode hex="0313"/>
  <outline>
    <contour>
      <point x="11" y="133" type="curve"/>
      <point x="11" y="140" type="line"/>
      <point x="23.6667" y="140"/>
      <point x="30.6667" y="147.667"/>
      <point x="32" y="163" type="curve"/>
      <point x="25" y="169" type="line"/>
      <point x="39" y="161" type="line"/>
      <point x="37.6485" y="146.134"/>
      <point x="24.4752" y="133"/>
    </contour>
    <contour>
      <point x="16" y="161" type="line"/>
      <point x="16" y="184" type="line"/>
      <point x="39" y="184" type="line"/>
      <point x="39" y="161" type="line"/>
    </contour>
  </outline>
</glyph>
<glyph name="uni0314" format="2">
  <advance width="0"/>
  <unicode hex="0314"/>
  <outline>
    <contour>
      <point x="39" y="133" type="curve"/>
      <point x="39" y="140" type="line"/>
      <point x="26.3333" y="140"/>
      <point x="19.3333" y="147.667"/>
      <point x="18" y="163" type="curve"/>
      <point x="25" y="169" type="line"/>
      <point x="11" y="161" type="line"/>
      <point x="12.3515" y="146.134"/>
      <point x="25.5248" y="133"/>
    </contour>
    <contour>
      <point x="34" y="161" type="line"/>
      <point x="34" y="184" type="line"/>
      <point x="11" y="184" type="line"/>
      <point x="11" y="161" type="line"/>
    </contour>
  </outline>
</glyph>
<glyph name="uni0315" format="2">
  <advance width="0"/>
  <unicode hex="0315"/>
  <outline>
    <contour>
      <point x="41" y="133" type="curve"/>
      <point x="41" y="140" type="line"/>
      <point x="53.6667" y="140"/>
      <point x="60.6667" y="147.667"/>
      <point x="62" y="163" type="curve"/>
      <point x="55" y="169" type="line"/>
      <point x="69" y="161" type="line"/>
      <point x="67.6485" y="146.134"/>
      <point x="54.4752" y="133"/>
    </contour>
    <contour>
      <point x="46" y="161" type="line"/>
      <point x="46" y="184" type="line"/>
      <point x="69" y="184" type="line"/>
      <point x="69" y="161" type="line"/>
    </contour>
  </outline>
</glyph>
<glyph name="uni0316" format="2">
  <advance width="0"/>
  <unicode hex="0316"/>
  <outline>
    <contour>
      <point x="64" y="-49" type="line"/>
      <point x="34" y="-6" type="line"/>
      <point x="11" y="-6" type="line"/>
      <point x="51" y="-49" type="line"/>
    </contour>
  </outline>
</glyph>
<glyph name="uni0317" format="2">
  <advance width="0"/>
  <unicode hex="0317"/>
  <outline>
    <contour>
      <point x="11" y="-49" type="line"/>
      <point x="41" y="-6" type="line"/>
      <point x="64" y="-6" type="line"/>
      <point x="24" y="-49" type="line"/>
    </contour>
  </outline>
</glyph>
<glyph name="uni0318" format="2">
  <advance width="0"/>
  <unicode hex="0318"/>
  <outline>
    <contour>
      <point x="49" y="-59" type="line"/>
      <point x="49" y="4" type="line"/>
      <point x="72" y="4" type="line"/>
      <point x="72" y="-59" type="line"/>
    </contour>
    <contour>
      <point x="18" y="-39" type="line"/>
      <point x="18" y="-16" type="line"/>
      <point x="71" y="-16" type="line"/>
      <point x="71" y="-39" type="line"/>
    </contour>
  </outline>
</glyph>
<glyph name="uni0319" format="2">
  <advance width="0"/>
  <unicode hex="0319"/>
  <outline>
    <contour>
      <point x="41" y="-59" type="line"/>
      <point x="41" y="4" type="line"/>
      <point x="18" y="4" type="line"/>
      <point x="18" y="-59" type="line"/>
    </contour>
    <contour>
      <point x="72" y="-39" type="line"/>
      <point x="72" y="-16" type="line"/>
      <point x="19" y="-16" type="line"/>
      <point x="19" y="-39" type="line"/>
    </contour>
  </outline>
</glyph>
<glyph name="uni0320" format="2">
  <advance width="0"/>
  <unicode hex="0320"/>
  <outline>
    <contour>
      <point x="14" y="-40" type="line"/>
      <point x="76" y="-40" type="line"/>
      <point x="76" y="-16" type="line"/>
      <point x="14" y="-16" type="line"/>
    </contour>
  </outline>
</glyph>
<glyph name="uni0321" format="2">
  <advance width="0"/>
  <unicode hex="0321"/>
  <outline>
    <contour>
      <point x="17" y="-58" type="line"/>
      <point x="49.6657" y="-58"/>
      <point x="72" y="-33.1491"/>
      <point x="72" y="0" type="curve" smooth="yes"/>
      <point x="72" y="16" type="line"/>
      <point x="65" y="17" type="line"/>
      <point x="59" y="17" type="line"/>
      <point x="55" y="10.3333"/>
      <point x="51.6667" y="4.66667"/>
      <point x="49" y="0" type="curve"/>
      <point x="49" y="-19.0893"/>
      <point x="34.2981" y="-34"/>
      <point x="17" y="-34" type="curve"/>
    </contour>
  </outline>
</glyph>
<glyph name="uni0322" format="2">
  <advance width="0"/>
  <unicode hex="0322"/>
  <outline>
    <contour>
      <point x="72" y="-58" type="line"/>
      <point x="39.3343" y="-58"/>
      <point x="17" y="-33.1491"/>
      <point x="17" y="0" type="curve" smooth="yes"/>
      <point x="17" y="16" type="line"/>
      <point x="24" y="17" type="line"/>
      <point x="30" y="17" type="line"/>
      <point x="34" y="10.3333"/>
      <point x="37.3333" y="4.66667"/>
      <point x="40" y="0" type="curve"/>
      <point x="40" y="-19.0893"/>
      <point x="54.7019" y="-34"/>
      <point x="72" y="-34" type="curve"/>
    </contour>
  </outline>
</glyph>
<glyph name="uni0324" format="2">
  <advance width="0"/>
  <unicode hex="0324"/>
  <outline>
    <contour>
      <point x="58" y="-39" type="line"/>
      <point x="58" y="-16" type="line"/>
      <point x="81" y="-16" type="line"/>
      <point x="81" y="-39" type="line"/>
    </contour>
    <contour>
      <point x="18" y="-39" type="line"/>
      <point x="18" y="-16" type="line"/>
      <point x="41" y="-16" type="line"/>
      <point x="41" y="-39" type="line"/>
    </contour>
  </outline>
</glyph>
<glyph name="uni0325" format="2">
  <advance width="0"/>
  <unicode hex="0325"/>
  <outline>
    <contour>
      <point x="46" y="-12" type="curve" smooth="yes"/>
      <point x="35.2118" y="-12"/>
      <point x="26" y="-21.2119"/>
      <point x="26" y="-32" type="curve" smooth="yes"/>
      <point x="26" y="-42.7882"/>
      <point x="35.2119" y="-52"/>
      <point x="46" y="-52" type="curve" smooth="yes"/>
      <point x="56.7882" y="-52"/>
      <point x="66" y="-42.7881"/>
      <point x="66" y="-32" type="curve" smooth="yes"/>
      <point x="66" y="-21.2118"/>
      <point x="56.7881" y="-12"/>
    </contour>
    <contour>
      <point x="46" y="-64" type="curve" smooth="yes"/>
      <point x="27.1953" y="-64"/>
      <point x="14" y="-50.8036"/>
      <point x="14" y="-32" type="curve" smooth="yes"/>
      <point x="14" y="-13.1953"/>
      <point x="27.1964" y="0"/>
      <point x="46" y="0" type="curve" smooth="yes"/>
      <point x="64.8047" y="0"/>
      <point x="78" y="-13.1964"/>
      <point x="78" y="-32" type="curve" smooth="yes"/>
      <point x="78" y="-50.8047"/>
      <point x="64.8036" y="-64"/>
    </contour>
  </outline>
</glyph>
<glyph name="uni0326" format="2">
  <advance width="0"/>
  <unicode hex="0326"/>
  <outline>
    <contour>
      <point x="11" y="-55" type="curve"/>
      <point x="11" y="-48" type="line"/>
      <point x="23.6667" y="-48"/>
      <point x="30.6667" y="-40.3333"/>
      <point x="32" y="-25" type="curve"/>
      <point x="25" y="-19" type="line"/>
      <point x="39" y="-27" type="line"/>
      <point x="37.6485" y="-41.8662"/>
      <point x="24.4752" y="-55"/>
    </contour>
    <contour>
      <point x="16" y="-27" type="line"/>
      <point x="16" y="-4" type="line"/>
      <point x="39" y="-4" type="line"/>
      <point x="39" y="-27" type="line"/>
    </contour>
  </outline>
</glyph>
<glyph name="uni0327" format="2">
  <advance width="0"/>
  <unicode hex="0327"/>
  <outline>
    <contour>
      <point x="39" y="-59" type="move" smooth="yes"/>
    </contour>
    <contour>
      <point x="22" y="-16" type="move" smooth="yes"/>
    </contour>
    <contour>
      <point x="66" y="-16" type="move" smooth="yes"/>
    </contour>
    <contour>
      <point x="50" y="-10" type="move" smooth="yes"/>
    </contour>
    <contour>
      <point x="16" y="-32" type="curve"/>
      <point x="32" y="-16" type="line"/>
      <point x="40.6667" y="-26.6667"/>
      <point x="49" y="-32"/>
      <point x="57" y="-32" type="curve" smooth="yes"/>
      <point x="58" y="-32" type="line" smooth="yes"/>
      <point x="67.3333" y="-32"/>
      <point x="72" y="-29.6667"/>
      <point x="72" y="-25" type="curve" smooth="yes"/>
      <point x="72" y="-21"/>
      <point x="69.3333" y="-19"/>
      <point x="64" y="-19" type="curve" smooth="yes"/>
      <point x="43" y="-19" type="line"/>
      <point x="43" y="-16" type="line"/>
      <point x="56" y="0" type="line"/>
      <point x="73" y="0" type="line"/>
      <point x="66" y="-7" type="line"/>
      <point x="67" y="-7" type="line" smooth="yes"/>
      <point x="85.6667" y="-7"/>
      <point x="95" y="-15.3333"/>
      <point x="95" y="-32" type="curve" smooth="yes"/>
      <point x="95" y="-47.3333"/>
      <point x="84" y="-55"/>
      <point x="62" y="-55" type="curve" smooth="yes"/>
      <point x="44.6667" y="-55"/>
      <point x="29.3333" y="-47.3333"/>
    </contour>
  </outline>
</glyph>
<glyph name="uni0328" format="2">
  <advance width="0"/>
  <unicode hex="0328"/>
  <outline>
    <contour>
      <point x="65" y="-56" type="move" smooth="yes"/>
    </contour>
    <contour>
      <point x="82" y="-12" type="move" smooth="yes"/>
    </contour>
    <contour>
      <point x="35" y="0" type="move" smooth="yes"/>
    </contour>
    <contour>
      <point x="52" y="16" type="move" smooth="yes"/>
    </contour>
    <contour>
      <point x="46" y="-52" type="curve" smooth="yes"/>
      <point x="22.1919" y="-52"/>
      <point x="9" y="-39.6078"/>
      <point x="9" y="-23" type="curve" smooth="yes"/>
      <point x="9" y="-7"/>
      <point x="21" y="3.33333"/>
      <point x="45" y="8" type="curve"/>
      <point x="57" y="11" type="line"/>
      <point x="68" y="-6" type="line"/>
      <point x="47" y="-10" type="line" smooth="yes"/>
      <point x="37" y="-12"/>
      <point x="32" y="-16"/>
      <point x="32" y="-22" type="curve" smooth="yes"/>
      <point x="32" y="-26.6667"/>
      <point x="36" y="-29"/>
      <point x="44" y="-29" type="curve" smooth="yes"/>
      <point x="53.3333" y="-29"/>
      <point x="62.6667" y="-23.3333"/>
      <point x="72" y="-12" type="curve"/>
      <point x="88" y="-29" type="line"/>
      <point x="74.6667" y="-44.3333"/>
      <point x="60.6667" y="-52"/>
    </contour>
  </outline>
</glyph>
<glyph name="uni0330" format="2">
  <advance width="0"/>
  <unicode hex="0330"/>
  <outline>
    <contour>
      <point x="30" y="-50" type="move" smooth="yes"/>
    </contour>
    <contour>
      <point x="14" y="-33" type="move" smooth="yes"/>
    </contour>
    <contour>
      <point x="90" y="-23" type="move" smooth="yes"/>
    </contour>
    <contour>
      <point x="74" y="-40" type="move" smooth="yes"/>
    </contour>
    <contour>
      <point x="134" y="-10" type="move" smooth="yes"/>
    </contour>
    <contour>
      <point x="150" y="-27" type="move" smooth="yes"/>
    </contour>
    <contour>
      <point x="134" y="-10" type="line"/>
      <point x="127.848" y="-25.9949"/>
      <point x="122.344" y="-32"/>
      <point x="111" y="-32" type="curve" smooth="yes"/>
      <point x="102.333" y="-32"/>
      <point x="95" y="-28.6667"/>
      <point x="89" y="-22" type="curve" smooth="yes"/>
      <point x="79" y="-10.6667"/>
      <point x="67.3333" y="-5"/>
      <point x="54" y="-5" type="curve" smooth="yes"/>
      <point x="36.6667" y="-5"/>
      <point x="23.3333" y="-14.3333"/>
      <point x="14" y="-33" type="curve"/>
      <point x="30" y="-50" type="line"/>
      <point x="35.3333" y="-35.3333"/>
      <point x="44" y="-28"/>
      <point x="56" y="-28" type="curve" smooth="yes"/>
      <point x="62" y="-28"/>
      <point x="67.3333" y="-31"/>
      <point x="72" y="-37" type="curve" smooth="yes"/>
      <point x="81.3333" y="-49"/>
      <point x="94" y="-55"/>
      <point x="110" y="-55" type="curve" smooth="yes"/>
      <point x="129.333" y="-55"/>
      <point x="142.667" y="-45.6667"/>
      <point x="150" y="-27" type="curve"/>
    </contour>
  </outline>
</glyph>
<glyph name="uni0331" format="2">
  <advance width="0"/>
  <unicode hex="0331"/>
  <outline>
    <contour>
      <point x="18" y="-39" type="line"/>
      <point x="18" y="-16" type="line"/>
      <point x="111" y="-16" type="line"/>
      <point x="111" y="-39" type="line"/>
    </contour>
  </outline>
</glyph>
<glyph name="uni0332" format="2">
  <advance width="0"/>
  <unicode hex="0332"/>
  <outline>
    <contour>
      <point x="-92" y="-29" type="line"/>
      <point x="-92" y="-6" type="line"/>
      <point x="92" y="-6" type="line"/>
      <point x="92" y="-29" type="line"/>
    </contour>
  </outline>
</glyph>
<glyph name="uni0333" format="2">
  <advance width="0"/>
  <unicode hex="0333"/>
  <outline>
    <contour>
      <point x="-92" y="-29" type="line"/>
      <point x="-92" y="-6" type="line"/>
      <point x="92" y="-6" type="line"/>
      <point x="92" y="-29" type="line"/>
    </contour>
    <contour>
      <point x="-92" y="-69" type="line"/>
      <point x="-92" y="-46" type="line"/>
      <point x="92" y="-46" type="line"/>
      <point x="92" y="-69" type="line"/>
    </contour>
  </outline>
</glyph>
<glyph name="uni0334" format="2">
  <advance width="0"/>
  <unicode hex="0334"/>
  <outline>
    <contour>
      <point x="30" y="70" type="move" smooth="yes"/>
    </contour>
    <contour>
      <point x="14" y="86" type="move" smooth="yes"/>
    </contour>
    <contour>
      <point x="90" y="96" type="move" smooth="yes"/>
    </contour>
    <contour>
      <point x="74" y="80" type="move" smooth="yes"/>
    </contour>
    <contour>
      <point x="134" y="108" type="move" smooth="yes"/>
    </contour>
    <contour>
      <point x="150" y="92" type="move" smooth="yes"/>
    </contour>
    <contour>
      <point x="134" y="108" type="line"/>
      <point x="126.809" y="90.742"/>
      <point x="121.838" y="87"/>
      <point x="111" y="87" type="curve" smooth="yes"/>
      <point x="102.333" y="87"/>
      <point x="95" y="90.3333"/>
      <point x="89" y="97" type="curve" smooth="yes"/>
      <point x="79" y="108.333"/>
      <point x="67.3333" y="114"/>
      <point x="54" y="114" type="curve" smooth="yes"/>
      <point x="36.6667" y="114"/>
      <point x="23.3333" y="104.667"/>
      <point x="14" y="86" type="curve"/>
      <point x="30" y="70" type="line"/>
      <point x="35.3333" y="84"/>
      <point x="44.3333" y="91"/>
      <point x="57" y="91" type="curve" smooth="yes"/>
      <point x="62.3333" y="91"/>
      <point x="67.6667" y="88"/>
      <point x="73" y="82" type="curve" smooth="yes"/>
      <point x="82.3333" y="70"/>
      <point x="94.6667" y="64"/>
      <point x="110" y="64" type="curve" smooth="yes"/>
      <point x="129.333" y="64"/>
      <point x="142.667" y="73.3333"/>
      <point x="150" y="92" type="curve"/>
    </contour>
  </outline>
</glyph>
<glyph name="uni0335" format="2">
  <advance width="0"/>
  <unicode hex="0335"/>
  <outline>
    <contour>
      <point x="18" y="81" type="line"/>
      <point x="18" y="104" type="line"/>
      <point x="111" y="104" type="line"/>
      <point x="111" y="81" type="line"/>
    </contour>
  </outline>
</glyph>
<glyph name="uni0336" format="2">
  <advance width="0"/>
  <unicode hex="0336"/>
  <outline>
    <contour>
      <point x="-92" y="81" type="line"/>
      <point x="-92" y="104" type="line"/>
      <point x="92" y="104" type="line"/>
      <point x="92" y="81" type="line"/>
    </contour>
  </outline>
</glyph>
<glyph name="uni0337" format="2">
  <advance width="0"/>
  <unicode hex="0337"/>
  <outline>
    <contour>
      <point x="-5" y="-17" type="line"/>
      <point x="96" y="134" type="line"/>
      <point x="119" y="134" type="line"/>
      <point x="18" y="-17" type="line"/>
    </contour>
  </outline>
</glyph>
<glyph name="uni0338" format="2">
  <advance width="0"/>
  <unicode hex="0338"/>
  <outline>
    <contour>
      <point x="2" y="-40" type="line"/>
      <point x="106" y="184" type="line"/>
      <point x="129" y="184" type="line"/>
      <point x="25" y="-40" type="line"/>
    </contour>
  </outline>
</glyph>
<glyph name="uni0339" format="2">
  <advance width="0"/>
  <unicode hex="0339"/>
  <outline>
    <contour>
      <point x="15" y="-10" type="line"/>
      <point x="31.1419" y="-10"/>
      <point x="47" y="-21.889"/>
      <point x="47" y="-42" type="curve" smooth="yes"/>
      <point x="47" y="-62.1113"/>
      <point x="31.1416" y="-74"/>
      <point x="15" y="-74" type="curve"/>
      <point x="15" y="-62" type="line"/>
      <point x="25.7882" y="-62"/>
      <point x="35" y="-52.7881"/>
      <point x="35" y="-42" type="curve" smooth="yes"/>
      <point x="35" y="-31.2118"/>
      <point x="25.7881" y="-22"/>
      <point x="15" y="-22" type="curve"/>
    </contour>
  </outline>
</glyph>
<glyph name="uni0340" format="2">
  <advance width="0"/>
  <unicode hex="0340"/>
  <outline>
    <contour>
      <point x="14" y="141" type="line"/>
      <point x="-26" y="184" type="line"/>
      <point x="-4" y="184" type="line"/>
      <point x="26" y="141" type="line"/>
    </contour>
  </outline>
</glyph>
<glyph name="uni0342" format="2">
  <advance width="0"/>
  <unicode hex="0342"/>
  <outline>
    <contour>
      <point x="30" y="146" type="move" smooth="yes"/>
    </contour>
    <contour>
      <point x="14" y="162" type="move" smooth="yes"/>
    </contour>
    <contour>
      <point x="90" y="172" type="move" smooth="yes"/>
    </contour>
    <contour>
      <point x="74" y="156" type="move" smooth="yes"/>
    </contour>
    <contour>
      <point x="134" y="184" type="move" smooth="yes"/>
    </contour>
    <contour>
      <point x="150" y="168" type="move" smooth="yes"/>
    </contour>
    <contour>
      <point x="134" y="184" type="line"/>
      <point x="126.809" y="166.742"/>
      <point x="121.838" y="163"/>
      <point x="111" y="163" type="curve" smooth="yes"/>
      <point x="102.333" y="163"/>
      <point x="95" y="166.333"/>
      <point x="89" y="173" type="curve" smooth="yes"/>
      <point x="79" y="184.333"/>
      <point x="67.3333" y="190"/>
      <point x="54" y="190" type="curve" smooth="yes"/>
      <point x="36.6667" y="190"/>
      <point x="23.3333" y="180.667"/>
      <point x="14" y="162" type="curve"/>
      <point x="30" y="146" type="line"/>
      <point x="35.3333" y="160"/>
      <point x="44.3333" y="167"/>
      <point x="57" y="167" type="curve" smooth="yes"/>
      <point x="62.3333" y="167"/>
      <point x="67.6667" y="164"/>
      <point x="73" y="158" type="curve" smooth="yes"/>
      <point x="82.3333" y="146"/>
      <point x="94.6667" y="140"/>
      <point x="110" y="140" type="curve" smooth="yes"/>
      <point x="129.333" y="140"/>
      <point x="142.667" y="149.333"/>
      <point x="150" y="168" type="curve"/>
    </contour>
  </outline>
</glyph>
<glyph name="uni0343" format="2">
  <advance width="0"/>
  <unicode hex="0343"/>
  <outline>
    <contour>
      <point x="18" y="121" type="line"/>
      <point x="28" y="184" type="line"/>
      <point x="51" y="184" type="line"/>
      <point x="31" y="121" type="line"/>
    </contour>
  </outline>
</glyph>
<glyph name="uni0344" format="2">
  <advance width="0"/>
  <unicode hex="0344"/>
  <outline>
    <contour>
      <point x="42" y="121" type="line"/>
      <point x="52" y="184" type="line"/>
      <point x="75" y="184" type="line"/>
      <point x="55" y="121" type="line"/>
    </contour>
    <contour>
      <point x="72" y="121" type="line"/>
      <point x="72" y="144" type="line"/>
      <point x="95" y="144" type="line"/>
      <point x="95" y="121" type="line"/>
    </contour>
    <contour>
      <point x="12" y="121" type="line"/>
      <point x="12" y="144" type="line"/>
      <point x="35" y="144" type="line"/>
      <point x="35" y="121" type="line"/>
    </contour>
  </outline>
</glyph>
<glyph name="uni0345" format="2">
  <advance width="0"/>
  <unicode hex="0345"/>
  <outline>
    <contour>
      <point x="65" y="-56" type="move" smooth="yes"/>
    </contour>
    <contour>
      <point x="82" y="-12" type="move" smooth="yes"/>
    </contour>
    <contour>
      <point x="32" y="7" type="line"/>
      <point x="32" y="-17"/>
      <point x="37.3333" y="-29"/>
      <point x="48" y="-29" type="curve" smooth="yes"/>
      <point x="54.6667" y="-29"/>
      <point x="62.6667" y="-23.3333"/>
      <point x="72" y="-12" type="curve"/>
      <point x="88" y="-29" type="line"/>
      <point x="74.6667" y="-44.3333"/>
      <point x="61.3333" y="-52"/>
      <point x="48" y="-52" type="curve" smooth="yes"/>
      <point x="24.5252" y="-52"/>
      <point x="9" y="-31.0824"/>
      <point x="9" y="6" type="curve"/>
    </contour>
  </outline>
</glyph>
<glyph name="uni0346" format="2">
  <advance width="0"/>
  <unicode hex="0346"/>
  <outline>
    <contour>
      <point x="18" y="145" type="line"/>
      <point x="18" y="188" type="line"/>
      <point x="41" y="188" type="line"/>
      <point x="41" y="145" type="line"/>
    </contour>
    <contour>
      <point x="88" y="145" type="line"/>
      <point x="88" y="188" type="line"/>
      <point x="111" y="188" type="line"/>
      <point x="111" y="145" type="line"/>
    </contour>
    <contour>
      <point x="18" y="165" type="line"/>
      <point x="18" y="188" type="line"/>
      <point x="111" y="188" type="line"/>
      <point x="111" y="165" type="line"/>
    </contour>
  </outline>
</glyph>
<glyph name="uni0347" format="2">
  <advance width="0"/>
  <unicode hex="0347"/>
  <outline>
    <contour>
      <point x="14" y="-70" type="line"/>
      <point x="76" y="-70" type="line"/>
      <point x="76" y="-46" type="line"/>
      <point x="14" y="-46" type="line"/>
    </contour>
    <contour>
      <point x="14" y="-40" type="line"/>
      <point x="76" y="-40" type="line"/>
      <point x="76" y="-16" type="line"/>
      <point x="14" y="-16" type="line"/>
    </contour>
  </outline>
</glyph>
<glyph name="uni0348" format="2">
  <advance width="0"/>
  <unicode hex="0348"/>
  <outline>
    <contour>
      <point x="68" y="-79" type="line"/>
      <point x="68" y="-16" type="line"/>
      <point x="91" y="-16" type="line"/>
      <point x="91" y="-79" type="line"/>
    </contour>
    <contour>
      <point x="18" y="-79" type="line"/>
      <point x="18" y="-16" type="line"/>
      <point x="41" y="-16" type="line"/>
      <point x="41" y="-79" type="line"/>
    </contour>
  </outline>
</glyph>
<glyph name="uni0349" format="2">
  <advance width="0"/>
  <unicode hex="0349"/>
  <outline>
    <contour>
      <point x="14" y="-24" type="line"/>
      <point x="76" y="-24" type="line"/>
      <point x="76" y="0" type="line"/>
      <point x="14" y="0" type="line"/>
    </contour>
    <contour>
      <point x="54" y="-54" type="line"/>
      <point x="76" y="-54" type="line"/>
      <point x="76" y="-2" type="line"/>
      <point x="54" y="-2" type="line"/>
    </contour>
  </outline>
</glyph>
<glyph name="uni0350" format="2">
  <advance width="0"/>
  <unicode hex="0350"/>
  <outline>
    <contour>
      <point x="10" y="184" type="line"/>
      <point x="92" y="151" type="line"/>
      <point x="92" y="135" type="line"/>
      <point x="10" y="169" type="line"/>
    </contour>
    <contour>
      <point x="10" y="102" type="line"/>
      <point x="10" y="117" type="line"/>
      <point x="92" y="151" type="line"/>
      <point x="92" y="135" type="line"/>
    </contour>
  </outline>
</glyph>
<glyph name="uni0351" format="2">
  <advance width="0"/>
  <unicode hex="0351"/>
  <outline>
    <contour>
      <point x="47" y="190" type="line"/>
      <point x="30.8581" y="190"/>
      <point x="15" y="178.111"/>
      <point x="15" y="158" type="curve" smooth="yes"/>
      <point x="15" y="137.889"/>
      <point x="30.8584" y="126"/>
      <point x="47" y="126" type="curve"/>
      <point x="47" y="138" type="line"/>
      <point x="36.2118" y="138"/>
      <point x="27" y="147.212"/>
      <point x="27" y="158" type="curve" smooth="yes"/>
      <point x="27" y="168.788"/>
      <point x="36.2119" y="178"/>
      <point x="47" y="178" type="curve"/>
    </contour>
  </outline>
</glyph>
<glyph name="uni0352" format="2">
  <advance width="0"/>
  <unicode hex="0352"/>
  <outline>
    <contour>
      <point x="87" y="163" type="line"/>
      <point x="87" y="140" type="line"/>
      <point x="64" y="140" type="line"/>
      <point x="64" y="163" type="line"/>
    </contour>
    <contour>
      <point x="120" y="150" type="move" smooth="yes"/>
    </contour>
    <contour>
      <point x="136" y="166" type="move" smooth="yes"/>
    </contour>
    <contour>
      <point x="75" y="194" type="curve" smooth="yes"/>
      <point x="51" y="194"/>
      <point x="30.6667" y="184.667"/>
      <point x="14" y="166" type="curve"/>
      <point x="30" y="150" type="line"/>
      <point x="42" y="164"/>
      <point x="57" y="171"/>
      <point x="75" y="171" type="curve" smooth="yes"/>
      <point x="93" y="171"/>
      <point x="108" y="164"/>
      <point x="120" y="150" type="curve"/>
      <point x="136" y="166" type="line"/>
      <point x="119.333" y="184.667"/>
      <point x="99" y="194"/>
    </contour>
    <contour>
      <point x="30" y="150" type="move" smooth="yes"/>
    </contour>
    <contour>
      <point x="14" y="166" type="move" smooth="yes"/>
    </contour>
  </outline>
</glyph>
<glyph name="Alphatonos" format="2">
  <advance width="154"/>
  <unicode hex="0386"/>
  <outline>
    <contour>
      <point x="39" y="86" type="line"/>
      <point x="112" y="86" type="line"/>
      <point x="112" y="63" type="line"/>
      <point x="39" y="63" type="line"/>
    </contour>
    <contour>
      <point x="150" y="0" type="line"/>
      <point x="127" y="0" type="line"/>
      <point x="67" y="184" type="line"/>
      <point x="90" y="184" type="line"/>
    </contour>
    <contour>
      <point x="7" y="0" type="line"/>
      <point x="67" y="184" type="line"/>
      <point x="90" y="184" type="line"/>
      <point x="30" y="0" type="line"/>
    </contour>
    <contour>
      <point x="12" y="121" type="line"/>
      <point x="22" y="184" type="line"/>
      <point x="45" y="184" type="line"/>
      <point x="25" y="121" type="line"/>
    </contour>
  </outline>
</glyph>
<glyph name="uni0394" format="2">
  <advance width="153"/>
  <unicode hex="0394"/>
  <outline>
    <contour>
      <point x="22" y="23" type="line"/>
      <point x="136" y="23" type="line"/>
      <point x="149" y="0" type="line"/>
      <point x="6" y="0" type="line"/>
    </contour>
    <contour>
      <point x="6" y="0" type="line"/>
      <point x="66" y="184" type="line"/>
      <point x="89" y="184" type="line"/>
      <point x="36" y="18" type="line"/>
    </contour>
    <contour>
      <point x="149" y="0" type="line"/>
      <point x="121" y="15" type="line"/>
      <point x="66" y="184" type="line"/>
      <point x="89" y="184" type="line"/>
    </contour>
  </outline>
</glyph>
<glyph name="alpha" format="2">
  <advance width="217"/>
  <unicode hex="03B1"/>
  <outline>
    <contour>
      <point x="146" y="62" type="line" smooth="yes"/>
      <point x="146" y="48.9862"/>
      <point x="149.231" y="18"/>
      <point x="180" y="18" type="curve" smooth="yes"/>
      <point x="184" y="18"/>
      <point x="189.333" y="22"/>
      <point x="196" y="30" type="curve"/>
      <point x="212" y="14" type="line"/>
      <point x="201.333" y="1.33333"/>
      <point x="190" y="-5"/>
      <point x="178" y="-5" type="curve" smooth="yes"/>
      <point x="147.001" y="-5"/>
      <point x="122" y="21.2213"/>
      <point x="122" y="63" type="curve" smooth="yes"/>
      <point x="122" y="125" type="line"/>
      <point x="146" y="125" type="line"/>
    </contour>
    <contour>
      <point x="78.5" y="107" type="curve" smooth="yes"/>
      <point x="53.2384" y="107"/>
      <point x="34" y="86.8959"/>
      <point x="34" y="63" type="curve" smooth="yes"/>
      <point x="34" y="37.0609"/>
      <point x="53.9699" y="18"/>
      <point x="78.5" y="18" type="curve" smooth="yes"/>
      <point x="103.547" y="18"/>
      <point x="122" y="37.6095"/>
      <point x="122" y="63" type="curve" smooth="yes"/>
      <point x="122" y="88.9578"/>
      <point x="102.959" y="107"/>
    </contour>
    <contour>
      <point x="10" y="62" type="curve" smooth="yes"/>
      <point x="10" y="80.6667"/>
      <point x="16.6667" y="96.6667"/>
      <point x="30" y="110" type="curve" smooth="yes"/>
      <point x="43.3333" y="123.333"/>
      <point x="59.5" y="130"/>
      <point x="78.5" y="130" type="curve" smooth="yes"/>
      <point x="97.5" y="130"/>
      <point x="113.5" y="123.333"/>
      <point x="126.5" y="110" type="curve" smooth="yes"/>
      <point x="139.5" y="96.6667"/>
      <point x="146" y="80.6667"/>
      <point x="146" y="62" type="curve" smooth="yes"/>
      <point x="146" y="43.3333"/>
      <point x="139.5" y="27.5"/>
      <point x="126.5" y="14.5" type="curve" smooth="yes"/>
      <point x="113.5" y="1.5"/>
      <point x="97.5" y="-5"/>
      <point x="78.5" y="-5" type="curve" smooth="yes"/>
      <point x="59.5" y="-5"/>
      <point x="43.3333" y="1.5"/>
      <point x="30" y="14.5" type="curve" smooth="yes"/>
      <point x="16.6667" y="27.5"/>
      <point x="10" y="43.3333"/>
    </contour>
  </outline>
</glyph>
<glyph name="uni0402" format="2">
  <advance width="195"/>
  <unicode hex="0402"/>
  <outline>
    <contour>
      <point x="118" y="120" type="curve" smooth="yes"/>
      <point x="156.959" y="120"/>
      <point x="186" y="96.7259"/>
      <point x="186" y="58" type="curve" smooth="yes"/>
      <point x="186" y="24.8504"/>
      <point x="163.665" y="0"/>
      <point x="131" y="0" type="curve"/>
      <point x="131" y="23" type="line"/>
      <point x="148.507" y="23"/>
      <point x="163" y="39.7691"/>
      <point x="163" y="60" type="curve" smooth="yes"/>
      <point x="161.723" y="81.7112"/>
      <point x="145.362" y="97"/>
      <point x="116" y="97" type="curve" smooth="yes"/>
      <point x="104.667" y="97"/>
      <point x="95.1667" y="94.8333"/>
      <point x="87.5" y="90.5" type="curve" smooth="yes"/>
      <point x="79.8333" y="86.1667"/>
      <point x="75.6667" y="80.6667"/>
      <point x="75" y="74" type="curve"/>
      <point x="52" y="72" type="line"/>
      <point x="53.3289" y="99.9064"/>
      <point x="80.0043" y="120"/>
    </contour>
    <contour>
      <point x="299" y="247" type="move" smooth="yes"/>
    </contour>
    <contour>
      <point x="4" y="184" type="line"/>
      <point x="118" y="184" type="line"/>
      <point x="118" y="161" type="line"/>
      <point x="75" y="161" type="line"/>
      <point x="75" y="0" type="line"/>
      <point x="52" y="0" type="line"/>
      <point x="52" y="161" type="line"/>
      <point x="4" y="161" type="line"/>
    </contour>
  </outline>
</glyph>
<glyph name="uni0404" format="2">
  <advance width="187"/>
  <unicode hex="0404"/>
  <outline>
    <contour>
      <point x="31" y="81" type="line"/>
      <point x="31" y="104" type="line"/>
      <point x="155" y="104" type="line"/>
      <point x="155" y="81" type="line"/>
    </contour>
    <contour>
      <point x="164" y="44" type="move" smooth="yes"/>
    </contour>
    <contour>
      <point x="180" y="28" type="move" smooth="yes"/>
    </contour>
    <contour>
      <point x="164" y="141" type="move" smooth="yes"/>
    </contour>
    <contour>
      <point x="180" y="157" type="move" smooth="yes"/>
    </contour>
    <contour>
      <point x="112" y="-5" type="curve" smooth="yes"/>
      <point x="83.3333" y="-5"/>
      <point x="59.3333" y="4.33333"/>
      <point x="40" y="23" type="curve" smooth="yes"/>
      <point x="20.6667" y="41.6667"/>
      <point x="11" y="64.6667"/>
      <point x="11" y="92" type="curve" smooth="yes"/>
      <point x="11" y="119.333"/>
      <point x="20.8333" y="142.5"/>
      <point x="40.5" y="161.5" type="curve" smooth="yes"/>
      <point x="60.1667" y="180.5"/>
      <point x="84" y="190"/>
      <point x="112" y="190" type="curve" smooth="yes"/>
      <point x="137.333" y="190"/>
      <point x="160" y="179"/>
      <point x="180" y="157" type="curve"/>
      <point x="164" y="141" type="line"/>
      <point x="149.333" y="158.333"/>
      <point x="132" y="167"/>
      <point x="112" y="167" type="curve" smooth="yes"/>
      <point x="90" y="167"/>
      <point x="71.5" y="159.833"/>
      <point x="56.5" y="145.5" type="curve" smooth="yes"/>
      <point x="41.5" y="131.167"/>
      <point x="34" y="113.5"/>
      <point x="34" y="92.5" type="curve" smooth="yes"/>
      <point x="34" y="71.5"/>
      <point x="41.5" y="53.8333"/>
      <point x="56.5" y="39.5" type="curve" smooth="yes"/>
      <point x="71.5" y="25.1667"/>
      <point x="90" y="18"/>
      <point x="112" y="18" type="curve" smooth="yes"/>
      <point x="132.667" y="18"/>
      <point x="150" y="26.6667"/>
      <point x="164" y="44" type="curve"/>
      <point x="180" y="28" type="line"/>
      <point x="160.667" y="6"/>
      <point x="138" y="-5"/>
    </contour>
  </outline>
</glyph>
<glyph name="uni0409" format="2">
  <advance width="264"/>
  <unicode hex="0409"/>
  <outline>
    <contour>
      <point x="232" y="65" type="curve" smooth="yes"/>
      <point x="232" y="89.6116"/>
      <point x="217.376" y="100.642"/>
      <point x="178" y="102" type="curve"/>
      <point x="148" y="102" type="line"/>
      <point x="148" y="22" type="line"/>
      <point x="177" y="22" type="line" smooth="yes"/>
      <point x="213.667" y="22"/>
      <point x="232" y="36.3333"/>
    </contour>
    <contour>
      <point x="254" y="65" type="curve" smooth="yes"/>
      <point x="254" y="23.8219"/>
      <point x="222.725" y="0"/>
      <point x="177" y="0" type="curve" smooth="yes"/>
      <point x="125" y="0" type="line"/>
      <point x="125" y="184" type="line"/>
      <point x="148" y="184" type="line"/>
      <point x="148" y="124" type="line"/>
      <point x="177" y="124" type="line" smooth="yes"/>
      <point x="202.279" y="124"/>
      <point x="254" y="117.576"/>
    </contour>
    <contour>
      <point x="148" y="184" type="line"/>
      <point x="148" y="0" type="line"/>
      <point x="125" y="0" type="line"/>
      <point x="125" y="161" type="line"/>
      <point x="64" y="161" type="line"/>
      <point x="59" y="58" type="line" smooth="yes"/>
      <point x="58.0376" y="45.007"/>
      <point x="52.8665" y="0"/>
      <point x="10" y="0" type="curve"/>
      <point x="10" y="23" type="line"/>
      <point x="26" y="23"/>
      <point x="34.6667" y="34.6667"/>
      <point x="36" y="58" type="curve" smooth="yes"/>
      <point x="37.3333" y="92.6667"/>
      <point x="39" y="134.667"/>
      <point x="41" y="184" type="curve"/>
    </contour>
    <contour>
      <point x="41" y="184" type="line"/>
      <point x="41" y="182" type="line"/>
    </contour>
    <contour>
      <point x="263" y="247" type="move" smooth="yes"/>
    </contour>
  </outline>
</glyph>
<glyph name="uni0411" format="2">
  <advance width="158"/>
  <unicode hex="0411"/>
  <outline>
    <contour>
      <point x="149" y="58" type="curve" smooth="yes"/>
      <point x="149" y="22.5726"/>
      <point x="116.911" y="0"/>
      <point x="72" y="0" type="curve" smooth="yes"/>
      <point x="20" y="0" type="line"/>
      <point x="20" y="184" type="line"/>
      <point x="134" y="184" type="line"/>
      <point x="134" y="161" type="line"/>
      <point x="43" y="161" type="line"/>
      <point x="43" y="114" type="line"/>
      <point x="72" y="114" type="line" smooth="yes"/>
      <point x="117.216" y="114"/>
      <point x="149" y="91.8564"/>
    </contour>
    <contour>
      <point x="72" y="22" type="line" smooth="yes"/>
      <point x="89.3333" y="22"/>
      <point x="102.833" y="25.1667"/>
      <point x="112.5" y="31.5" type="curve" smooth="yes"/>
      <point x="122.167" y="37.8333"/>
      <point x="127" y="46.3333"/>
      <point x="127" y="57" type="curve" smooth="yes"/>
      <point x="127" y="79"/>
      <point x="108.667" y="90.6667"/>
      <point x="72" y="92" type="curve"/>
      <point x="43" y="92" type="line"/>
      <point x="43" y="22" type="line"/>
    </contour>
  </outline>
</glyph>
<glyph name="uni0413" format="2">
  <advance width="142"/>
  <unicode hex="0413"/>
  <outline>
    <contour>
      <point x="20" y="184" type="line"/>
      <point x="134" y="184" type="line"/>
      <point x="134" y="161" type="line"/>
      <point x="43" y="161" type="line"/>
      <point x="43" y="0" type="line"/>
      <point x="20" y="0" type="line"/>
    </contour>
  </outline>
</glyph>
<glyph name="uni0414" format="2">
  <advance width="179"/>
  <unicode hex="0414"/>
  <outline>
    <contour>
      <point x="282" y="-224" type="move" smooth="yes"/>
    </contour>
    <contour>
      <point x="169" y="23" type="line"/>
      <point x="169" y="-31" type="line"/>
      <point x="146" y="-31" type="line"/>
      <point x="146" y="13" type="line"/>
    </contour>
    <contour>
      <point x="34" y="13" type="line"/>
      <point x="34" y="-31" type="line"/>
      <point x="11" y="-31" type="line"/>
      <point x="11" y="23" type="line"/>
    </contour>
    <contour>
      <point x="11" y="23" type="line"/>
      <point x="169" y="23" type="line"/>
      <point x="159" y="0" type="line"/>
      <point x="21" y="0" type="line"/>
    </contour>
    <contour>
      <point x="153" y="184" type="line"/>
      <point x="153" y="10" type="line"/>
      <point x="130" y="10" type="line"/>
      <point x="130" y="161" type="line"/>
      <point x="69" y="161" type="line"/>
      <point x="64" y="58" type="line" smooth="yes"/>
      <point x="63.0376" y="45.007"/>
      <point x="57.8665" y="0"/>
      <point x="15" y="0" type="curve"/>
      <point x="15" y="23" type="line"/>
      <point x="31" y="23"/>
      <point x="39.6667" y="34.6667"/>
      <point x="41" y="58" type="curve" smooth="yes"/>
      <point x="42.3333" y="92.6667"/>
      <point x="44" y="134.667"/>
      <point x="46" y="184" type="curve"/>
    </contour>
    <contour>
      <point x="46" y="184" type="line"/>
      <point x="46" y="182" type="line"/>
    </contour>
    <contour>
      <point x="268" y="247" type="move" smooth="yes"/>
    </contour>
  </outline>
</glyph>
<glyph name="uni0416" format="2">
  <advance width="241"/>
  <unicode hex="0416"/>
  <outline>
    <contour>
      <point x="218" y="0" type="line" smooth="yes"/>
      <point x="203.464" y="0"/>
      <point x="168" y="4.18267"/>
      <point x="168" y="45" type="curve" smooth="yes"/>
      <point x="168" y="69"/>
      <point x="155.667" y="81"/>
      <point x="131" y="81" type="curve" smooth="yes"/>
      <point x="110" y="81" type="line" smooth="yes"/>
      <point x="85.3333" y="81"/>
      <point x="73" y="69"/>
      <point x="73" y="45" type="curve" smooth="yes"/>
      <point x="73" y="19.403"/>
      <point x="57.7339" y="0"/>
      <point x="23" y="0" type="curve" smooth="yes"/>
      <point x="13" y="0" type="line"/>
      <point x="13" y="23" type="line"/>
      <point x="23" y="23" type="line" smooth="yes"/>
      <point x="41" y="23"/>
      <point x="50" y="31.3333"/>
      <point x="50" y="48" type="curve" smooth="yes"/>
      <point x="50" y="66.6667"/>
      <point x="57.3333" y="81.3333"/>
      <point x="72" y="92" type="curve"/>
      <point x="57.3333" y="102.667"/>
      <point x="50" y="117.333"/>
      <point x="50" y="136" type="curve" smooth="yes"/>
      <point x="50" y="152.667"/>
      <point x="41" y="161"/>
      <point x="23" y="161" type="curve" smooth="yes"/>
      <point x="13" y="161" type="line"/>
      <point x="13" y="184" type="line"/>
      <point x="23" y="184" type="line" smooth="yes"/>
      <point x="37.5363" y="184"/>
      <point x="73" y="179.817"/>
      <point x="73" y="139" type="curve" smooth="yes"/>
      <point x="73" y="115.667"/>
      <point x="85.3333" y="104"/>
      <point x="110" y="104" type="curve" smooth="yes"/>
      <point x="131" y="104" type="line" smooth="yes"/>
      <point x="155.667" y="104"/>
      <point x="168" y="115.667"/>
      <point x="168" y="139" type="curve" smooth="yes"/>
      <point x="168" y="164.597"/>
      <point x="183.266" y="184"/>
      <point x="218" y="184" type="curve" smooth="yes"/>
      <point x="228" y="184" type="line"/>
      <point x="228" y="161" type="line"/>
      <point x="218" y="161" type="line" smooth="yes"/>
      <point x="200" y="161"/>
      <point x="191" y="152.667"/>
      <point x="191" y="136" type="curve" smooth="yes"/>
      <point x="191" y="117.333"/>
      <point x="183.667" y="102.667"/>
      <point x="169" y="92" type="curve"/>
      <point x="183.667" y="81.3333"/>
      <point x="191" y="66.6667"/>
      <point x="191" y="48" type="curve" smooth="yes"/>
      <point x="191" y="31.3333"/>
      <point x="200" y="23"/>
      <point x="218" y="23" type="curve" smooth="yes"/>
      <point x="228" y="23" type="line"/>
      <point x="228" y="0" type="line"/>
    </contour>
    <contour>
      <point x="109" y="0" type="line"/>
      <point x="109" y="184" type="line"/>
      <point x="132" y="184" type="line"/>
      <point x="132" y="0" type="line"/>
    </contour>
  </outline>
</glyph>
<glyph name="uni0417" format="2">
  <advance width="159"/>
  <unicode hex="0417"/>
  <outline>
    <contour>
      <point x="24" y="43" type="move" smooth="yes"/>
    </contour>
    <contour>
      <point x="7" y="27" type="move" smooth="yes"/>
    </contour>
    <contour>
      <point x="24" y="140" type="move" smooth="yes"/>
    </contour>
    <contour>
      <point x="8" y="157" type="move" smooth="yes"/>
    </contour>
    <contour>
      <point x="146" y="44" type="curve" smooth="yes"/>
      <point x="146" y="13.8598"/>
      <point x="117.845" y="-6"/>
      <point x="81" y="-6" type="curve" smooth="yes"/>
      <point x="51.6667" y="-6"/>
      <point x="27" y="5"/>
      <point x="7" y="27" type="curve"/>
      <point x="24" y="43" type="line"/>
      <point x="38" y="25.6667"/>
      <point x="56.6667" y="17"/>
      <point x="80" y="17" type="curve" smooth="yes"/>
      <point x="93.3333" y="17"/>
      <point x="103.833" y="19.8333"/>
      <point x="111.5" y="25.5" type="curve" smooth="yes"/>
      <point x="119.167" y="31.1667"/>
      <point x="123" y="38.6667"/>
      <point x="123" y="48" type="curve" smooth="yes"/>
      <point x="123" y="69.3333"/>
      <point x="106.667" y="80"/>
      <point x="74" y="80" type="curve" smooth="yes"/>
      <point x="55" y="80" type="line"/>
      <point x="55" y="103" type="line"/>
      <point x="80" y="103" type="line"/>
      <point x="92.3561" y="104.236"/>
      <point x="124" y="109.944"/>
      <point x="124" y="136" type="curve" smooth="yes"/>
      <point x="124" y="154.615"/>
      <point x="107.693" y="167"/>
      <point x="82" y="167" type="curve" smooth="yes"/>
      <point x="58" y="167"/>
      <point x="38.6667" y="158"/>
      <point x="24" y="140" type="curve"/>
      <point x="8" y="157" type="line"/>
      <point x="28" y="179"/>
      <point x="52.3333" y="190"/>
      <point x="81" y="190" type="curve" smooth="yes"/>
      <point x="119.775" y="190"/>
      <point x="147" y="169.008"/>
      <point x="147" y="138" type="curve" smooth="yes"/>
      <point x="147" y="115.584"/>
      <point x="131.913" y="95.1086"/>
      <point x="110" y="91" type="curve"/>
      <point x="129.662" y="87.0676"/>
      <point x="146" y="67.4355"/>
    </contour>
  </outline>
</glyph>
<glyph name="uni0418" format="2">
  <advance width="193"/>
  <unicode hex="0418"/>
  <outline>
    <contour>
      <point x="20" y="0" type="line"/>
      <point x="43" y="0" type="line"/>
      <point x="43" y="184" type="line"/>
      <point x="20" y="184" type="line"/>
    </contour>
    <contour>
      <point x="20" y="0" type="line"/>
      <point x="43" y="0" type="line"/>
      <point x="173" y="184" type="line"/>
      <point x="150" y="184" type="line"/>
    </contour>
    <contour>
      <point x="173" y="0" type="line"/>
      <point x="173" y="184" type="line"/>
      <point x="150" y="184" type="line"/>
      <point x="150" y="0" type="line"/>
    </contour>
  </outline>
</glyph>
<glyph name="uni0423" format="2">
  <advance width="133"/>
  <unicode hex="0423"/>
  <outline>
    <contour>
      <point x="14" y="23" type="line"/>
      <point x="26" y="23"/>
      <point x="34.5" y="25"/>
      <point x="39.5" y="29" type="curve" smooth="yes"/>
      <point x="44.5" y="33"/>
      <point x="49.6667" y="41.6667"/>
      <point x="55" y="55" type="curve"/>
      <point x="55" y="56" type="line"/>
      <point x="5" y="184" type="line"/>
      <point x="28" y="184" type="line"/>
      <point x="66" y="85" type="line"/>
      <point x="105" y="184" type="line"/>
      <point x="128" y="184" type="line"/>
      <point x="128" y="183" type="line"/>
      <point x="78" y="56" type="line"/>
      <point x="66.6667" y="18.6667"/>
      <point x="45.3333" y="0"/>
      <point x="14" y="0" type="curve"/>
    </contour>
  </outline>
</glyph>
<glyph name="uni0426" format="2">
  <advance width="187"/>
  <unicode hex="0426"/>
  <outline>
    <contour>
      <point x="176" y="-41" type="line"/>
      <point x="153" y="-41" type="line"/>
      <point x="153" y="12" type="line"/>
      <point x="176" y="13" type="line"/>
    </contour>
    <contour>
      <point x="117" y="0" type="line"/>
      <point x="117" y="23" type="line"/>
      <point x="176" y="23" type="line"/>
      <point x="176" y="0" type="line"/>
    </contour>
    <contour>
      <point x="-95" y="-63" type="move" smooth="yes"/>
    </contour>
    <contour>
      <point x="162" y="184" type="line"/>
      <point x="162" y="0" type="line"/>
      <point x="20" y="0" type="line"/>
      <point x="20" y="184" type="line"/>
      <point x="43" y="184" type="line"/>
      <point x="43" y="23" type="line"/>
      <point x="139" y="23" type="line"/>
      <point x="139" y="184" type="line"/>
    </contour>
  </outline>
</glyph>
<glyph name="uni0427" format="2">
  <advance width="165"/>
  <unicode hex="0427"/>
  <outline>
    <contour>
      <point x="81" y="64" type="curve" smooth="yes"/>
      <point x="40.9961" y="64"/>
      <point x="10" y="92.6628"/>
      <point x="10" y="132" type="curve" smooth="yes"/>
      <point x="10" y="184" type="line"/>
      <point x="33" y="184" type="line"/>
      <point x="33" y="130" type="line"/>
      <point x="34.3077" y="105.154"/>
      <point x="53.124" y="87"/>
      <point x="82" y="87" type="curve" smooth="yes"/>
      <point x="103.106" y="87"/>
      <point x="120.631" y="96.3147"/>
      <point x="122" y="110" type="curve"/>
      <point x="145" y="112" type="line"/>
      <point x="143.676" y="85.5249"/>
      <point x="116.55" y="64"/>
    </contour>
    <contour>
      <point x="145" y="184" type="line"/>
      <point x="145" y="0" type="line"/>
      <point x="122" y="0" type="line"/>
      <point x="122" y="184" type="line"/>
    </contour>
  </outline>
</glyph>
<glyph name="uni0428" format="2">
  <advance width="232"/>
  <unicode hex="0428"/>
  <outline>
    <contour>
      <point x="-95" y="-63" type="move" smooth="yes"/>
    </contour>
    <contour>
      <point x="212" y="0" type="line"/>
      <point x="212" y="184" type="line"/>
      <point x="189" y="184" type="line"/>
      <point x="189" y="23" type="line"/>
      <point x="126" y="23" type="line"/>
      <point x="126" y="184" type="line"/>
      <point x="103" y="184" type="line"/>
      <point x="103" y="23" type="line"/>
      <point x="43" y="23" type="line"/>
      <point x="43" y="184" type="line"/>
      <point x="20" y="184" type="line"/>
      <point x="20" y="0" type="line"/>
    </contour>
  </outline>
</glyph>
<glyph name="uni0429" format="2">
  <advance width="237"/>
  <unicode hex="0429"/>
  <outline>
    <contour>
      <point x="-95" y="-63" type="move" smooth="yes"/>
    </contour>
    <contour>
      <point x="226" y="-41" type="line"/>
      <point x="203" y="-41" type="line"/>
      <point x="203" y="0" type="line"/>
      <point x="20" y="0" type="line"/>
      <point x="20" y="184" type="line"/>
      <point x="43" y="184" type="line"/>
      <point x="43" y="23" type="line"/>
      <point x="103" y="23" type="line"/>
      <point x="103" y="184" type="line"/>
      <point x="126" y="184" type="line"/>
      <point x="126" y="23" type="line"/>
      <point x="189" y="23" type="line"/>
      <point x="189" y="184" type="line"/>
      <point x="212" y="184" type="line"/>
      <point x="212" y="23" type="line"/>
      <point x="226" y="23" type="line"/>
    </contour>
  </outline>
</glyph>
<glyph name="uni0431" format="2">
  <advance width="147"/>
  <unicode hex="0431"/>
  <outline>
    <contour>
      <point x="88" y="169" type="curve" smooth="yes"/>
      <point x="101.461" y="169"/>
      <point x="106.785" y="171.32"/>
      <point x="122" y="184" type="curve"/>
      <point x="138" y="167" type="line"/>
      <point x="135" y="164" type="line"/>
      <point x="121" y="152"/>
      <point x="104.333" y="146"/>
      <point x="85" y="146" type="curve" smooth="yes"/>
      <point x="53" y="146"/>
      <point x="37" y="135.333"/>
      <point x="37" y="114" type="curve" smooth="yes"/>
      <point x="36" y="76" type="line" smooth="yes"/>
      <point x="36" y="66"/>
      <point x="35.3333" y="61"/>
      <point x="34" y="61" type="curve" smooth="yes"/>
      <point x="32" y="60.3333"/>
      <point x="29.6667" y="67"/>
      <point x="27" y="81" type="curve"/>
      <point x="29.7077" y="97.246"/>
      <point x="52.1562" y="111"/>
      <point x="75" y="111" type="curve" smooth="yes"/>
      <point x="111.307" y="111"/>
      <point x="135" y="83.2455"/>
      <point x="135" y="51" type="curve" smooth="yes"/>
      <point x="135" y="17.8727"/>
      <point x="110.719" y="-6"/>
      <point x="74" y="-6" type="curve" smooth="yes"/>
      <point x="35.4519" y="-6"/>
      <point x="13" y="19.5181"/>
      <point x="13" y="56" type="curve" smooth="yes"/>
      <point x="14" y="114" type="line" smooth="yes"/>
      <point x="14" y="130.667"/>
      <point x="20.6667" y="144"/>
      <point x="34" y="154" type="curve" smooth="yes"/>
      <point x="47.3333" y="164"/>
      <point x="65.3333" y="169"/>
    </contour>
    <contour>
      <point x="36" y="51" type="curve" smooth="yes"/>
      <point x="36" y="41.4775"/>
      <point x="39.3682" y="17"/>
      <point x="74" y="17" type="curve" smooth="yes"/>
      <point x="99.3333" y="17"/>
      <point x="112" y="30"/>
      <point x="112" y="56" type="curve" smooth="yes"/>
      <point x="110.685" y="74.4164"/>
      <point x="94.6346" y="90"/>
      <point x="74" y="90" type="curve" smooth="yes"/>
      <point x="51.9787" y="90"/>
      <point x="36" y="72.0393"/>
    </contour>
    <contour>
      <point x="169" y="120" type="move" smooth="yes"/>
    </contour>
    <contour>
      <point x="185" y="136" type="move" smooth="yes"/>
    </contour>
  </outline>
</glyph>
<glyph name="uni0432" format="2">
  <advance width="136"/>
  <unicode hex="0432"/>
  <outline>
    <contour>
      <point x="73" y="77" type="line" smooth="yes"/>
      <point x="90.6442" y="77"/>
      <point x="95" y="79.3523"/>
      <point x="95" y="87" type="curve" smooth="yes"/>
      <point x="95" y="97.6667"/>
      <point x="86.6667" y="103"/>
      <point x="70" y="103" type="curve" smooth="yes"/>
      <point x="41" y="103" type="line"/>
      <point x="41" y="77" type="line"/>
    </contour>
    <contour>
      <point x="127" y="37" type="curve" smooth="yes"/>
      <point x="127" y="15.0579"/>
      <point x="101.605" y="0"/>
      <point x="70" y="0" type="curve" smooth="yes"/>
      <point x="18" y="0" type="line"/>
      <point x="18" y="125" type="line"/>
      <point x="70" y="125" type="line" smooth="yes"/>
      <point x="98.2388" y="125"/>
      <point x="117" y="109.759"/>
      <point x="117" y="87" type="curve" smooth="yes"/>
      <point x="117" y="75.6667"/>
      <point x="111.333" y="68"/>
      <point x="100" y="64" type="curve"/>
      <point x="114.845" y="62.6504"/>
      <point x="127" y="50.4541"/>
    </contour>
    <contour>
      <point x="41" y="22" type="line"/>
      <point x="70" y="22" type="line" smooth="yes"/>
      <point x="93.3333" y="22"/>
      <point x="105" y="27.3333"/>
      <point x="105" y="38" type="curve" smooth="yes"/>
      <point x="105" y="49.3333"/>
      <point x="94.3333" y="55"/>
      <point x="73" y="55" type="curve" smooth="yes"/>
      <point x="41" y="55" type="line"/>
    </contour>
  </outline>
</glyph>
<glyph name="uni0434" format="2">
  <advance width="159"/>
  <unicode hex="0434"/>
  <outline>
    <contour>
      <point x="274" y="247" type="move" smooth="yes"/>
    </contour>
    <contour>
      <point x="51" y="124" type="line"/>
      <point x="51" y="122" type="line"/>
    </contour>
    <contour>
      <point x="11" y="23" type="line"/>
      <point x="149" y="23" type="line"/>
      <point x="139" y="0" type="line"/>
      <point x="21" y="0" type="line"/>
    </contour>
    <contour>
      <point x="34" y="13" type="line"/>
      <point x="34" y="-31" type="line"/>
      <point x="11" y="-31" type="line"/>
      <point x="11" y="23" type="line"/>
    </contour>
    <contour>
      <point x="149" y="23" type="line"/>
      <point x="149" y="-31" type="line"/>
      <point x="126" y="-31" type="line"/>
      <point x="126" y="13" type="line"/>
    </contour>
    <contour>
      <point x="129" y="125" type="curve"/>
      <point x="130" y="0" type="line"/>
      <point x="107" y="10" type="line"/>
      <point x="106" y="102" type="line"/>
      <point x="73" y="102" type="line"/>
      <point x="70" y="58" type="line" smooth="yes"/>
      <point x="69.3333" y="40"/>
      <point x="64.5" y="25.8333"/>
      <point x="55.5" y="15.5" type="curve" smooth="yes"/>
      <point x="46.5" y="5.16667"/>
      <point x="35" y="0"/>
      <point x="21" y="0" type="curve"/>
      <point x="21" y="23" type="line"/>
      <point x="36.3333" y="23"/>
      <point x="45" y="34.6667"/>
      <point x="47" y="58" type="curve" smooth="yes"/>
      <point x="48.3333" y="76"/>
      <point x="49.6667" y="98"/>
      <point x="51" y="124" type="curve"/>
      <point x="72.3333" y="124.667"/>
      <point x="98.3333" y="125"/>
    </contour>
  </outline>
</glyph>
<glyph name="uni0436" format="2">
  <advance width="187"/>
  <unicode hex="0436"/>
  <outline>
    <contour>
      <point x="122" y="32" type="curve" smooth="yes"/>
      <point x="122" y="41.8601"/>
      <point x="115.131" y="54"/>
      <point x="105" y="54" type="curve" smooth="yes"/>
      <point x="82" y="54" type="line" smooth="yes"/>
      <point x="71.8695" y="54"/>
      <point x="65" y="41.8607"/>
      <point x="65" y="32" type="curve" smooth="yes"/>
      <point x="65" y="12.6717"/>
      <point x="47.1956" y="0"/>
      <point x="25" y="0" type="curve" smooth="yes"/>
      <point x="15" y="0" type="line"/>
      <point x="15" y="23" type="line"/>
      <point x="25" y="23" type="line" smooth="yes"/>
      <point x="34.6667" y="23"/>
      <point x="42" y="30.1233"/>
      <point x="42" y="38" type="curve" smooth="yes"/>
      <point x="42" y="48.3125"/>
      <point x="52.6925" y="63.5866"/>
      <point x="64" y="65" type="curve"/>
      <point x="52.8826" y="66.3897"/>
      <point x="42" y="78.783"/>
      <point x="42" y="88" type="curve" smooth="yes"/>
      <point x="42" y="96.3431"/>
      <point x="34.0837" y="102"/>
      <point x="25" y="102" type="curve" smooth="yes"/>
      <point x="15" y="102" type="line"/>
      <point x="15" y="125" type="line"/>
      <point x="25" y="125" type="line" smooth="yes"/>
      <point x="47.1932" y="125"/>
      <point x="65" y="112.33"/>
      <point x="65" y="93" type="curve" smooth="yes"/>
      <point x="65" y="82.3333"/>
      <point x="70.6667" y="77"/>
      <point x="82" y="77" type="curve" smooth="yes"/>
      <point x="105" y="77" type="line" smooth="yes"/>
      <point x="116.333" y="77"/>
      <point x="122" y="82.3333"/>
      <point x="122" y="93" type="curve" smooth="yes"/>
      <point x="122" y="112.328"/>
      <point x="139.804" y="125"/>
      <point x="162" y="125" type="curve" smooth="yes"/>
      <point x="172" y="125" type="line"/>
      <point x="172" y="102" type="line"/>
      <point x="162" y="102" type="line" smooth="yes"/>
      <point x="152.917" y="102"/>
      <point x="145" y="96.3434"/>
      <point x="145" y="88" type="curve" smooth="yes"/>
      <point x="145" y="78.783"/>
      <point x="134.117" y="66.3897"/>
      <point x="123" y="65" type="curve"/>
      <point x="134.307" y="63.5866"/>
      <point x="145" y="48.313"/>
      <point x="145" y="38" type="curve" smooth="yes"/>
      <point x="145" y="30.1235"/>
      <point x="152.333" y="23"/>
      <point x="162" y="23" type="curve" smooth="yes"/>
      <point x="172" y="23" type="line"/>
      <point x="172" y="0" type="line"/>
      <point x="162" y="0" type="line" smooth="yes"/>
      <point x="139.807" y="0"/>
      <point x="122" y="12.6699"/>
    </contour>
    <contour>
      <point x="82" y="0" type="line"/>
      <point x="82" y="125" type="line"/>
      <point x="105" y="125" type="line"/>
      <point x="105" y="0" type="line"/>
    </contour>
  </outline>
</glyph>
<glyph name="uni0437" format="2">
  <advance width="115"/>
  <unicode hex="0437"/>
  <outline>
    <contour>
      <point x="59" y="130" type="curve" smooth="yes"/>
      <point x="65.564" y="130"/>
      <point x="101" y="128.274"/>
      <point x="101" y="91" type="curve" smooth="yes"/>
      <point x="101" y="75"/>
      <point x="92" y="65.3333"/>
      <point x="74" y="62" type="curve"/>
      <point x="91.3333" y="58.6667"/>
      <point x="100" y="47.3333"/>
      <point x="100" y="28" type="curve" smooth="yes"/>
      <point x="100" y="5.33333"/>
      <point x="86.6667" y="-6"/>
      <point x="60" y="-6" type="curve" smooth="yes"/>
      <point x="40.6667" y="-6"/>
      <point x="24.3333" y="1.66667"/>
      <point x="11" y="17" type="curve"/>
      <point x="28" y="33" type="line"/>
      <point x="36.6667" y="22.3333"/>
      <point x="46.6667" y="17"/>
      <point x="58" y="17" type="curve" smooth="yes"/>
      <point x="70.6667" y="17"/>
      <point x="77" y="22.3333"/>
      <point x="77" y="33" type="curve" smooth="yes"/>
      <point x="77" y="45"/>
      <point x="70.6667" y="51"/>
      <point x="58" y="51" type="curve" smooth="yes"/>
      <point x="39" y="51" type="line"/>
      <point x="39" y="74" type="line"/>
      <point x="64" y="74" type="line" smooth="yes"/>
      <point x="73.3333" y="74"/>
      <point x="78" y="79.3333"/>
      <point x="78" y="90" type="curve" smooth="yes"/>
      <point x="78" y="101.333"/>
      <point x="71.3333" y="107"/>
      <point x="58" y="107" type="curve" smooth="yes"/>
      <point x="47.3333" y="107"/>
      <point x="37.3333" y="101.333"/>
      <point x="28" y="90" type="curve"/>
      <point x="12" y="107" type="line"/>
      <point x="25.3333" y="122.333"/>
      <point x="41" y="130"/>
    </contour>
    <contour>
      <point x="28" y="33" type="move" smooth="yes"/>
    </contour>
    <contour>
      <point x="11" y="17" type="move" smooth="yes"/>
    </contour>
    <contour>
      <point x="28" y="90" type="move" smooth="yes"/>
    </contour>
    <contour>
      <point x="12" y="107" type="move" smooth="yes"/>
    </contour>
  </outline>
</glyph>
<glyph name="uni0438" format="2">
  <advance width="139"/>
  <unicode hex="0438"/>
  <outline>
    <contour>
      <point x="18" y="0" type="line"/>
      <point x="41" y="0" type="line"/>
      <point x="41" y="124" type="line"/>
      <point x="18" y="124" type="line"/>
    </contour>
    <contour>
      <point x="18" y="0" type="line"/>
      <point x="41" y="0" type="line"/>
      <point x="121" y="124" type="line"/>
      <point x="98" y="124" type="line"/>
    </contour>
    <contour>
      <point x="121" y="0" type="line"/>
      <point x="121" y="124" type="line"/>
      <point x="98" y="124" type="line"/>
      <point x="98" y="0" type="line"/>
    </contour>
  </outline>
</glyph>
<glyph name="uni0442" format="2">
  <advance width="112"/>
  <unicode hex="0442"/>
  <outline>
    <contour>
      <point x="66" y="0" type="line"/>
      <point x="43" y="0" type="line"/>
      <point x="43" y="114" type="line"/>
      <point x="66" y="114" type="line"/>
    </contour>
    <contour>
      <point x="7" y="101" type="line"/>
      <point x="7" y="124" type="line"/>
      <point x="101" y="124" type="line"/>
      <point x="101" y="101" type="line"/>
    </contour>
  </outline>
</glyph>
<glyph name="uni0444" format="2">
  <advance width="154"/>
  <unicode hex="0444"/>
  <outline>
    <contour>
      <point x="64" y="-40" type="line"/>
      <point x="64" y="184" type="line"/>
      <point x="87" y="184" type="line"/>
      <point x="87" y="-40" type="line"/>
    </contour>
    <contour>
      <point x="77.5" y="107" type="curve" smooth="yes"/>
      <point x="52.6826" y="107"/>
      <point x="32" y="87.3596"/>
      <point x="32" y="63" type="curve" smooth="yes"/>
      <point x="32" y="39.0522"/>
      <point x="52.2434" y="18"/>
      <point x="77.5" y="18" type="curve" smooth="yes"/>
      <point x="102.029" y="18"/>
      <point x="122" y="37.0601"/>
      <point x="122" y="63" type="curve" smooth="yes"/>
      <point x="122" y="86.8968"/>
      <point x="102.761" y="107"/>
    </contour>
    <contour>
      <point x="144" y="62" type="curve" smooth="yes"/>
      <point x="144" y="25.725"/>
      <point x="117.348" y="-5"/>
      <point x="77" y="-5" type="curve" smooth="yes"/>
      <point x="58.3333" y="-5"/>
      <point x="42.3333" y="1.5"/>
      <point x="29" y="14.5" type="curve" smooth="yes"/>
      <point x="15.6667" y="27.5"/>
      <point x="9" y="43.3333"/>
      <point x="9" y="62" type="curve" smooth="yes"/>
      <point x="9" y="80.6667"/>
      <point x="15.6667" y="96.6667"/>
      <point x="29" y="110" type="curve" smooth="yes"/>
      <point x="42.3333" y="123.333"/>
      <point x="58.3333" y="130"/>
      <point x="77" y="130" type="curve" smooth="yes"/>
      <point x="95.6667" y="130"/>
      <point x="111.5" y="123.5"/>
      <point x="124.5" y="110.5" type="curve" smooth="yes"/>
      <point x="137.5" y="97.5"/>
      <point x="144" y="81.3333"/>
    </contour>
  </outline>
</glyph>
<glyph name="uni0446" format="2">
  <advance width="145"/>
  <unicode hex="0446"/>
  <outline>
    <contour>
      <point x="134" y="-41" type="line"/>
      <point x="111" y="-41" type="line"/>
      <point x="111" y="12" type="line"/>
      <point x="134" y="13" type="line"/>
    </contour>
    <contour>
      <point x="75" y="0" type="line"/>
      <point x="75" y="23" type="line"/>
      <point x="134" y="23" type="line"/>
      <point x="134" y="0" type="line"/>
    </contour>
    <contour>
      <point x="-97" y="-63" type="move" smooth="yes"/>
    </contour>
    <contour>
      <point x="120" y="125" type="line"/>
      <point x="120" y="0" type="line"/>
      <point x="18" y="0" type="line"/>
      <point x="18" y="125" type="line"/>
      <point x="41" y="125" type="line"/>
      <point x="41" y="23" type="line"/>
      <point x="97" y="23" type="line"/>
      <point x="97" y="125" type="line"/>
    </contour>
  </outline>
</glyph>
<glyph name="uni0447" format="2">
  <advance width="125"/>
  <unicode hex="0447"/>
  <outline>
    <contour>
      <point x="59" y="34" type="curve" smooth="yes"/>
      <point x="32.9778" y="34"/>
      <point x="12" y="52.9189"/>
      <point x="12" y="82" type="curve" smooth="yes"/>
      <point x="12" y="124" type="line"/>
      <point x="35" y="124" type="line"/>
      <point x="35" y="80" type="line"/>
      <point x="36.3333" y="64.6667"/>
      <point x="44.3333" y="57"/>
      <point x="59" y="57" type="curve" smooth="yes"/>
      <point x="74.3333" y="57"/>
      <point x="82.6667" y="64.6667"/>
      <point x="84" y="80" type="curve"/>
      <point x="107" y="82" type="line"/>
      <point x="105.656" y="53.768"/>
      <point x="85.8384" y="34"/>
    </contour>
    <contour>
      <point x="107" y="124" type="line"/>
      <point x="107" y="0" type="line"/>
      <point x="84" y="0" type="line"/>
      <point x="84" y="124" type="line"/>
    </contour>
  </outline>
</glyph>
<glyph name="uni0448" format="2">
  <advance width="168"/>
  <unicode hex="0448"/>
  <outline>
    <contour>
      <point x="-97" y="-63" type="move" smooth="yes"/>
    </contour>
    <contour>
      <point x="150" y="0" type="line"/>
      <point x="150" y="125" type="line"/>
      <point x="127" y="125" type="line"/>
      <point x="127" y="23" type="line"/>
      <point x="94" y="23" type="line"/>
      <point x="94" y="125" type="line"/>
      <point x="71" y="125" type="line"/>
      <point x="71" y="23" type="line"/>
      <point x="41" y="23" type="line"/>
      <point x="41" y="125" type="line"/>
      <point x="18" y="125" type="line"/>
      <point x="18" y="0" type="line"/>
    </contour>
  </outline>
</glyph>
<glyph name="uni0449" format="2">
  <advance width="175"/>
  <unicode hex="0449"/>
  <outline>
    <contour>
      <point x="-97" y="-63" type="move" smooth="yes"/>
    </contour>
    <contour>
      <point x="164" y="-41" type="line"/>
      <point x="141" y="-41" type="line"/>
      <point x="141" y="0" type="line"/>
      <point x="18" y="0" type="line"/>
      <point x="18" y="124" type="line"/>
      <point x="41" y="124" type="line"/>
      <point x="41" y="23" type="line"/>
      <point x="71" y="23" type="line"/>
      <point x="71" y="124" type="line"/>
      <point x="94" y="124" type="line"/>
      <point x="94" y="23" type="line"/>
      <point x="127" y="23" type="line"/>
      <point x="127" y="124" type="line"/>
      <point x="150" y="124" type="line"/>
      <point x="150" y="23" type="line"/>
      <point x="164" y="23" type="line"/>
    </contour>
  </outline>
</glyph>
<glyph name="uni0452" format="2">
  <advance width="169"/>
  <unicode hex="0452"/>
  <outline>
    <contour>
      <point x="100" y="-34" type="line"/>
      <point x="117.298" y="-34"/>
      <point x="132" y="-19.0892"/>
      <point x="132" y="0" type="curve"/>
      <point x="134.667" y="4.66667"/>
      <point x="138" y="10.3333"/>
      <point x="142" y="17" type="curve"/>
      <point x="148" y="17" type="line"/>
      <point x="155" y="8" type="line"/>
      <point x="155" y="0" type="line" smooth="yes"/>
      <point x="155" y="-33.8102"/>
      <point x="132.011" y="-57"/>
      <point x="100" y="-57" type="curve"/>
    </contour>
    <contour>
      <point x="4" y="162" type="line"/>
      <point x="118" y="162" type="line"/>
      <point x="118" y="139" type="line"/>
      <point x="4" y="139" type="line"/>
    </contour>
    <contour>
      <point x="88" y="107" type="curve" smooth="yes"/>
      <point x="61.7062" y="107"/>
      <point x="43" y="86.5199"/>
      <point x="43" y="63" type="curve"/>
      <point x="20" y="62" type="line"/>
      <point x="20" y="80.6667"/>
      <point x="26.5" y="96.6667"/>
      <point x="39.5" y="110" type="curve" smooth="yes"/>
      <point x="52.5" y="123.333"/>
      <point x="68.5" y="130"/>
      <point x="87.5" y="130" type="curve" smooth="yes"/>
      <point x="106.5" y="130"/>
      <point x="122.5" y="123.333"/>
      <point x="135.5" y="110" type="curve" smooth="yes"/>
      <point x="148.5" y="96.6667"/>
      <point x="155" y="80.6667"/>
      <point x="155" y="62" type="curve" smooth="yes"/>
      <point x="155" y="0" type="line"/>
      <point x="132" y="0" type="line"/>
      <point x="132" y="63" type="line"/>
      <point x="130.655" y="88.5613"/>
      <point x="112.168" y="107"/>
    </contour>
    <contour>
      <point x="20" y="0" type="line"/>
      <point x="20" y="184" type="line"/>
      <point x="43" y="184" type="line"/>
      <point x="43" y="0" type="line"/>
    </contour>
  </outline>
</glyph>
<glyph name="uni0454" format="2">
  <advance width="140"/>
  <unicode hex="0454"/>
  <outline>
    <contour>
      <point x="20" y="50" type="line"/>
      <point x="20" y="73" type="line"/>
      <point x="114" y="73" type="line"/>
      <point x="114" y="50" type="line"/>
    </contour>
    <contour>
      <point x="34" y="62.5" type="curve" smooth="yes"/>
      <point x="34" y="37.2384"/>
      <point x="54.1041" y="18"/>
      <point x="78" y="18" type="curve" smooth="yes"/>
      <point x="92.6667" y="18"/>
      <point x="104.333" y="23.3333"/>
      <point x="113" y="34" type="curve"/>
      <point x="129" y="18" type="line"/>
      <point x="115.667" y="2.66667"/>
      <point x="98.6667" y="-5"/>
      <point x="78" y="-5" type="curve" smooth="yes"/>
      <point x="59.3333" y="-5"/>
      <point x="43.3333" y="1.5"/>
      <point x="30" y="14.5" type="curve" smooth="yes"/>
      <point x="16.6667" y="27.5"/>
      <point x="10" y="43.3333"/>
      <point x="10" y="62" type="curve" smooth="yes"/>
      <point x="10" y="80.6667"/>
      <point x="16.6667" y="96.6667"/>
      <point x="30" y="110" type="curve" smooth="yes"/>
      <point x="43.3333" y="123.333"/>
      <point x="59.3333" y="130"/>
      <point x="78" y="130" type="curve" smooth="yes"/>
      <point x="98" y="130"/>
      <point x="115" y="122.333"/>
      <point x="129" y="107" type="curve"/>
      <point x="113" y="90" type="line"/>
      <point x="103.667" y="101.333"/>
      <point x="92" y="107"/>
      <point x="78" y="107" type="curve" smooth="yes"/>
      <point x="51.5153" y="107"/>
      <point x="34" y="86.4204"/>
    </contour>
    <contour>
      <point x="113" y="34" type="move" smooth="yes"/>
    </contour>
    <contour>
      <point x="129" y="18" type="move" smooth="yes"/>
    </contour>
    <contour>
      <point x="113" y="90" type="move" smooth="yes"/>
    </contour>
    <contour>
      <point x="129" y="107" type="move" smooth="yes"/>
    </contour>
  </outline>
</glyph>
<glyph name="uni0459" format="2">
  <advance width="224"/>
  <unicode hex="0459"/>
  <outline>
    <contour>
      <point x="192" y="50" type="curve" smooth="yes"/>
      <point x="192" y="64.0332"/>
      <point x="180.802" y="69"/>
      <point x="157" y="69" type="curve" smooth="yes"/>
      <point x="128" y="69" type="line"/>
      <point x="128" y="22" type="line"/>
      <point x="157" y="22" type="line" smooth="yes"/>
      <point x="163.502" y="22"/>
      <point x="192" y="23.5108"/>
    </contour>
    <contour>
      <point x="214" y="49" type="curve" smooth="yes"/>
      <point x="214" y="21.6241"/>
      <point x="191.553" y="0"/>
      <point x="157" y="0" type="curve" smooth="yes"/>
      <point x="105" y="0" type="line"/>
      <point x="105" y="124" type="line"/>
      <point x="128" y="124" type="line"/>
      <point x="128" y="91" type="line"/>
      <point x="157" y="91" type="line" smooth="yes"/>
      <point x="195" y="91"/>
      <point x="214" y="77"/>
    </contour>
    <contour>
      <point x="128" y="125" type="curve"/>
      <point x="129" y="0" type="line"/>
      <point x="106" y="0" type="line"/>
      <point x="105" y="102" type="line"/>
      <point x="63" y="102" type="line"/>
      <point x="60" y="58" type="line" smooth="yes"/>
      <point x="59.3333" y="40"/>
      <point x="54.5" y="25.8333"/>
      <point x="45.5" y="15.5" type="curve" smooth="yes"/>
      <point x="36.5" y="5.16667"/>
      <point x="25" y="0"/>
      <point x="11" y="0" type="curve"/>
      <point x="11" y="23" type="line"/>
      <point x="26.3333" y="23"/>
      <point x="35" y="34.6667"/>
      <point x="37" y="58" type="curve" smooth="yes"/>
      <point x="38.3333" y="76"/>
      <point x="39.6667" y="98"/>
      <point x="41" y="124" type="curve"/>
      <point x="65" y="124.667"/>
      <point x="94" y="125"/>
    </contour>
    <contour>
      <point x="41" y="124" type="line"/>
      <point x="41" y="122" type="line"/>
    </contour>
    <contour>
      <point x="264" y="247" type="move" smooth="yes"/>
    </contour>
  </outline>
</glyph>
<glyph name="uni0460" format="2">
  <advance width="249"/>
  <unicode hex="0460"/>
  <outline>
    <contour>
      <point x="98" y="180" type="move" smooth="yes"/>
    </contour>
    <contour>
      <point x="122" y="66" type="move" smooth="yes"/>
    </contour>
    <contour>
      <point x="115" y="49" type="move" smooth="yes"/>
    </contour>
    <contour>
      <point x="111" y="66" type="move" smooth="yes"/>
    </contour>
    <contour>
      <point x="109" y="49" type="move" smooth="yes"/>
    </contour>
    <contour>
      <point x="40" y="60" type="line" smooth="yes"/>
      <point x="40" y="49.758"/>
      <point x="42.7607" y="18"/>
      <point x="77" y="18" type="curve" smooth="yes"/>
      <point x="99.6667" y="18"/>
      <point x="111" y="34"/>
      <point x="111" y="66" type="curve" smooth="yes"/>
      <point x="111" y="184" type="line"/>
      <point x="134" y="184" type="line"/>
      <point x="134" y="66" type="line" smooth="yes"/>
      <point x="134" y="34"/>
      <point x="146.667" y="18"/>
      <point x="172" y="18" type="curve" smooth="yes"/>
      <point x="195.333" y="18"/>
      <point x="207" y="32"/>
      <point x="207" y="60" type="curve" smooth="yes"/>
      <point x="207" y="184" type="line"/>
      <point x="231" y="184" type="line"/>
      <point x="231" y="60" type="line" smooth="yes"/>
      <point x="231" y="20.7384"/>
      <point x="208.921" y="-5"/>
      <point x="177" y="-5" type="curve" smooth="yes"/>
      <point x="149.879" y="-5"/>
      <point x="128.259" y="12.222"/>
      <point x="122" y="31" type="curve"/>
      <point x="115.488" y="10.1601"/>
      <point x="95.822" y="-5"/>
      <point x="71" y="-5" type="curve" smooth="yes"/>
      <point x="38.5674" y="-5"/>
      <point x="16" y="18.5609"/>
      <point x="16" y="60" type="curve" smooth="yes"/>
      <point x="16" y="184" type="line"/>
      <point x="40" y="184" type="line"/>
    </contour>
  </outline>
</glyph>
<glyph name="uni0461" format="2">
  <advance width="244"/>
  <unicode hex="0461"/>
  <outline>
    <contour>
      <point x="96" y="121" type="move" smooth="yes"/>
    </contour>
    <contour>
      <point x="120" y="66" type="move" smooth="yes"/>
    </contour>
    <contour>
      <point x="113" y="49" type="move" smooth="yes"/>
    </contour>
    <contour>
      <point x="109" y="66" type="move" smooth="yes"/>
    </contour>
    <contour>
      <point x="107" y="49" type="move" smooth="yes"/>
    </contour>
    <contour>
      <point x="38" y="60" type="line" smooth="yes"/>
      <point x="38" y="49.758"/>
      <point x="40.7607" y="18"/>
      <point x="75" y="18" type="curve" smooth="yes"/>
      <point x="97.6667" y="18"/>
      <point x="109" y="34"/>
      <point x="109" y="66" type="curve" smooth="yes"/>
      <point x="109" y="124" type="line"/>
      <point x="132" y="124" type="line"/>
      <point x="132" y="66" type="line" smooth="yes"/>
      <point x="132" y="34"/>
      <point x="144.667" y="18"/>
      <point x="170" y="18" type="curve" smooth="yes"/>
      <point x="193.333" y="18"/>
      <point x="205" y="32"/>
      <point x="205" y="60" type="curve" smooth="yes"/>
      <point x="205" y="124" type="line"/>
      <point x="229" y="124" type="line"/>
      <point x="229" y="60" type="line" smooth="yes"/>
      <point x="229" y="20.7384"/>
      <point x="206.921" y="-5"/>
      <point x="175" y="-5" type="curve" smooth="yes"/>
      <point x="147.879" y="-5"/>
      <point x="126.259" y="12.222"/>
      <point x="120" y="31" type="curve"/>
      <point x="113.488" y="10.1601"/>
      <point x="93.822" y="-5"/>
      <point x="69" y="-5" type="curve" smooth="yes"/>
      <point x="36.5674" y="-5"/>
      <point x="14" y="18.5609"/>
      <point x="14" y="60" type="curve" smooth="yes"/>
      <point x="14" y="124" type="line"/>
      <point x="38" y="124" type="line"/>
    </contour>
  </outline>
</glyph>
<glyph name="uni0462" format="2">
  <advance width="159"/>
  <unicode hex="0462"/>
  <outline>
    <contour>
      <point x="149" y="65" type="curve" smooth="yes"/>
      <point x="149" y="23.8219"/>
      <point x="117.725" y="0"/>
      <point x="72" y="0" type="curve" smooth="yes"/>
      <point x="20" y="0" type="line"/>
      <point x="20" y="140" type="line"/>
      <point x="3" y="140" type="line"/>
      <point x="3" y="163" type="line"/>
      <point x="20" y="163" type="line"/>
      <point x="20" y="184" type="line"/>
      <point x="43" y="184" type="line"/>
      <point x="43" y="163" type="line"/>
      <point x="62" y="163" type="line"/>
      <point x="62" y="140" type="line"/>
      <point x="43" y="140" type="line"/>
      <point x="43" y="124" type="line"/>
      <point x="72" y="124" type="line" smooth="yes"/>
      <point x="97.2787" y="124"/>
      <point x="149" y="117.576"/>
    </contour>
    <contour>
      <point x="127" y="65" type="curve" smooth="yes"/>
      <point x="127" y="89.6116"/>
      <point x="112.376" y="100.642"/>
      <point x="73" y="102" type="curve"/>
      <point x="43" y="102" type="line"/>
      <point x="43" y="22" type="line"/>
      <point x="72" y="22" type="line" smooth="yes"/>
      <point x="108.667" y="22"/>
      <point x="127" y="36.3333"/>
    </contour>
  </outline>
</glyph>
<glyph name="uni0463" format="2">
  <advance width="138"/>
  <unicode hex="0463"/>
  <outline>
    <contour>
      <point x="72" y="0" type="line" smooth="yes"/>
      <point x="106.553" y="0"/>
      <point x="129" y="21.6247"/>
      <point x="129" y="49" type="curve" smooth="yes"/>
      <point x="129" y="77"/>
      <point x="110" y="91"/>
      <point x="72" y="91" type="curve" smooth="yes"/>
      <point x="43" y="91" type="line"/>
      <point x="43" y="140" type="line"/>
      <point x="62" y="140" type="line"/>
      <point x="62" y="163" type="line"/>
      <point x="43" y="163" type="line"/>
      <point x="43" y="184" type="line"/>
      <point x="20" y="184" type="line"/>
      <point x="20" y="163" type="line"/>
      <point x="3" y="163" type="line"/>
      <point x="3" y="140" type="line"/>
      <point x="20" y="140" type="line"/>
      <point x="20" y="0" type="line"/>
    </contour>
    <contour>
      <point x="107" y="50" type="curve" smooth="yes"/>
      <point x="107" y="32.1415"/>
      <point x="92.87" y="22"/>
      <point x="72" y="22" type="curve" smooth="yes"/>
      <point x="43" y="22" type="line"/>
      <point x="43" y="69" type="line"/>
      <point x="72" y="69" type="line" smooth="yes"/>
      <point x="95.7995" y="69"/>
      <point x="107" y="64.0344"/>
    </contour>
  </outline>
</glyph>
<glyph name="uni0464" format="2">
  <advance width="237"/>
  <unicode hex="0464"/>
  <outline>
    <contour>
      <point x="82" y="81" type="line"/>
      <point x="43" y="81" type="line"/>
      <point x="43" y="0" type="line"/>
      <point x="20" y="0" type="line"/>
      <point x="20" y="184" type="line"/>
      <point x="43" y="184" type="line"/>
      <point x="43" y="104" type="line"/>
      <point x="82" y="104" type="line"/>
    </contour>
    <contour>
      <point x="80" y="81" type="line"/>
      <point x="80" y="104" type="line"/>
      <point x="204" y="104" type="line"/>
      <point x="204" y="81" type="line"/>
    </contour>
    <contour>
      <point x="212" y="44" type="move" smooth="yes"/>
    </contour>
    <contour>
      <point x="229" y="28" type="move" smooth="yes"/>
    </contour>
    <contour>
      <point x="212" y="141" type="move" smooth="yes"/>
    </contour>
    <contour>
      <point x="229" y="157" type="move" smooth="yes"/>
    </contour>
    <contour>
      <point x="161" y="-5" type="curve" smooth="yes"/>
      <point x="132.333" y="-5"/>
      <point x="108.333" y="4.33333"/>
      <point x="89" y="23" type="curve" smooth="yes"/>
      <point x="69.6667" y="41.6667"/>
      <point x="60" y="64.6667"/>
      <point x="60" y="92" type="curve" smooth="yes"/>
      <point x="60" y="119.333"/>
      <point x="69.8333" y="142.5"/>
      <point x="89.5" y="161.5" type="curve" smooth="yes"/>
      <point x="109.167" y="180.5"/>
      <point x="133" y="190"/>
      <point x="161" y="190" type="curve" smooth="yes"/>
      <point x="186.333" y="190"/>
      <point x="209" y="179"/>
      <point x="229" y="157" type="curve"/>
      <point x="212" y="141" type="line"/>
      <point x="197.333" y="158.333"/>
      <point x="180.333" y="167"/>
      <point x="161" y="167" type="curve" smooth="yes"/>
      <point x="139" y="167"/>
      <point x="120.333" y="159.833"/>
      <point x="105" y="145.5" type="curve" smooth="yes"/>
      <point x="89.6667" y="131.167"/>
      <point x="82" y="113.5"/>
      <point x="82" y="92.5" type="curve" smooth="yes"/>
      <point x="82" y="71.5"/>
      <point x="89.6667" y="53.8333"/>
      <point x="105" y="39.5" type="curve" smooth="yes"/>
      <point x="120.333" y="25.1667"/>
      <point x="139" y="18"/>
      <point x="161" y="18" type="curve" smooth="yes"/>
      <point x="181" y="18"/>
      <point x="198" y="26.6667"/>
      <point x="212" y="44" type="curve"/>
      <point x="229" y="28" type="line"/>
      <point x="209.667" y="6"/>
      <point x="187" y="-5"/>
    </contour>
  </outline>
</glyph>
<glyph name="uni0465" format="2">
  <advance width="188"/>
  <unicode hex="0465"/>
  <outline>
    <contour>
      <point x="71" y="51" type="line"/>
      <point x="41" y="51" type="line"/>
      <point x="41" y="0" type="line"/>
      <point x="18" y="0" type="line"/>
      <point x="18" y="125" type="line"/>
      <point x="41" y="125" type="line"/>
      <point x="41" y="74" type="line"/>
      <point x="71" y="74" type="line"/>
    </contour>
    <contour>
      <point x="68" y="50" type="line"/>
      <point x="68" y="73" type="line"/>
      <point x="162" y="73" type="line"/>
      <point x="162" y="50" type="line"/>
    </contour>
    <contour>
      <point x="82" y="62.5" type="curve" smooth="yes"/>
      <point x="82" y="37.2384"/>
      <point x="102.104" y="18"/>
      <point x="126" y="18" type="curve" smooth="yes"/>
      <point x="140.667" y="18"/>
      <point x="152.333" y="23.3333"/>
      <point x="161" y="34" type="curve"/>
      <point x="177" y="18" type="line"/>
      <point x="163.667" y="2.66667"/>
      <point x="146.667" y="-5"/>
      <point x="126" y="-5" type="curve" smooth="yes"/>
      <point x="107.333" y="-5"/>
      <point x="91.3333" y="1.5"/>
      <point x="78" y="14.5" type="curve" smooth="yes"/>
      <point x="64.6667" y="27.5"/>
      <point x="58" y="43.3333"/>
      <point x="58" y="62" type="curve" smooth="yes"/>
      <point x="58" y="80.6667"/>
      <point x="64.6667" y="96.6667"/>
      <point x="78" y="110" type="curve" smooth="yes"/>
      <point x="91.3333" y="123.333"/>
      <point x="107.333" y="130"/>
      <point x="126" y="130" type="curve" smooth="yes"/>
      <point x="146" y="130"/>
      <point x="163" y="122.333"/>
      <point x="177" y="107" type="curve"/>
      <point x="161" y="90" type="line"/>
      <point x="151.667" y="101.333"/>
      <point x="140" y="107"/>
      <point x="126" y="107" type="curve" smooth="yes"/>
      <point x="99.5153" y="107"/>
      <point x="82" y="86.4204"/>
    </contour>
    <contour>
      <point x="161" y="34" type="move" smooth="yes"/>
    </contour>
    <contour>
      <point x="161" y="90" type="move" smooth="yes"/>
    </contour>
    <contour>
      <point x="177" y="107" type="move" smooth="yes"/>
    </contour>
  </outline>
</glyph>
<glyph name="uni0466" format="2">
  <advance width="158"/>
  <unicode hex="0466"/>
  <outline>
    <contour>
      <point x="68" y="0" type="line"/>
      <point x="68" y="84" type="line"/>
      <point x="91" y="84" type="line"/>
      <point x="91" y="0" type="line"/>
    </contour>
    <contour>
      <point x="41" y="86" type="line"/>
      <point x="114" y="86" type="line"/>
      <point x="114" y="63" type="line"/>
      <point x="41" y="63" type="line"/>
    </contour>
    <contour>
      <point x="152" y="0" type="line"/>
      <point x="129" y="0" type="line"/>
      <point x="69" y="184" type="line"/>
      <point x="92" y="184" type="line"/>
    </contour>
    <contour>
      <point x="9" y="0" type="line"/>
      <point x="69" y="184" type="line"/>
      <point x="92" y="184" type="line"/>
      <point x="32" y="0" type="line"/>
    </contour>
  </outline>
</glyph>
<glyph name="uni0467" format="2">
  <advance width="120"/>
  <unicode hex="0467"/>
  <outline>
    <contour>
      <point x="113" y="0" type="line"/>
      <point x="90" y="0" type="line"/>
      <point x="80" y="33" type="line"/>
      <point x="72" y="33" type="line"/>
      <point x="72" y="0" type="line"/>
      <point x="49" y="0" type="line"/>
      <point x="49" y="33" type="line"/>
      <point x="43" y="33" type="line"/>
      <point x="32" y="0" type="line"/>
      <point x="9" y="0" type="line"/>
      <point x="50" y="124" type="line"/>
      <point x="73" y="124" type="line"/>
    </contour>
    <contour>
      <point x="72" y="56" type="line"/>
      <point x="61" y="89" type="line"/>
      <point x="50" y="56" type="line"/>
    </contour>
  </outline>
</glyph>
<glyph name="uni0468" format="2">
  <advance width="208"/>
  <unicode hex="0468"/>
  <outline>
    <contour>
      <point x="102" y="81" type="line"/>
      <point x="43" y="81" type="line"/>
      <point x="43" y="0" type="line"/>
      <point x="20" y="0" type="line"/>
      <point x="20" y="184" type="line"/>
      <point x="43" y="184" type="line"/>
      <point x="43" y="104" type="line"/>
      <point x="102" y="104" type="line"/>
    </contour>
    <contour>
      <point x="118" y="0" type="line"/>
      <point x="118" y="84" type="line"/>
      <point x="141" y="84" type="line"/>
      <point x="141" y="0" type="line"/>
    </contour>
    <contour>
      <point x="91" y="86" type="line"/>
      <point x="164" y="86" type="line"/>
      <point x="164" y="63" type="line"/>
      <point x="91" y="63" type="line"/>
    </contour>
    <contour>
      <point x="202" y="0" type="line"/>
      <point x="179" y="0" type="line"/>
      <point x="119" y="184" type="line"/>
      <point x="142" y="184" type="line"/>
    </contour>
    <contour>
      <point x="59" y="0" type="line"/>
      <point x="119" y="184" type="line"/>
      <point x="142" y="184" type="line"/>
      <point x="82" y="0" type="line"/>
    </contour>
  </outline>
</glyph>
<glyph name="uni0469" format="2">
  <advance width="166"/>
  <unicode hex="0469"/>
  <outline>
    <contour>
      <point x="90" y="51" type="line"/>
      <point x="41" y="51" type="line"/>
      <point x="41" y="0" type="line"/>
      <point x="18" y="0" type="line"/>
      <point x="18" y="125" type="line"/>
      <point x="41" y="125" type="line"/>
      <point x="41" y="74" type="line"/>
      <point x="90" y="74" type="line"/>
    </contour>
    <contour>
      <point x="95" y="0" type="line"/>
      <point x="95" y="44" type="line"/>
      <point x="118" y="44" type="line"/>
      <point x="118" y="0" type="line"/>
    </contour>
    <contour>
      <point x="77" y="56" type="line"/>
      <point x="140" y="56" type="line"/>
      <point x="140" y="33" type="line"/>
      <point x="77" y="33" type="line"/>
    </contour>
    <contour>
      <point x="159" y="0" type="line"/>
      <point x="136" y="0" type="line"/>
      <point x="96" y="124" type="line"/>
      <point x="119" y="124" type="line"/>
    </contour>
    <contour>
      <point x="55" y="0" type="line"/>
      <point x="96" y="124" type="line"/>
      <point x="119" y="124" type="line"/>
      <point x="78" y="0" type="line"/>
    </contour>
  </outline>
</glyph>
<glyph name="uni0472" format="2">
  <advance width="217"/>
  <unicode hex="0472"/>
  <outline>
    <contour>
      <point x="31" y="72" type="move" smooth="yes"/>
    </contour>
    <contour>
      <point x="15" y="89" type="move" smooth="yes"/>
    </contour>
    <contour>
      <point x="116" y="99" type="move" smooth="yes"/>
    </contour>
    <contour>
      <point x="100" y="82" type="move" smooth="yes"/>
    </contour>
    <contour>
      <point x="184" y="112" type="move" smooth="yes"/>
    </contour>
    <contour>
      <point x="201" y="95" type="move" smooth="yes"/>
    </contour>
    <contour>
      <point x="201" y="95" type="line"/>
      <point x="195.452" y="79.7434"/>
      <point x="168.989" y="67"/>
      <point x="148" y="67" type="curve" smooth="yes"/>
      <point x="128.913" y="67"/>
      <point x="106.031" y="75.9686"/>
      <point x="100" y="82" type="curve" smooth="yes"/>
      <point x="95.5091" y="89.4848"/>
      <point x="78.2072" y="94"/>
      <point x="69" y="94" type="curve" smooth="yes"/>
      <point x="53.9425" y="94"/>
      <point x="35.0101" y="82.6936"/>
      <point x="31" y="72" type="curve"/>
      <point x="15" y="89" type="line"/>
      <point x="22.5213" y="102.789"/>
      <point x="45.1228" y="117"/>
      <point x="68" y="117" type="curve" smooth="yes"/>
      <point x="83.8362" y="117"/>
      <point x="108.079" y="109.305"/>
      <point x="115" y="101" type="curve" smooth="yes"/>
      <point x="121" y="93.6667"/>
      <point x="131.333" y="90"/>
      <point x="146" y="90" type="curve" smooth="yes"/>
      <point x="162.734" y="90"/>
      <point x="178.823" y="100.351"/>
      <point x="184" y="112" type="curve"/>
    </contour>
    <contour>
      <point x="32" y="92" type="curve" smooth="yes"/>
      <point x="32" y="71.3333"/>
      <point x="39.3333" y="53.8333"/>
      <point x="54" y="39.5" type="curve" smooth="yes"/>
      <point x="68.6667" y="25.1667"/>
      <point x="86.6667" y="18"/>
      <point x="108" y="18" type="curve" smooth="yes"/>
      <point x="129.333" y="18"/>
      <point x="147.167" y="25.1667"/>
      <point x="161.5" y="39.5" type="curve" smooth="yes"/>
      <point x="175.833" y="53.8333"/>
      <point x="183" y="71.3333"/>
      <point x="183" y="92" type="curve" smooth="yes"/>
      <point x="183" y="113.333"/>
      <point x="175.833" y="131.167"/>
      <point x="161.5" y="145.5" type="curve" smooth="yes"/>
      <point x="147.167" y="159.833"/>
      <point x="129.333" y="167"/>
      <point x="108" y="167" type="curve" smooth="yes"/>
      <point x="86.6667" y="167"/>
      <point x="68.6667" y="159.667"/>
      <point x="54" y="145" type="curve" smooth="yes"/>
      <point x="39.3333" y="130.333"/>
      <point x="32" y="112.667"/>
    </contour>
    <contour>
      <point x="10" y="92" type="curve" smooth="yes"/>
      <point x="10" y="118.667"/>
      <point x="19.5" y="141.5"/>
      <point x="38.5" y="160.5" type="curve" smooth="yes"/>
      <point x="57.5" y="179.5"/>
      <point x="80.6667" y="189"/>
      <point x="108" y="189" type="curve" smooth="yes"/>
      <point x="134.667" y="189"/>
      <point x="157.5" y="179.5"/>
      <point x="176.5" y="160.5" type="curve" smooth="yes"/>
      <point x="195.5" y="141.5"/>
      <point x="205" y="118.667"/>
      <point x="205" y="92" type="curve" smooth="yes"/>
      <point x="205" y="65.3333"/>
      <point x="195.5" y="42.5"/>
      <point x="176.5" y="23.5" type="curve" smooth="yes"/>
      <point x="157.5" y="4.5"/>
      <point x="134.667" y="-5"/>
      <point x="108" y="-5" type="curve" smooth="yes"/>
      <point x="80.6667" y="-5"/>
      <point x="57.5" y="4.5"/>
      <point x="38.5" y="23.5" type="curve" smooth="yes"/>
      <point x="19.5" y="42.5"/>
      <point x="10" y="65.3333"/>
    </contour>
  </outline>
</glyph>
<glyph name="uni0473" format="2">
  <advance width="156"/>
  <unicode hex="0473"/>
  <outline>
    <contour>
      <point x="26" y="40" type="move" smooth="yes"/>
    </contour>
    <contour>
      <point x="11" y="56" type="move" smooth="yes"/>
    </contour>
    <contour>
      <point x="86" y="66" type="move" smooth="yes"/>
    </contour>
    <contour>
      <point x="70" y="50" type="move" smooth="yes"/>
    </contour>
    <contour>
      <point x="130" y="78" type="move" smooth="yes"/>
    </contour>
    <contour>
      <point x="145" y="62" type="move" smooth="yes"/>
    </contour>
    <contour>
      <point x="107" y="57" type="curve" smooth="yes"/>
      <point x="117.839" y="57"/>
      <point x="122.81" y="60.7431"/>
      <point x="130" y="78" type="curve"/>
      <point x="146" y="62" type="line"/>
      <point x="138.667" y="43.3333"/>
      <point x="125.333" y="34"/>
      <point x="106" y="34" type="curve" smooth="yes"/>
      <point x="90.6667" y="34"/>
      <point x="78.3333" y="40"/>
      <point x="69" y="52" type="curve" smooth="yes"/>
      <point x="63.6667" y="58"/>
      <point x="58.3333" y="61"/>
      <point x="53" y="61" type="curve" smooth="yes"/>
      <point x="40.3333" y="61"/>
      <point x="31.3333" y="54"/>
      <point x="26" y="40" type="curve"/>
      <point x="11" y="56" type="line"/>
      <point x="20.3333" y="74.6667"/>
      <point x="33.3333" y="84"/>
      <point x="50" y="84" type="curve" smooth="yes"/>
      <point x="63.3333" y="84"/>
      <point x="75" y="78.3333"/>
      <point x="85" y="67" type="curve" smooth="yes"/>
      <point x="91" y="60.3333"/>
      <point x="98.3333" y="57"/>
    </contour>
    <contour>
      <point x="78.5" y="107" type="curve" smooth="yes"/>
      <point x="53.2384" y="107"/>
      <point x="34" y="86.8959"/>
      <point x="34" y="63" type="curve" smooth="yes"/>
      <point x="34" y="37.0609"/>
      <point x="53.9699" y="18"/>
      <point x="78.5" y="18" type="curve" smooth="yes"/>
      <point x="103.547" y="18"/>
      <point x="122" y="37.6095"/>
      <point x="122" y="63" type="curve" smooth="yes"/>
      <point x="122" y="88.9578"/>
      <point x="102.959" y="107"/>
    </contour>
    <contour>
      <point x="10" y="62" type="curve" smooth="yes"/>
      <point x="10" y="80.6667"/>
      <point x="16.6667" y="96.6667"/>
      <point x="30" y="110" type="curve" smooth="yes"/>
      <point x="43.3333" y="123.333"/>
      <point x="59.5" y="130"/>
      <point x="78.5" y="130" type="curve" smooth="yes"/>
      <point x="97.5" y="130"/>
      <point x="113.5" y="123.333"/>
      <point x="126.5" y="110" type="curve" smooth="yes"/>
      <point x="139.5" y="96.6667"/>
      <point x="146" y="80.6667"/>
      <point x="146" y="62" type="curve" smooth="yes"/>
      <point x="146" y="43.3333"/>
      <point x="139.5" y="27.5"/>
      <point x="126.5" y="14.5" type="curve" smooth="yes"/>
      <point x="113.5" y="1.5"/>
      <point x="97.5" y="-5"/>
      <point x="78.5" y="-5" type="curve" smooth="yes"/>
      <point x="59.5" y="-5"/>
      <point x="43.3333" y="1.5"/>
      <point x="30" y="14.5" type="curve" smooth="yes"/>
      <point x="16.6667" y="27.5"/>
      <point x="10" y="43.3333"/>
    </contour>
  </outline>
</glyph>
<glyph name="uni0474" format="2">
  <advance width="171"/>
  <unicode hex="0474"/>
  <outline>
    <contour>
      <point x="165" y="161" type="line"/>
      <point x="145.235" y="161"/>
      <point x="136.617" y="154.175"/>
      <point x="130" y="133" type="curve" smooth="yes"/>
      <point x="87" y="0" type="line"/>
      <point x="64" y="0" type="line"/>
      <point x="109" y="138" type="line"/>
      <point x="118.657" y="171.111"/>
      <point x="134.508" y="182.73"/>
      <point x="165" y="184" type="curve"/>
    </contour>
    <contour>
      <point x="4" y="184" type="line"/>
      <point x="27" y="184" type="line"/>
      <point x="87" y="0" type="line"/>
      <point x="64" y="0" type="line"/>
    </contour>
  </outline>
</glyph>
<glyph name="uni0475" format="2">
  <advance width="137"/>
  <unicode hex="0475"/>
  <outline>
    <contour>
      <point x="127" y="102" type="line"/>
      <point x="107.235" y="102"/>
      <point x="98.6173" y="95.1754"/>
      <point x="92" y="74" type="curve" smooth="yes"/>
      <point x="69" y="0" type="line"/>
      <point x="46" y="0" type="line"/>
      <point x="71" y="79" type="line" smooth="yes"/>
      <point x="80.6574" y="112.111"/>
      <point x="96.5083" y="123.73"/>
      <point x="127" y="125" type="curve"/>
    </contour>
    <contour>
      <point x="6" y="125" type="line"/>
      <point x="29" y="125" type="line"/>
      <point x="69" y="0" type="line"/>
      <point x="46" y="0" type="line"/>
    </contour>
  </outline>
</glyph>
<glyph name="uni0478" format="2">
  <advance width="247"/>
  <unicode hex="0478"/>
  <outline>
    <contour>
      <point x="79" y="167" type="curve" smooth="yes"/>
      <point x="51.1623" y="167"/>
      <point x="34" y="139.312"/>
      <point x="34" y="92" type="curve" smooth="yes"/>
      <point x="34" y="70.8824"/>
      <point x="38.1299" y="18"/>
      <point x="79.5" y="18" type="curve" smooth="yes"/>
      <point x="94.3251" y="18"/>
      <point x="124" y="26.2163"/>
      <point x="124" y="92" type="curve" smooth="yes"/>
      <point x="124" y="109.54"/>
      <point x="120.809" y="167"/>
    </contour>
    <contour>
      <point x="11" y="92" type="curve" smooth="yes"/>
      <point x="11" y="121.333"/>
      <point x="17.1667" y="144.833"/>
      <point x="29.5" y="162.5" type="curve" smooth="yes"/>
      <point x="41.8333" y="180.167"/>
      <point x="58.3333" y="189"/>
      <point x="79" y="189" type="curve" smooth="yes"/>
      <point x="99.6667" y="189"/>
      <point x="116" y="180.167"/>
      <point x="128" y="162.5" type="curve" smooth="yes"/>
      <point x="140" y="144.833"/>
      <point x="146" y="121.333"/>
      <point x="146" y="92" type="curve" smooth="yes"/>
      <point x="146" y="62.6667"/>
      <point x="140" y="39.1667"/>
      <point x="128" y="21.5" type="curve" smooth="yes"/>
      <point x="116" y="3.83333"/>
      <point x="99.6667" y="-5"/>
      <point x="79" y="-5" type="curve" smooth="yes"/>
      <point x="58.3333" y="-5"/>
      <point x="41.8333" y="3.83333"/>
      <point x="29.5" y="21.5" type="curve" smooth="yes"/>
      <point x="17.1667" y="39.1667"/>
      <point x="11" y="62.6667"/>
    </contour>
    <contour>
      <point x="156" y="125" type="line"/>
      <point x="179" y="125" type="line"/>
      <point x="198" y="39" type="line"/>
      <point x="216" y="125" type="line"/>
      <point x="239" y="125" type="line"/>
      <point x="239" y="124" type="line"/>
      <point x="209" y="0" type="line"/>
      <point x="199.272" y="-48.6424"/>
      <point x="189.641" y="-60"/>
      <point x="166" y="-60" type="curve" smooth="yes"/>
      <point x="148.667" y="-60"/>
      <point x="133" y="-52"/>
      <point x="119" y="-36" type="curve"/>
      <point x="136" y="-20" type="line"/>
      <point x="144.667" y="-30.6667"/>
      <point x="153.667" y="-36"/>
      <point x="163" y="-36" type="curve" smooth="yes"/>
      <point x="172.966" y="-36"/>
      <point x="176.491" y="-32.2811"/>
      <point x="182" y="-13" type="curve" smooth="yes"/>
      <point x="182.794" y="-9.82534"/>
      <point x="184.573" y="-4.3928"/>
      <point x="185.467" y="-1.66476" type="curve" smooth="yes"/>
      <point x="185.792" y="-0.671153"/>
      <point x="186" y="-0.0363132"/>
      <point x="186" y="0" type="curve" smooth="yes"/>
    </contour>
  </outline>
</glyph>
<glyph name="uni0479" format="2">
  <advance width="257"/>
  <unicode hex="0479"/>
  <outline>
    <contour>
      <point x="127" y="125" type="line"/>
      <point x="150" y="125" type="line"/>
      <point x="188" y="29" type="line"/>
      <point x="227" y="125" type="line"/>
      <point x="250" y="125" type="line"/>
      <point x="250" y="124" type="line"/>
      <point x="200" y="0" type="line"/>
      <point x="184.294" y="-45.6915"/>
      <point x="168.279" y="-60"/>
      <point x="145" y="-60" type="curve" smooth="yes"/>
      <point x="129" y="-60"/>
      <point x="114" y="-52"/>
      <point x="100" y="-36" type="curve"/>
      <point x="116" y="-20" type="line"/>
      <point x="124.667" y="-30.6667"/>
      <point x="134" y="-36"/>
      <point x="144" y="-36" type="curve" smooth="yes"/>
      <point x="158.676" y="-36"/>
      <point x="166.558" y="-27.411"/>
      <point x="177" y="0" type="curve"/>
    </contour>
    <contour>
      <point x="72.5" y="107" type="curve" smooth="yes"/>
      <point x="49.1005" y="107"/>
      <point x="34" y="89.8812"/>
      <point x="34" y="63" type="curve" smooth="yes"/>
      <point x="34" y="37.0257"/>
      <point x="48.313" y="18"/>
      <point x="72.5" y="18" type="curve" smooth="yes"/>
      <point x="95.8307" y="18"/>
      <point x="112" y="35.9761"/>
      <point x="112" y="63" type="curve" smooth="yes"/>
      <point x="112" y="90.8875"/>
      <point x="94.9985" y="107"/>
    </contour>
    <contour>
      <point x="73" y="-5" type="curve" smooth="yes"/>
      <point x="37.1486" y="-5"/>
      <point x="10" y="22.555"/>
      <point x="10" y="62" type="curve" smooth="yes"/>
      <point x="10" y="100.848"/>
      <point x="36.5604" y="130"/>
      <point x="73" y="130" type="curve" smooth="yes"/>
      <point x="109.439" y="130"/>
      <point x="136" y="100.849"/>
      <point x="136" y="62" type="curve" smooth="yes"/>
      <point x="136" y="22.5579"/>
      <point x="108.854" y="-5"/>
    </contour>
  </outline>
</glyph>
<glyph name="uni0480" format="2">
  <advance width="183"/>
  <unicode hex="0480"/>
  <outline>
    <contour>
      <point x="117" y="-46" type="line"/>
      <point x="94" y="-46" type="line"/>
      <point x="94" y="8" type="line"/>
      <point x="117" y="8" type="line"/>
    </contour>
    <contour>
      <point x="108" y="-5" type="line"/>
      <point x="108" y="18" type="line"/>
      <point x="117" y="18" type="line"/>
      <point x="117" y="-5" type="line"/>
    </contour>
    <contour>
      <point x="150" y="54" type="move" smooth="yes"/>
    </contour>
    <contour>
      <point x="171" y="30" type="move" smooth="yes"/>
    </contour>
    <contour>
      <point x="108" y="-5" type="line"/>
      <point x="80.6667" y="-5"/>
      <point x="57.5" y="4.5"/>
      <point x="38.5" y="23.5" type="curve" smooth="yes"/>
      <point x="19.5" y="42.5"/>
      <point x="10" y="65.3333"/>
      <point x="10" y="92" type="curve" smooth="yes"/>
      <point x="10" y="119.333"/>
      <point x="19.8333" y="142.5"/>
      <point x="39.5" y="161.5" type="curve" smooth="yes"/>
      <point x="59.1667" y="180.5"/>
      <point x="83" y="190"/>
      <point x="111" y="190" type="curve" smooth="yes"/>
      <point x="136.333" y="190"/>
      <point x="159" y="179"/>
      <point x="179" y="157" type="curve"/>
      <point x="162" y="141" type="line"/>
      <point x="147.333" y="158.333"/>
      <point x="130.333" y="167"/>
      <point x="111" y="167" type="curve" smooth="yes"/>
      <point x="89" y="167"/>
      <point x="70.3333" y="159.833"/>
      <point x="55" y="145.5" type="curve" smooth="yes"/>
      <point x="39.6667" y="131.167"/>
      <point x="32" y="113.5"/>
      <point x="32" y="92.5" type="curve" smooth="yes"/>
      <point x="32" y="71.5"/>
      <point x="39.3333" y="53.8333"/>
      <point x="54" y="39.5" type="curve" smooth="yes"/>
      <point x="68.6667" y="25.1667"/>
      <point x="86.6667" y="18"/>
      <point x="108" y="18" type="curve"/>
    </contour>
    <contour>
      <point x="162" y="141" type="move" smooth="yes"/>
    </contour>
    <contour>
      <point x="179" y="157" type="move" smooth="yes"/>
    </contour>
  </outline>
</glyph>
<glyph name="uni0481" format="2">
  <advance width="136"/>
  <unicode hex="0481"/>
  <outline>
    <contour>
      <point x="86" y="-46" type="line"/>
      <point x="63" y="-46" type="line"/>
      <point x="63" y="8" type="line"/>
      <point x="86" y="8" type="line"/>
    </contour>
    <contour>
      <point x="77" y="-5" type="line"/>
      <point x="77" y="18" type="line"/>
      <point x="86" y="18" type="line"/>
      <point x="86" y="-5" type="line"/>
    </contour>
    <contour>
      <point x="32" y="62.5" type="curve" smooth="yes"/>
      <point x="32" y="37.9707"/>
      <point x="51.0601" y="18"/>
      <point x="77" y="18" type="curve"/>
      <point x="77" y="-5" type="line"/>
      <point x="58.3333" y="-5"/>
      <point x="42.3333" y="1.5"/>
      <point x="29" y="14.5" type="curve" smooth="yes"/>
      <point x="15.6667" y="27.5"/>
      <point x="9" y="43.3333"/>
      <point x="9" y="62" type="curve" smooth="yes"/>
      <point x="9" y="80.6667"/>
      <point x="15.6667" y="96.6667"/>
      <point x="29" y="110" type="curve" smooth="yes"/>
      <point x="42.3333" y="123.333"/>
      <point x="58.3333" y="130"/>
      <point x="77" y="130" type="curve" smooth="yes"/>
      <point x="97" y="130"/>
      <point x="114" y="122.333"/>
      <point x="128" y="107" type="curve"/>
      <point x="112" y="90" type="line"/>
      <point x="102.667" y="101.333"/>
      <point x="91" y="107"/>
      <point x="77" y="107" type="curve" smooth="yes"/>
      <point x="51.0609" y="107"/>
      <point x="32" y="87.0301"/>
    </contour>
    <contour>
      <point x="112" y="34" type="move" smooth="yes"/>
    </contour>
    <contour>
      <point x="128" y="18" type="move" smooth="yes"/>
    </contour>
    <contour>
      <point x="112" y="90" type="move" smooth="yes"/>
    </contour>
    <contour>
      <point x="128" y="107" type="move" smooth="yes"/>
    </contour>
  </outline>
</glyph>
<glyph name="uni0482" format="2">
  <advance width="144"/>
  <unicode hex="0482"/>
  <outline>
    <contour>
      <point x="12" y="97" type="line"/>
      <point x="121" y="63" type="line"/>
      <point x="114" y="41" type="line"/>
      <point x="5" y="75" type="line"/>
    </contour>
    <contour>
      <point x="27" y="144" type="line"/>
      <point x="136" y="111" type="line"/>
      <point x="129" y="89" type="line"/>
      <point x="20" y="122" type="line"/>
    </contour>
    <contour>
      <point x="30" y="7" type="line"/>
      <point x="85" y="184" type="line"/>
      <point x="107" y="177" type="line"/>
      <point x="52" y="0" type="line"/>
    </contour>
  </outline>
</glyph>
<glyph name="uni0483" format="2">
  <advance width="0"/>
  <unicode hex="0483"/>
  <outline>
    <contour>
      <point x="79" y="171" type="curve" smooth="yes"/>
      <point x="79" y="179"/>
      <point x="83" y="183"/>
      <point x="91" y="183" type="curve" smooth="yes"/>
      <point x="99" y="183"/>
      <point x="103" y="179"/>
      <point x="103" y="171" type="curve" smooth="yes"/>
      <point x="103" y="163"/>
      <point x="99" y="159"/>
      <point x="91" y="159" type="curve" smooth="yes"/>
      <point x="83" y="159"/>
      <point x="79" y="163"/>
    </contour>
    <contour>
      <point x="6" y="160" type="curve" smooth="yes"/>
      <point x="6" y="168"/>
      <point x="10" y="172"/>
      <point x="18" y="172" type="curve" smooth="yes"/>
      <point x="26" y="172"/>
      <point x="30" y="168"/>
      <point x="30" y="160" type="curve" smooth="yes"/>
      <point x="30" y="152"/>
      <point x="26" y="148"/>
      <point x="18" y="148" type="curve" smooth="yes"/>
      <point x="10" y="148"/>
      <point x="6" y="152"/>
    </contour>
    <contour>
      <point x="18" y="159" type="line"/>
      <point x="18" y="172" type="line"/>
      <point x="91" y="172" type="line"/>
      <point x="91" y="159" type="line"/>
    </contour>
  </outline>
</glyph>
<glyph name="uni0484" format="2">
  <advance width="0"/>
  <unicode hex="0484"/>
  <outline>
    <contour>
      <point x="50" y="141" type="line" smooth="yes"/>
      <point x="64" y="141"/>
      <point x="75.6667" y="146.667"/>
      <point x="85" y="158" type="curve" smooth="yes"/>
      <point x="90.3333" y="164"/>
      <point x="95.6667" y="167"/>
      <point x="101" y="167" type="curve" smooth="yes"/>
      <point x="113.667" y="167"/>
      <point x="122.667" y="160"/>
      <point x="128" y="146" type="curve"/>
      <point x="144" y="162" type="line"/>
      <point x="134.667" y="180.667"/>
      <point x="121.333" y="190"/>
      <point x="104" y="190" type="curve" smooth="yes"/>
      <point x="90.6667" y="190"/>
      <point x="79" y="184.333"/>
      <point x="69" y="173" type="curve" smooth="yes"/>
      <point x="63" y="166.333"/>
      <point x="56.3333" y="163"/>
      <point x="49" y="163" type="curve" smooth="yes"/>
      <point x="18" y="163" type="line"/>
      <point x="18" y="141" type="line"/>
    </contour>
    <contour>
      <point x="128" y="146" type="move" smooth="yes"/>
    </contour>
    <contour>
      <point x="144" y="162" type="move" smooth="yes"/>
    </contour>
    <contour>
      <point x="68" y="172" type="move" smooth="yes"/>
    </contour>
    <contour>
      <point x="84" y="156" type="move" smooth="yes"/>
    </contour>
  </outline>
</glyph>
<glyph name="uni0485" format="2">
  <advance width="0"/>
  <unicode hex="0485"/>
  <outline>
    <contour>
      <point x="41" y="121" type="line"/>
      <point x="41" y="184" type="line"/>
      <point x="18" y="184" type="line"/>
      <point x="18" y="121" type="line"/>
    </contour>
    <contour>
      <point x="72" y="141" type="line"/>
      <point x="72" y="164" type="line"/>
      <point x="19" y="164" type="line"/>
      <point x="19" y="141" type="line"/>
    </contour>
  </outline>
</glyph>
<glyph name="uni0486" format="2">
  <advance width="0"/>
  <unicode hex="0486"/>
  <outline>
    <contour>
      <point x="49" y="121" type="line"/>
      <point x="49" y="184" type="line"/>
      <point x="72" y="184" type="line"/>
      <point x="72" y="121" type="line"/>
    </contour>
    <contour>
      <point x="18" y="141" type="line"/>
      <point x="18" y="164" type="line"/>
      <point x="71" y="164" type="line"/>
      <point x="71" y="141" type="line"/>
    </contour>
  </outline>
</glyph>
<glyph name="uni0487" format="2">
  <advance width="0"/>
  <unicode hex="0487"/>
  <outline>
    <contour>
      <point x="112" y="141" type="line" smooth="yes"/>
      <point x="98" y="141"/>
      <point x="86.3333" y="146.667"/>
      <point x="77" y="158" type="curve" smooth="yes"/>
      <point x="71.6667" y="164"/>
      <point x="66.3333" y="167"/>
      <point x="61" y="167" type="curve" smooth="yes"/>
      <point x="48.3333" y="167"/>
      <point x="39.3333" y="160"/>
      <point x="34" y="146" type="curve"/>
      <point x="18" y="162" type="line"/>
      <point x="27.3333" y="180.667"/>
      <point x="40.6667" y="190"/>
      <point x="58" y="190" type="curve" smooth="yes"/>
      <point x="71.3333" y="190"/>
      <point x="83" y="184.333"/>
      <point x="93" y="173" type="curve" smooth="yes"/>
      <point x="99" y="166.333"/>
      <point x="105.667" y="163"/>
      <point x="113" y="163" type="curve" smooth="yes"/>
      <point x="144" y="163" type="line"/>
      <point x="144" y="141" type="line"/>
    </contour>
    <contour>
      <point x="34" y="146" type="move" smooth="yes"/>
    </contour>
    <contour>
      <point x="18" y="162" type="move" smooth="yes"/>
    </contour>
    <contour>
      <point x="94" y="172" type="move" smooth="yes"/>
    </contour>
    <contour>
      <point x="78" y="156" type="move" smooth="yes"/>
    </contour>
  </outline>
</glyph>
<glyph name="uni0488" format="2">
  <advance width="0"/>
  <unicode hex="0488"/>
  <outline>
    <contour>
      <point x="20" y="-20" type="move" smooth="yes"/>
    </contour>
    <contour>
      <point x="36" y="-4" type="move" smooth="yes"/>
    </contour>
    <contour>
      <point x="-25" y="24" type="curve" smooth="yes"/>
      <point x="-49" y="24"/>
      <point x="-69.3333" y="14.6667"/>
      <point x="-86" y="-4" type="curve"/>
      <point x="-70" y="-20" type="line"/>
      <point x="-57.3333" y="-5.33333"/>
      <point x="-42.3333" y="2"/>
      <point x="-25" y="2" type="curve" smooth="yes"/>
      <point x="-7.66667" y="2"/>
      <point x="7.33333" y="-5.33333"/>
      <point x="20" y="-20" type="curve"/>
      <point x="36" y="-4" type="line"/>
      <point x="19.3333" y="14.6667"/>
      <point x="-1" y="24"/>
    </contour>
    <contour>
      <point x="-70" y="-20" type="move" smooth="yes"/>
    </contour>
    <contour>
      <point x="-86" y="-4" type="move" smooth="yes"/>
    </contour>
    <contour>
      <point x="-25" y="134" type="curve" smooth="yes"/>
      <point x="-49" y="134"/>
      <point x="-69.3333" y="124.667"/>
      <point x="-86" y="106" type="curve"/>
      <point x="-70" y="90" type="line"/>
      <point x="-57.3333" y="104.667"/>
      <point x="-42.3333" y="112"/>
      <point x="-25" y="112" type="curve" smooth="yes"/>
      <point x="-7.66667" y="112"/>
      <point x="7.33333" y="104.667"/>
      <point x="20" y="90" type="curve"/>
      <point x="36" y="106" type="line"/>
      <point x="19.3333" y="124.667"/>
      <point x="-1" y="134"/>
    </contour>
    <contour>
      <point x="210" y="-20" type="move" smooth="yes"/>
    </contour>
    <contour>
      <point x="226" y="-4" type="move" smooth="yes"/>
    </contour>
    <contour>
      <point x="165" y="24" type="curve" smooth="yes"/>
      <point x="141" y="24"/>
      <point x="120.667" y="14.6667"/>
      <point x="104" y="-4" type="curve"/>
      <point x="120" y="-20" type="line"/>
      <point x="132.667" y="-5.33333"/>
      <point x="147.667" y="2"/>
      <point x="165" y="2" type="curve" smooth="yes"/>
      <point x="182.333" y="2"/>
      <point x="197.333" y="-5.33333"/>
      <point x="210" y="-20" type="curve"/>
      <point x="226" y="-4" type="line"/>
      <point x="209.333" y="14.6667"/>
      <point x="189" y="24"/>
    </contour>
    <contour>
      <point x="104" y="-4" type="move" smooth="yes"/>
    </contour>
    <contour>
      <point x="210" y="90" type="move" smooth="yes"/>
    </contour>
    <contour>
      <point x="226" y="106" type="move" smooth="yes"/>
    </contour>
    <contour>
      <point x="165" y="134" type="curve" smooth="yes"/>
      <point x="141" y="134"/>
      <point x="120.667" y="124.667"/>
      <point x="104" y="106" type="curve"/>
      <point x="120" y="90" type="line"/>
      <point x="132.667" y="104.667"/>
      <point x="147.667" y="112"/>
      <point x="165" y="112" type="curve" smooth="yes"/>
      <point x="182.333" y="112"/>
      <point x="197.333" y="104.667"/>
      <point x="210" y="90" type="curve"/>
      <point x="226" y="106" type="line"/>
      <point x="209.333" y="124.667"/>
      <point x="189" y="134"/>
    </contour>
    <contour>
      <point x="120" y="90" type="move" smooth="yes"/>
    </contour>
    <contour>
      <point x="104" y="106" type="move" smooth="yes"/>
    </contour>
    <contour>
      <point x="250" y="40" type="move" smooth="yes"/>
    </contour>
    <contour>
      <point x="266" y="56" type="move" smooth="yes"/>
    </contour>
    <contour>
      <point x="205" y="84" type="curve" smooth="yes"/>
      <point x="181" y="84"/>
      <point x="160.667" y="74.6667"/>
      <point x="144" y="56" type="curve"/>
      <point x="160" y="40" type="line"/>
      <point x="172.667" y="54.6667"/>
      <point x="187.667" y="62"/>
      <point x="205" y="62" type="curve" smooth="yes"/>
      <point x="222.333" y="62"/>
      <point x="237.333" y="54.6667"/>
      <point x="250" y="40" type="curve"/>
      <point x="266" y="56" type="line"/>
      <point x="249.333" y="74.6667"/>
      <point x="229" y="84"/>
    </contour>
    <contour>
      <point x="160" y="40" type="move" smooth="yes"/>
    </contour>
    <contour>
      <point x="144" y="56" type="move" smooth="yes"/>
    </contour>
    <contour>
      <point x="6" y="56" type="move" smooth="yes"/>
    </contour>
    <contour>
      <point x="-55" y="84" type="curve" smooth="yes"/>
      <point x="-79" y="84"/>
      <point x="-99.3333" y="74.6667"/>
      <point x="-116" y="56" type="curve"/>
      <point x="-100" y="40" type="line"/>
      <point x="-87.3333" y="54.6667"/>
      <point x="-72.3333" y="62"/>
      <point x="-55" y="62" type="curve" smooth="yes"/>
      <point x="-37.6667" y="62"/>
      <point x="-22.6667" y="54.6667"/>
      <point x="-10" y="40" type="curve"/>
      <point x="6" y="56" type="line"/>
      <point x="-10.6667" y="74.6667"/>
      <point x="-31" y="84"/>
    </contour>
    <contour>
      <point x="-100" y="40" type="move" smooth="yes"/>
    </contour>
    <contour>
      <point x="-116" y="56" type="move" smooth="yes"/>
    </contour>
    <contour>
      <point x="120" y="-60" type="move" smooth="yes"/>
    </contour>
    <contour>
      <point x="136" y="-44" type="move" smooth="yes"/>
    </contour>
    <contour>
      <point x="75" y="-16" type="curve" smooth="yes"/>
      <point x="51" y="-16"/>
      <point x="30.6667" y="-25.3333"/>
      <point x="14" y="-44" type="curve"/>
      <point x="30" y="-60" type="line"/>
      <point x="42.6667" y="-45.3333"/>
      <point x="57.6667" y="-38"/>
      <point x="75" y="-38" type="curve" smooth="yes"/>
      <point x="92.3333" y="-38"/>
      <point x="107.333" y="-45.3333"/>
      <point x="120" y="-60" type="curve"/>
      <point x="136" y="-44" type="line"/>
      <point x="119.333" y="-25.3333"/>
      <point x="99" y="-16"/>
    </contour>
    <contour>
      <point x="30" y="-60" type="move" smooth="yes"/>
    </contour>
    <contour>
      <point x="14" y="-44" type="move" smooth="yes"/>
    </contour>
    <contour>
      <point x="120" y="140" type="move" smooth="yes"/>
    </contour>
    <contour>
      <point x="136" y="156" type="move" smooth="yes"/>
    </contour>
    <contour>
      <point x="75" y="184" type="curve" smooth="yes"/>
      <point x="51" y="184"/>
      <point x="30.6667" y="174.667"/>
      <point x="14" y="156" type="curve"/>
      <point x="30" y="140" type="line"/>
      <point x="42.6667" y="154.667"/>
      <point x="57.6667" y="162"/>
      <point x="75" y="162" type="curve" smooth="yes"/>
      <point x="92.3333" y="162"/>
      <point x="107.333" y="154.667"/>
      <point x="120" y="140" type="curve"/>
      <point x="136" y="156" type="line"/>
      <point x="119.333" y="174.667"/>
      <point x="99" y="184"/>
    </contour>
    <contour>
      <point x="30" y="140" type="move" smooth="yes"/>
    </contour>
    <contour>
      <point x="14" y="156" type="move" smooth="yes"/>
    </contour>
  </outline>
</glyph>
<glyph name="uni0489" format="2">
  <advance width="0"/>
  <unicode hex="0489"/>
  <outline>
    <contour>
      <point x="-36" y="172" type="curve"/>
      <point x="-32" y="167" type="line"/>
      <point x="-42.6667" y="159.667"/>
      <point x="-43.6667" y="149.333"/>
      <point x="-35" y="136" type="curve"/>
      <point x="-26" y="135" type="line"/>
      <point x="-42" y="133" type="line"/>
      <point x="-50.3222" y="145.483"/>
      <point x="-46.497" y="164.127"/>
    </contour>
    <contour>
      <point x="-23" y="147" type="line"/>
      <point x="-10" y="128" type="line"/>
      <point x="-28" y="115" type="line"/>
      <point x="-42" y="133" type="line"/>
    </contour>
    <contour>
      <point x="-75" y="132" type="curve"/>
      <point x="-70" y="128" type="line"/>
      <point x="-76.6667" y="118.667"/>
      <point x="-74.3333" y="108.667"/>
      <point x="-63" y="98" type="curve"/>
      <point x="-54" y="100" type="line"/>
      <point x="-69" y="93" type="line"/>
      <point x="-79.5097" y="102.196"/>
      <point x="-83.3114" y="120.918"/>
    </contour>
    <contour>
      <point x="-56" y="112" type="line"/>
      <point x="-37" y="99" type="line"/>
      <point x="-50" y="80" type="line"/>
      <point x="-69" y="93" type="line"/>
    </contour>
    <contour>
      <point x="-102" y="68" type="curve"/>
      <point x="-95" y="68" type="line"/>
      <point x="-95" y="55.3333"/>
      <point x="-87.3333" y="48.3333"/>
      <point x="-72" y="47" type="curve"/>
      <point x="-66" y="54" type="line"/>
      <point x="-74" y="40" type="line"/>
      <point x="-86.6017" y="41.2602"/>
      <point x="-102" y="53.7038"/>
    </contour>
    <contour>
      <point x="-74" y="63" type="line"/>
      <point x="-51" y="63" type="line"/>
      <point x="-51" y="40" type="line"/>
      <point x="-74" y="40" type="line"/>
    </contour>
    <contour>
      <point x="-102" y="67" type="curve"/>
      <point x="-96" y="67" type="line"/>
      <point x="-96" y="55"/>
      <point x="-88" y="48.3333"/>
      <point x="-72" y="47" type="curve"/>
      <point x="-66" y="54" type="line"/>
      <point x="-74" y="40" type="line"/>
      <point x="-88.4003" y="41.3091"/>
      <point x="-102" y="53.1478"/>
    </contour>
    <contour>
      <point x="-74" y="62" type="line"/>
      <point x="-51" y="63" type="line"/>
      <point x="-51" y="40" type="line"/>
      <point x="-74" y="40" type="line"/>
    </contour>
    <contour>
      <point x="-86" y="0" type="curve"/>
      <point x="-80" y="4" type="line"/>
      <point x="-72" y="-7.33333"/>
      <point x="-61.6667" y="-8.66667"/>
      <point x="-49" y="0" type="curve"/>
      <point x="-48" y="10" type="line"/>
      <point x="-46" y="-6" type="line"/>
      <point x="-58.4178" y="-14.2785"/>
      <point x="-78.0628" y="-10.5829"/>
    </contour>
    <contour>
      <point x="-60" y="12" type="line"/>
      <point x="-42" y="26" type="line"/>
      <point x="-28" y="7" type="line"/>
      <point x="-46" y="-6" type="line"/>
    </contour>
    <contour>
      <point x="-46" y="-40" type="curve"/>
      <point x="-42" y="-34" type="line"/>
      <point x="-31.3333" y="-41.3333"/>
      <point x="-21" y="-39.3333"/>
      <point x="-11" y="-28" type="curve"/>
      <point x="-13" y="-19" type="line"/>
      <point x="-6" y="-34" type="line"/>
      <point x="-15.2736" y="-44.5984"/>
      <point x="-34.9785" y="-48.2661"/>
    </contour>
    <contour>
      <point x="-25" y="-20" type="line"/>
      <point x="-12" y="-2" type="line"/>
      <point x="7" y="-15" type="line"/>
      <point x="-6" y="-34" type="line"/>
    </contour>
    <contour>
      <point x="26" y="-72" type="curve"/>
      <point x="26" y="-65" type="line"/>
      <point x="38" y="-65"/>
      <point x="44.6667" y="-57.3333"/>
      <point x="46" y="-42" type="curve"/>
      <point x="40" y="-36" type="line"/>
      <point x="54" y="-44" type="line"/>
      <point x="52.7398" y="-56.6017"/>
      <point x="40.2962" y="-72"/>
    </contour>
    <contour>
      <point x="30" y="-44" type="line"/>
      <point x="30" y="-21" type="line"/>
      <point x="53" y="-21" type="line"/>
      <point x="54" y="-44" type="line"/>
    </contour>
    <contour>
      <point x="94" y="-56" type="curve"/>
      <point x="90" y="-50" type="line"/>
      <point x="100.667" y="-42.6667"/>
      <point x="101.667" y="-32.3333"/>
      <point x="93" y="-19" type="curve"/>
      <point x="84" y="-18" type="line"/>
      <point x="100" y="-16" type="line"/>
      <point x="108.279" y="-28.4178"/>
      <point x="104.583" y="-48.0628"/>
    </contour>
    <contour>
      <point x="81" y="-30" type="line"/>
      <point x="68" y="-12" type="line"/>
      <point x="86" y="2" type="line"/>
      <point x="100" y="-16" type="line"/>
    </contour>
    <contour>
      <point x="133" y="-16" type="curve"/>
      <point x="128" y="-11" type="line"/>
      <point x="134.667" y="-1.66667"/>
      <point x="132.333" y="8.33333"/>
      <point x="121" y="19" type="curve"/>
      <point x="112" y="17" type="line"/>
      <point x="127" y="24" type="line"/>
      <point x="137.598" y="14.7264"/>
      <point x="141.266" y="-4.97854"/>
    </contour>
    <contour>
      <point x="114" y="5" type="line"/>
      <point x="95" y="18" type="line"/>
      <point x="108" y="37" type="line"/>
      <point x="127" y="24" type="line"/>
    </contour>
    <contour>
      <point x="160" y="49" type="curve"/>
      <point x="153" y="49" type="line"/>
      <point x="153" y="61.6667"/>
      <point x="145.333" y="68.6667"/>
      <point x="130" y="70" type="curve"/>
      <point x="124" y="63" type="line"/>
      <point x="132" y="77" type="line"/>
      <point x="144.602" y="75.7398"/>
      <point x="160" y="63.2962"/>
    </contour>
    <contour>
      <point x="132" y="54" type="line"/>
      <point x="109" y="54" type="line"/>
      <point x="109" y="77" type="line"/>
      <point x="132" y="77" type="line"/>
    </contour>
    <contour>
      <point x="160" y="50" type="curve"/>
      <point x="154" y="50" type="line"/>
      <point x="154" y="62"/>
      <point x="146" y="68.6667"/>
      <point x="130" y="70" type="curve"/>
      <point x="124" y="63" type="line"/>
      <point x="132" y="78" type="line"/>
      <point x="144.602" y="76.7398"/>
      <point x="160" y="64.2962"/>
    </contour>
    <contour>
      <point x="132" y="54" type="line"/>
      <point x="109" y="54" type="line"/>
      <point x="109" y="77" type="line"/>
      <point x="132" y="78" type="line"/>
    </contour>
    <contour>
      <point x="144" y="118" type="curve"/>
      <point x="138" y="113" type="line"/>
      <point x="130.667" y="123.667"/>
      <point x="120.333" y="124.667"/>
      <point x="107" y="116" type="curve"/>
      <point x="106" y="107" type="line"/>
      <point x="104" y="123" type="line"/>
      <point x="116.056" y="131.037"/>
      <point x="135.817" y="128.91"/>
    </contour>
    <contour>
      <point x="118" y="105" type="line"/>
      <point x="100" y="91" type="line"/>
      <point x="86" y="110" type="line"/>
      <point x="104" y="123" type="line"/>
    </contour>
    <contour>
      <point x="104" y="157" type="curve"/>
      <point x="100" y="152" type="line"/>
      <point x="90" y="159.333"/>
      <point x="79.6667" y="157"/>
      <point x="69" y="145" type="curve"/>
      <point x="71" y="136" type="line"/>
      <point x="64" y="151" type="line"/>
      <point x="73.2736" y="161.598"/>
      <point x="92.9785" y="165.266"/>
    </contour>
    <contour>
      <point x="83" y="137" type="line"/>
      <point x="70" y="118" type="line"/>
      <point x="51" y="132" type="line"/>
      <point x="64" y="151" type="line"/>
    </contour>
    <contour>
      <point x="39" y="184" type="curve"/>
      <point x="39" y="177" type="line"/>
      <point x="26.3333" y="177"/>
      <point x="19.3333" y="169.333"/>
      <point x="18" y="154" type="curve"/>
      <point x="25" y="148" type="line"/>
      <point x="11" y="156" type="line"/>
      <point x="12.2602" y="168.602"/>
      <point x="24.7038" y="184"/>
    </contour>
    <contour>
      <point x="34" y="156" type="line"/>
      <point x="34" y="133" type="line"/>
      <point x="11" y="133" type="line"/>
      <point x="11" y="156" type="line"/>
    </contour>
  </outline>
</glyph>
<glyph name="uni0490" format="2">
  <advance width="142"/>
  <unicode hex="0490"/>
  <outline>
    <contour>
      <point x="111" y="216" type="line"/>
      <point x="134" y="216" type="line"/>
      <point x="134" y="162" type="line"/>
      <point x="111" y="162" type="line"/>
    </contour>
    <contour>
      <point x="20" y="184" type="line"/>
      <point x="134" y="184" type="line"/>
      <point x="134" y="161" type="line"/>
      <point x="43" y="161" type="line"/>
      <point x="43" y="0" type="line"/>
      <point x="20" y="0" type="line"/>
    </contour>
  </outline>
</glyph>
<glyph name="uni0491" format="2">
  <advance width="116"/>
  <unicode hex="0491"/>
  <outline>
    <contour>
      <point x="79" y="156" type="line"/>
      <point x="102" y="156" type="line"/>
      <point x="102" y="102" type="line"/>
      <point x="79" y="102" type="line"/>
    </contour>
    <contour>
      <point x="18" y="124" type="line"/>
      <point x="102" y="124" type="line"/>
      <point x="102" y="102" type="line"/>
      <point x="41" y="102" type="line"/>
      <point x="41" y="0" type="line"/>
      <point x="18" y="0" type="line"/>
    </contour>
  </outline>
</glyph>
<glyph name="uni0492" format="2">
  <advance width="143"/>
  <unicode hex="0492"/>
  <outline>
    <contour>
      <point x="8" y="81" type="line"/>
      <point x="8" y="104" type="line"/>
      <point x="102" y="104" type="line"/>
      <point x="102" y="81" type="line"/>
    </contour>
    <contour>
      <point x="22" y="184" type="line"/>
      <point x="136" y="184" type="line"/>
      <point x="136" y="161" type="line"/>
      <point x="45" y="161" type="line"/>
      <point x="45" y="0" type="line"/>
      <point x="22" y="0" type="line"/>
    </contour>
  </outline>
</glyph>
<glyph name="uni0493" format="2">
  <advance width="120"/>
  <unicode hex="0493"/>
  <outline>
    <contour>
      <point x="9" y="51" type="line"/>
      <point x="9" y="74" type="line"/>
      <point x="103" y="74" type="line"/>
      <point x="103" y="51" type="line"/>
    </contour>
    <contour>
      <point x="23" y="124" type="line"/>
      <point x="107" y="124" type="line"/>
      <point x="107" y="102" type="line"/>
      <point x="46" y="102" type="line"/>
      <point x="46" y="0" type="line"/>
      <point x="23" y="0" type="line"/>
    </contour>
  </outline>
</glyph>
<glyph name="uni0494" format="2">
  <advance width="148"/>
  <unicode hex="0494"/>
  <outline>
    <contour>
      <point x="29" y="72" type="line"/>
      <point x="30.426" y="107.65"/>
      <point x="45.6825" y="120"/>
      <point x="74" y="120" type="curve" smooth="yes"/>
      <point x="113.333" y="120"/>
      <point x="133" y="92.6667"/>
      <point x="133" y="38" type="curve" smooth="yes"/>
      <point x="133" y="-20.6667"/>
      <point x="111.333" y="-50"/>
      <point x="68" y="-50" type="curve"/>
      <point x="68" y="-27" type="line"/>
      <point x="96" y="-27"/>
      <point x="109.667" y="-3.66667"/>
      <point x="109" y="43" type="curve" smooth="yes"/>
      <point x="109" y="83.0953"/>
      <point x="99.2103" y="97"/>
      <point x="73" y="97" type="curve" smooth="yes"/>
      <point x="54.3333" y="97"/>
      <point x="44" y="89.3333"/>
      <point x="42" y="74" type="curve"/>
    </contour>
    <contour>
      <point x="19" y="184" type="line"/>
      <point x="133" y="184" type="line"/>
      <point x="133" y="161" type="line"/>
      <point x="42" y="161" type="line"/>
      <point x="42" y="0" type="line"/>
      <point x="19" y="0" type="line"/>
    </contour>
  </outline>
</glyph>
<glyph name="uni0495" format="2">
  <advance width="143"/>
  <unicode hex="0495"/>
  <outline>
    <contour>
      <point x="73" y="80" type="curve" smooth="yes"/>
      <point x="110.444" y="80"/>
      <point x="132" y="58.4542"/>
      <point x="132" y="21" type="curve" smooth="yes"/>
      <point x="132" y="-4.35166"/>
      <point x="121.637" y="-50"/>
      <point x="47" y="-50" type="curve"/>
      <point x="47" y="-27" type="line"/>
      <point x="88.3333" y="-27"/>
      <point x="109" y="-12.3333"/>
      <point x="109" y="17" type="curve" smooth="yes"/>
      <point x="107.571" y="46.9994"/>
      <point x="95.3197" y="57"/>
      <point x="72" y="57" type="curve" smooth="yes"/>
      <point x="53.3333" y="57"/>
      <point x="43" y="49.3333"/>
      <point x="41" y="34" type="curve"/>
      <point x="28" y="32" type="line"/>
      <point x="29.426" y="67.6498"/>
      <point x="44.6825" y="80"/>
    </contour>
    <contour>
      <point x="18" y="124" type="line"/>
      <point x="102" y="124" type="line"/>
      <point x="102" y="102" type="line"/>
      <point x="41" y="102" type="line"/>
      <point x="41" y="0" type="line"/>
      <point x="18" y="0" type="line"/>
    </contour>
  </outline>
</glyph>
<glyph name="uni0497" format="2">
  <advance width="193"/>
  <unicode hex="0497"/>
  <outline>
    <contour>
      <point x="183" y="-41" type="line"/>
      <point x="160" y="-41" type="line"/>
      <point x="160" y="12" type="line"/>
      <point x="183" y="13" type="line"/>
    </contour>
    <contour>
      <point x="160" y="0" type="line"/>
      <point x="160" y="23" type="line"/>
      <point x="183" y="23" type="line"/>
      <point x="183" y="0" type="line"/>
    </contour>
    <contour>
      <point x="121" y="32" type="curve" smooth="yes"/>
      <point x="121" y="41.8601"/>
      <point x="114.131" y="54"/>
      <point x="104" y="54" type="curve" smooth="yes"/>
      <point x="81" y="54" type="line" smooth="yes"/>
      <point x="70.8695" y="54"/>
      <point x="64" y="41.8607"/>
      <point x="64" y="32" type="curve" smooth="yes"/>
      <point x="64" y="12.6717"/>
      <point x="46.1956" y="0"/>
      <point x="24" y="0" type="curve" smooth="yes"/>
      <point x="14" y="0" type="line"/>
      <point x="14" y="23" type="line"/>
      <point x="24" y="23" type="line" smooth="yes"/>
      <point x="33.6667" y="23"/>
      <point x="41" y="30.1233"/>
      <point x="41" y="38" type="curve" smooth="yes"/>
      <point x="41" y="48.3125"/>
      <point x="51.6925" y="63.5866"/>
      <point x="63" y="65" type="curve"/>
      <point x="51.8826" y="66.3897"/>
      <point x="41" y="78.783"/>
      <point x="41" y="88" type="curve" smooth="yes"/>
      <point x="41" y="96.3431"/>
      <point x="33.0837" y="102"/>
      <point x="24" y="102" type="curve" smooth="yes"/>
      <point x="14" y="102" type="line"/>
      <point x="14" y="125" type="line"/>
      <point x="24" y="125" type="line" smooth="yes"/>
      <point x="46.1932" y="125"/>
      <point x="64" y="112.33"/>
      <point x="64" y="93" type="curve" smooth="yes"/>
      <point x="64" y="82.3333"/>
      <point x="69.6667" y="77"/>
      <point x="81" y="77" type="curve" smooth="yes"/>
      <point x="104" y="77" type="line" smooth="yes"/>
      <point x="115.333" y="77"/>
      <point x="121" y="82.3333"/>
      <point x="121" y="93" type="curve" smooth="yes"/>
      <point x="121" y="112.328"/>
      <point x="138.804" y="125"/>
      <point x="161" y="125" type="curve" smooth="yes"/>
      <point x="171" y="125" type="line"/>
      <point x="171" y="102" type="line"/>
      <point x="161" y="102" type="line" smooth="yes"/>
      <point x="151.917" y="102"/>
      <point x="144" y="96.3434"/>
      <point x="144" y="88" type="curve" smooth="yes"/>
      <point x="144" y="78.783"/>
      <point x="133.117" y="66.3897"/>
      <point x="122" y="65" type="curve"/>
      <point x="133.307" y="63.5866"/>
      <point x="144" y="48.313"/>
      <point x="144" y="38" type="curve" smooth="yes"/>
      <point x="144" y="30.1235"/>
      <point x="151.333" y="23"/>
      <point x="161" y="23" type="curve" smooth="yes"/>
      <point x="171" y="23" type="line"/>
      <point x="171" y="0" type="line"/>
      <point x="161" y="0" type="line" smooth="yes"/>
      <point x="138.807" y="0"/>
      <point x="121" y="12.6699"/>
    </contour>
    <contour>
      <point x="81" y="0" type="line"/>
      <point x="81" y="125" type="line"/>
      <point x="104" y="125" type="line"/>
      <point x="104" y="0" type="line"/>
    </contour>
  </outline>
</glyph>
<glyph name="uni0498" format="2">
  <advance width="158"/>
  <unicode hex="0498"/>
  <outline>
    <contour>
      <point x="86" y="-55" type="move" smooth="yes"/>
    </contour>
    <contour>
      <point x="102" y="-12" type="move" smooth="yes"/>
    </contour>
    <contour>
      <point x="56" y="1" type="move" smooth="yes"/>
    </contour>
    <contour>
      <point x="72" y="17" type="move" smooth="yes"/>
    </contour>
    <contour>
      <point x="67" y="-51" type="curve" smooth="yes"/>
      <point x="45.4677" y="-51"/>
      <point x="30" y="-38.4447"/>
      <point x="30" y="-21" type="curve" smooth="yes"/>
      <point x="30" y="-5.66667"/>
      <point x="42" y="4.33333"/>
      <point x="66" y="9" type="curve"/>
      <point x="78" y="12" type="line"/>
      <point x="89" y="-5" type="line"/>
      <point x="68" y="-9" type="line" smooth="yes"/>
      <point x="58.6667" y="-11"/>
      <point x="54" y="-15"/>
      <point x="54" y="-21" type="curve" smooth="yes"/>
      <point x="54" y="-25.6667"/>
      <point x="57.6667" y="-28"/>
      <point x="65" y="-28" type="curve" smooth="yes"/>
      <point x="75" y="-28"/>
      <point x="84.3333" y="-22.6667"/>
      <point x="93" y="-12" type="curve"/>
      <point x="109" y="-28" type="line"/>
      <point x="95.6667" y="-43.3333"/>
      <point x="81.6667" y="-51"/>
    </contour>
    <contour>
      <point x="24" y="43" type="move" smooth="yes"/>
    </contour>
    <contour>
      <point x="7" y="27" type="move" smooth="yes"/>
    </contour>
    <contour>
      <point x="24" y="140" type="move" smooth="yes"/>
    </contour>
    <contour>
      <point x="8" y="157" type="move" smooth="yes"/>
    </contour>
    <contour>
      <point x="146" y="44" type="curve" smooth="yes"/>
      <point x="146" y="13.8598"/>
      <point x="117.845" y="-6"/>
      <point x="81" y="-6" type="curve" smooth="yes"/>
      <point x="51.6667" y="-6"/>
      <point x="27" y="5"/>
      <point x="7" y="27" type="curve"/>
      <point x="24" y="43" type="line"/>
      <point x="38" y="25.6667"/>
      <point x="56.6667" y="17"/>
      <point x="80" y="17" type="curve" smooth="yes"/>
      <point x="93.3333" y="17"/>
      <point x="103.833" y="19.8333"/>
      <point x="111.5" y="25.5" type="curve" smooth="yes"/>
      <point x="119.167" y="31.1667"/>
      <point x="123" y="38.6667"/>
      <point x="123" y="48" type="curve" smooth="yes"/>
      <point x="123" y="69.3333"/>
      <point x="106.667" y="80"/>
      <point x="74" y="80" type="curve" smooth="yes"/>
      <point x="55" y="80" type="line"/>
      <point x="55" y="103" type="line"/>
      <point x="80" y="103" type="line"/>
      <point x="92.3561" y="104.236"/>
      <point x="124" y="109.944"/>
      <point x="124" y="136" type="curve" smooth="yes"/>
      <point x="124" y="154.615"/>
      <point x="107.693" y="167"/>
      <point x="82" y="167" type="curve" smooth="yes"/>
      <point x="58" y="167"/>
      <point x="38.6667" y="158"/>
      <point x="24" y="140" type="curve"/>
      <point x="8" y="157" type="line"/>
      <point x="28" y="179"/>
      <point x="52.3333" y="190"/>
      <point x="81" y="190" type="curve" smooth="yes"/>
      <point x="119.775" y="190"/>
      <point x="147" y="169.008"/>
      <point x="147" y="138" type="curve" smooth="yes"/>
      <point x="147" y="115.584"/>
      <point x="131.913" y="95.1086"/>
      <point x="110" y="91" type="curve"/>
      <point x="129.662" y="87.0676"/>
      <point x="146" y="67.4355"/>
    </contour>
  </outline>
</glyph>
<glyph name="uni0499" format="2">
  <advance width="114"/>
  <unicode hex="0499"/>
  <outline>
    <contour>
      <point x="76" y="18" type="move" smooth="yes"/>
    </contour>
    <contour>
      <point x="60" y="2" type="move" smooth="yes"/>
    </contour>
    <contour>
      <point x="106" y="-10" type="move" smooth="yes"/>
    </contour>
    <contour>
      <point x="90" y="-54" type="move" smooth="yes"/>
    </contour>
    <contour>
      <point x="12" y="107" type="move" smooth="yes"/>
    </contour>
    <contour>
      <point x="28" y="90" type="move" smooth="yes"/>
    </contour>
    <contour>
      <point x="11" y="17" type="move" smooth="yes"/>
    </contour>
    <contour>
      <point x="28" y="33" type="move" smooth="yes"/>
    </contour>
    <contour>
      <point x="12" y="107" type="move" smooth="yes"/>
    </contour>
    <contour>
      <point x="28" y="90" type="move" smooth="yes"/>
    </contour>
    <contour>
      <point x="11" y="17" type="move" smooth="yes"/>
    </contour>
    <contour>
      <point x="28" y="33" type="move" smooth="yes"/>
    </contour>
    <contour>
      <point x="59" y="130" type="curve" smooth="yes"/>
      <point x="65.564" y="130"/>
      <point x="101" y="128.274"/>
      <point x="101" y="91" type="curve" smooth="yes"/>
      <point x="101" y="75"/>
      <point x="92" y="65.3333"/>
      <point x="74" y="62" type="curve"/>
      <point x="91.3333" y="58.6667"/>
      <point x="100" y="47.3333"/>
      <point x="100" y="28" type="curve" smooth="yes"/>
      <point x="100" y="5.33333"/>
      <point x="86.6667" y="-6"/>
      <point x="60" y="-6" type="curve" smooth="yes"/>
      <point x="40.6667" y="-6"/>
      <point x="24.3333" y="1.66667"/>
      <point x="11" y="17" type="curve"/>
      <point x="28" y="33" type="line"/>
      <point x="36.6667" y="22.3333"/>
      <point x="46.6667" y="17"/>
      <point x="58" y="17" type="curve" smooth="yes"/>
      <point x="70.6667" y="17"/>
      <point x="77" y="22.3333"/>
      <point x="77" y="33" type="curve" smooth="yes"/>
      <point x="77" y="45"/>
      <point x="70.6667" y="51"/>
      <point x="58" y="51" type="curve" smooth="yes"/>
      <point x="39" y="51" type="line"/>
      <point x="39" y="74" type="line"/>
      <point x="64" y="74" type="line" smooth="yes"/>
      <point x="73.3333" y="74"/>
      <point x="78" y="79.3333"/>
      <point x="78" y="90" type="curve" smooth="yes"/>
      <point x="78" y="101.333"/>
      <point x="71.3333" y="107"/>
      <point x="58" y="107" type="curve" smooth="yes"/>
      <point x="47.3333" y="107"/>
      <point x="37.3333" y="101.333"/>
      <point x="28" y="90" type="curve"/>
      <point x="12" y="107" type="line"/>
      <point x="25.3333" y="122.333"/>
      <point x="41" y="130"/>
    </contour>
    <contour>
      <point x="53" y="-50" type="curve" smooth="yes"/>
      <point x="29.1919" y="-50"/>
      <point x="16" y="-37.6078"/>
      <point x="16" y="-21" type="curve" smooth="yes"/>
      <point x="16" y="-5"/>
      <point x="28" y="5.33333"/>
      <point x="52" y="10" type="curve"/>
      <point x="64" y="13" type="line"/>
      <point x="75" y="-4" type="line"/>
      <point x="54" y="-8" type="line" smooth="yes"/>
      <point x="44.6667" y="-10"/>
      <point x="40" y="-14"/>
      <point x="40" y="-20" type="curve" smooth="yes"/>
      <point x="40" y="-24.6667"/>
      <point x="43.6667" y="-27"/>
      <point x="51" y="-27" type="curve" smooth="yes"/>
      <point x="60.3333" y="-27"/>
      <point x="69.6667" y="-21.3333"/>
      <point x="79" y="-10" type="curve"/>
      <point x="95" y="-27" type="line"/>
      <point x="81.6667" y="-42.3333"/>
      <point x="67.6667" y="-50"/>
    </contour>
  </outline>
</glyph>
<glyph name="arrowleft" format="2">
  <advance width="224"/>
  <unicode hex="2190"/>
  <outline>
    <contour>
      <point x="20" y="104" type="line"/>
      <point x="204" y="104" type="line"/>
      <point x="204" y="80" type="line"/>
      <point x="20" y="80" type="line"/>
    </contour>
    <contour>
      <point x="115" y="30" type="line"/>
      <point x="20" y="80" type="line"/>
      <point x="20" y="104" type="line"/>
      <point x="115" y="54" type="line"/>
    </contour>
    <contour>
      <point x="115" y="154" type="line"/>
      <point x="115" y="130" type="line"/>
      <point x="20" y="80" type="line"/>
      <point x="20" y="104" type="line"/>
    </contour>
  </outline>
</glyph>
<glyph name="arrowright" format="2">
  <advance width="224"/>
  <unicode hex="2192"/>
  <outline>
    <contour>
      <point x="204" y="80" type="line"/>
      <point x="20" y="80" type="line"/>
      <point x="20" y="104" type="line"/>
      <point x="204" y="104" type="line"/>
    </contour>
    <contour>
      <point x="109" y="154" type="line"/>
      <point x="204" y="104" type="line"/>
      <point x="204" y="80" type="line"/>
      <point x="109" y="130" type="line"/>
    </contour>
    <contour>
      <point x="109" y="30" type="line"/>
      <point x="109" y="54" type="line"/>
      <point x="204" y="104" type="line"/>
      <point x="204" y="80" type="line"/>
    </contour>
  </outline>
</glyph>
<glyph name="arrowupdn" format="2">
  <advance width="135"/>
  <unicode hex="2195"/>
  <outline>
    <contour>
      <point x="56" y="0" type="line"/>
      <point x="56" y="151" type="line"/>
      <point x="79" y="151" type="line"/>
      <point x="79" y="0" type="line"/>
    </contour>
    <contour>
      <point x="129" y="78" type="line"/>
      <point x="79" y="0" type="line"/>
      <point x="56" y="0" type="line"/>
      <point x="106" y="78" type="line"/>
    </contour>
    <contour>
      <point x="6" y="78" type="line"/>
      <point x="29" y="78" type="line"/>
      <point x="79" y="0" type="line"/>
      <point x="56" y="0" type="line"/>
    </contour>
    <contour>
      <point x="79" y="184" type="line"/>
      <point x="79" y="33" type="line"/>
      <point x="56" y="33" type="line"/>
      <point x="56" y="184" type="line"/>
    </contour>
    <contour>
      <point x="6" y="106" type="line"/>
      <point x="56" y="184" type="line"/>
      <point x="79" y="184" type="line"/>
      <point x="29" y="106" type="line"/>
    </contour>
    <contour>
      <point x="129" y="106" type="line"/>
      <point x="106" y="106" type="line"/>
      <point x="56" y="184" type="line"/>
      <point x="79" y="184" type="line"/>
    </contour>
  </outline>
</glyph>
<glyph name="asteriskmath" format="2">
  <advance width="115"/>
  <unicode hex="2217"/>
  <outline>
    <contour>
      <point x="50" y="76" type="line"/>
      <point x="50" y="144" type="line"/>
      <point x="72" y="144" type="line"/>
      <point x="72" y="76" type="line"/>
    </contour>
    <contour>
      <point x="107" y="110" type="line"/>
      <point x="26" y="30" type="line"/>
      <point x="10" y="46" type="line"/>
      <point x="90" y="126" type="line"/>
    </contour>
    <contour>
      <point x="28" y="128" type="line"/>
      <point x="108" y="48" type="line"/>
      <point x="92" y="32" type="line"/>
      <point x="12" y="112" type="line"/>
    </contour>
  </outline>
</glyph>
<glyph name="angle" format="2">
  <advance width="165"/>
  <unicode hex="2220"/>
  <outline>
    <contour>
      <point x="19" y="0" type="line"/>
      <point x="129" y="184" type="line"/>
      <point x="152" y="184" type="line"/>
      <point x="58" y="23" type="line"/>
      <point x="156" y="23" type="line"/>
      <point x="156" y="0" type="line"/>
    </contour>
  </outline>
</glyph>
<glyph name="approxequal" format="2">
  <advance width="156"/>
  <unicode hex="2248"/>
  <outline>
    <contour>
      <point x="27" y="52" type="move" smooth="yes"/>
    </contour>
    <contour>
      <point x="11" y="69" type="move" smooth="yes"/>
    </contour>
    <contour>
      <point x="87" y="79" type="move" smooth="yes"/>
    </contour>
    <contour>
      <point x="70" y="62" type="move" smooth="yes"/>
    </contour>
    <contour>
      <point x="130" y="92" type="move" smooth="yes"/>
    </contour>
    <contour>
      <point x="147" y="75" type="move" smooth="yes"/>
    </contour>
    <contour>
      <point x="130" y="92" type="line"/>
      <point x="121.332" y="73.219"/>
      <point x="117.54" y="70"/>
      <point x="108" y="70" type="curve" smooth="yes"/>
      <point x="99.3333" y="70"/>
      <point x="92" y="73.3333"/>
      <point x="86" y="80" type="curve" smooth="yes"/>
      <point x="76" y="91.3333"/>
      <point x="64.3333" y="97"/>
      <point x="51" y="97" type="curve" smooth="yes"/>
      <point x="33.6667" y="97"/>
      <point x="20.3333" y="87.6667"/>
      <point x="11" y="69" type="curve"/>
      <point x="27" y="52" type="line"/>
      <point x="32.3333" y="66.6667"/>
      <point x="41" y="74"/>
      <point x="53" y="74" type="curve" smooth="yes"/>
      <point x="58.3333" y="74"/>
      <point x="63" y="71.3333"/>
      <point x="67" y="66" type="curve" smooth="yes"/>
      <point x="77" y="53.3333"/>
      <point x="90.3333" y="47"/>
      <point x="107" y="47" type="curve" smooth="yes"/>
      <point x="126.333" y="47"/>
      <point x="139.667" y="56.3333"/>
      <point x="147" y="75" type="curve"/>
    </contour>
    <contour>
      <point x="27" y="102" type="move" smooth="yes"/>
    </contour>
    <contour>
      <point x="11" y="119" type="move" smooth="yes"/>
    </contour>
    <contour>
      <point x="87" y="129" type="move" smooth="yes"/>
    </contour>
    <contour>
      <point x="70" y="112" type="move" smooth="yes"/>
    </contour>
    <contour>
      <point x="130" y="142" type="move" smooth="yes"/>
    </contour>
    <contour>
      <point x="147" y="125" type="move" smooth="yes"/>
    </contour>
    <contour>
      <point x="130" y="142" type="line"/>
      <point x="121.332" y="123.219"/>
      <point x="117.54" y="120"/>
      <point x="108" y="120" type="curve" smooth="yes"/>
      <point x="99.3333" y="120"/>
      <point x="92" y="123.333"/>
      <point x="86" y="130" type="curve" smooth="yes"/>
      <point x="76" y="141.333"/>
      <point x="64.3333" y="147"/>
      <point x="51" y="147" type="curve" smooth="yes"/>
      <point x="33.6667" y="147"/>
      <point x="20.3333" y="137.667"/>
      <point x="11" y="119" type="curve"/>
      <point x="27" y="102" type="line"/>
      <point x="32.3333" y="116.667"/>
      <point x="41" y="124"/>
      <point x="53" y="124" type="curve" smooth="yes"/>
      <point x="58.3333" y="124"/>
      <point x="63" y="121.333"/>
      <point x="67" y="116" type="curve" smooth="yes"/>
      <point x="77" y="103.333"/>
      <point x="90.3333" y="97"/>
      <point x="107" y="97" type="curve" smooth="yes"/>
      <point x="126.333" y="97"/>
      <point x="139.667" y="106.333"/>
      <point x="147" y="125" type="curve"/>
    </contour>
  </outline>
</glyph>
<glyph name="angleright" format="2">
  <advance width="88"/>
  <unicode hex="232A"/>
  <outline>
    <contour>
      <point x="22" y="183" type="line"/>
      <point x="84" y="78" type="line"/>
      <point x="83" y="78" type="line"/>
      <point x="22" y="-19" type="line"/>
      <point x="7" y="-11" type="line"/>
      <point x="64" y="79" type="line"/>
      <point x="8" y="175" type="line"/>
    </contour>
  </outline>
</glyph>
<glyph name="uni309A" format="2">
  <advance width="0"/>
  <unicode hex="309A"/>
  <outline>
    <contour>
      <point x="26" y="120" type="move" smooth="yes"/>
    </contour>
    <contour>
      <point x="26" y="100" type="curve" smooth="yes"/>
      <point x="16.3553" y="100"/>
      <point x="10" y="106.149"/>
      <point x="10" y="114" type="curve" smooth="yes"/>
      <point x="10" y="124.667"/>
      <point x="14.3333" y="130.333"/>
      <point x="23" y="131" type="curve" smooth="yes"/>
      <point x="33" y="131.667"/>
      <point x="38" y="126.333"/>
      <point x="38" y="115" type="curve" smooth="yes"/>
      <point x="38" y="105"/>
      <point x="34" y="100"/>
    </contour>
    <contour>
      <point x="26" y="120" type="curve" smooth="yes"/>
      <point x="23.3333" y="120"/>
      <point x="22" y="118.333"/>
      <point x="22" y="115" type="curve" smooth="yes"/>
      <point x="22" y="113"/>
      <point x="22.6667" y="112"/>
      <point x="24" y="112" type="curve" smooth="yes"/>
      <point x="26.6667" y="112"/>
      <point x="28" y="112.667"/>
      <point x="28" y="114" type="curve" smooth="yes"/>
      <point x="28" y="116.667"/>
      <point x="27.3333" y="118.667"/>
    </contour>
  </outline>
</glyph>
<glyph name=".notdef" format="2">
  <advance width="170"/>
  <outline>
    <contour>
      <point x="27" y="178" type="line"/>
      <point x="27" y="6" type="line"/>
      <point x="143" y="6" type="line"/>
      <point x="143" y="178" type="line"/>
    </contour>
    <contour>
      <point x="20" y="184" type="line"/>
      <point x="150" y="184" type="line"/>
      <point x="150" y="0" type="line"/>
      <point x="20" y="0" type="line"/>
    </contour>
  </outline>
</glyph>
